<mxfile host="Electron" modified="2023-06-06T19:33:02.757Z" agent="Mozilla/5.0 (Macintosh; Intel Mac OS X 10_15_7) AppleWebKit/537.36 (KHTML, like Gecko) draw.io/21.2.8 Chrome/112.0.5615.165 Electron/24.2.0 Safari/537.36" etag="uDmynGmvtkI11aBqD8Ka" version="21.2.8" type="device" pages="3">
  <diagram id="q7uAqvY7kMipL-uK67RV" name="Widgets">
    <mxGraphModel dx="1170" dy="840" grid="1" gridSize="10" guides="1" tooltips="1" connect="1" arrows="1" fold="1" page="1" pageScale="1" pageWidth="850" pageHeight="1100" math="0" shadow="0">
      <root>
        <mxCell id="0" />
        <mxCell id="1" parent="0" />
        <mxCell id="3ebamhketU4lPxRUppaH-1" value="AWS Account" style="points=[[0,0],[0.25,0],[0.5,0],[0.75,0],[1,0],[1,0.25],[1,0.5],[1,0.75],[1,1],[0.75,1],[0.5,1],[0.25,1],[0,1],[0,0.75],[0,0.5],[0,0.25]];outlineConnect=0;gradientColor=none;html=1;whiteSpace=wrap;fontSize=12;fontStyle=0;container=1;pointerEvents=0;collapsible=0;recursiveResize=0;shape=mxgraph.aws4.group;grIcon=mxgraph.aws4.group_account;strokeColor=#CD2264;fillColor=none;verticalAlign=top;align=left;spacingLeft=30;fontColor=#CD2264;dashed=0;" parent="1" vertex="1">
          <mxGeometry x="440" y="40" width="360" height="280" as="geometry" />
        </mxCell>
        <mxCell id="3ebamhketU4lPxRUppaH-6" value="" style="group" parent="1" vertex="1" connectable="0">
          <mxGeometry x="40" y="40" width="360" height="280" as="geometry" />
        </mxCell>
        <mxCell id="3ebamhketU4lPxRUppaH-2" value="" style="rounded=0;whiteSpace=wrap;html=1;strokeColor=#CD2264;fillColor=none;container=1;" parent="3ebamhketU4lPxRUppaH-6" vertex="1">
          <mxGeometry width="360" height="280" as="geometry" />
        </mxCell>
        <mxCell id="3ebamhketU4lPxRUppaH-5" value="&amp;nbsp;Deployment Unit" style="text;html=1;strokeColor=none;fillColor=none;align=left;verticalAlign=middle;whiteSpace=wrap;rounded=0;fontColor=#cd2264;" parent="3ebamhketU4lPxRUppaH-2" vertex="1">
          <mxGeometry x="40" width="120" height="40" as="geometry" />
        </mxCell>
        <mxCell id="3ebamhketU4lPxRUppaH-3" value="" style="sketch=0;points=[[0,0,0],[0.25,0,0],[0.5,0,0],[0.75,0,0],[1,0,0],[0,1,0],[0.25,1,0],[0.5,1,0],[0.75,1,0],[1,1,0],[0,0.25,0],[0,0.5,0],[0,0.75,0],[1,0.25,0],[1,0.5,0],[1,0.75,0]];points=[[0,0,0],[0.25,0,0],[0.5,0,0],[0.75,0,0],[1,0,0],[0,1,0],[0.25,1,0],[0.5,1,0],[0.75,1,0],[1,1,0],[0,0.25,0],[0,0.5,0],[0,0.75,0],[1,0.25,0],[1,0.5,0],[1,0.75,0]];outlineConnect=0;fontColor=#232F3E;gradientColor=#F34482;gradientDirection=north;fillColor=#BC1356;strokeColor=#ffffff;dashed=0;verticalLabelPosition=bottom;verticalAlign=top;align=center;html=1;fontSize=12;fontStyle=0;aspect=fixed;shape=mxgraph.aws4.resourceIcon;resIcon=mxgraph.aws4.cloudformation;" parent="3ebamhketU4lPxRUppaH-6" vertex="1">
          <mxGeometry width="40" height="40" as="geometry" />
        </mxCell>
        <mxCell id="nDh9rF6-R-8ZsaSR21yY-1" value="Git Branch" style="shape=image;verticalLabelPosition=bottom;labelBackgroundColor=default;verticalAlign=top;aspect=fixed;imageAspect=0;image=data:image/svg+xml,PHN2ZyB4bWxucz0iaHR0cDovL3d3dy53My5vcmcvMjAwMC9zdmciIGhlaWdodD0iNDhweCIgd2lkdGg9IjQ4cHgiIHZpZXdCb3g9IjAgMCA0OCA0OCI+PHBhdGggZD0iTTQyLjIsMjIuMUwyNS45LDUuOEMyNS40LDUuMywyNC43LDUsMjQsNWMwLDAsMCwwLDAsMGMtMC43LDAtMS40LDAuMy0xLjksMC44bC0zLjUsMy41bDQuMSw0LjFjMC40LTAuMiwwLjgtMC4zLDEuMy0wLjNjMS43LDAsMywxLjMsMywzYzAsMC41LTAuMSwwLjktMC4zLDEuM2w0LDRjMC40LTAuMiwwLjgtMC4zLDEuMy0wLjNjMS43LDAsMywxLjMsMywzcy0xLjMsMy0zLDNjLTEuNywwLTMtMS4zLTMtM2MwLTAuNSwwLjEtMC45LDAuMy0xLjNsLTQtNGMtMC4xLDAtMC4yLDAuMS0wLjMsMC4xdjEwLjRjMS4yLDAuNCwyLDEuNSwyLDIuOGMwLDEuNy0xLjMsMy0zLDNzLTMtMS4zLTMtM2MwLTEuMywwLjgtMi40LDItMi44VjE4LjhjLTEuMi0wLjQtMi0xLjUtMi0yLjhjMC0wLjUsMC4xLTAuOSwwLjMtMS4zbC00LjEtNC4xTDUuOCwyMi4xQzUuMywyMi42LDUsMjMuMyw1LDI0YzAsMC43LDAuMywxLjQsMC44LDEuOWwxNi4zLDE2LjNjMCwwLDAsMCwwLDBjMC41LDAuNSwxLjIsMC44LDEuOSwwLjhzMS40LTAuMywxLjktMC44bDE2LjMtMTYuM2MwLjUtMC41LDAuOC0xLjIsMC44LTEuOUM0MywyMy4zLDQyLjcsMjIuNiw0Mi4yLDIyLjF6IiBmaWxsPSIjRjQ1MTFFIi8+PC9zdmc+;" parent="1" vertex="1">
          <mxGeometry x="40" y="1040" width="80" height="80" as="geometry" />
        </mxCell>
        <mxCell id="yLGBsqt9FNaAwt5bE01U-2" value="" style="group" parent="1" vertex="1" connectable="0">
          <mxGeometry x="40" y="360" width="120" height="25" as="geometry" />
        </mxCell>
        <mxCell id="yLGBsqt9FNaAwt5bE01U-3" value="" style="sketch=0;points=[[0,0,0],[0.25,0,0],[0.5,0,0],[0.75,0,0],[1,0,0],[0,1,0],[0.25,1,0],[0.5,1,0],[0.75,1,0],[1,1,0],[0,0.25,0],[0,0.5,0],[0,0.75,0],[1,0.25,0],[1,0.5,0],[1,0.75,0]];outlineConnect=0;fontColor=#232F3E;gradientColor=#4D72F3;gradientDirection=north;fillColor=#3334B9;strokeColor=#ffffff;dashed=0;verticalLabelPosition=bottom;verticalAlign=top;align=center;html=1;fontSize=12;fontStyle=0;aspect=fixed;shape=mxgraph.aws4.resourceIcon;resIcon=mxgraph.aws4.codepipeline;container=0;" parent="yLGBsqt9FNaAwt5bE01U-2" vertex="1">
          <mxGeometry width="25" height="25" as="geometry" />
        </mxCell>
        <mxCell id="yLGBsqt9FNaAwt5bE01U-4" value="&amp;nbsp;CodePipeline" style="text;html=1;strokeColor=none;fillColor=none;align=left;verticalAlign=middle;whiteSpace=wrap;rounded=0;fontColor=#4D72F3;container=0;" parent="yLGBsqt9FNaAwt5bE01U-2" vertex="1">
          <mxGeometry x="25" width="95" height="25" as="geometry" />
        </mxCell>
        <mxCell id="yLGBsqt9FNaAwt5bE01U-5" value="" style="rounded=0;whiteSpace=wrap;html=1;fillColor=none;strokeColor=#4d72f3;" parent="1" vertex="1">
          <mxGeometry x="40" y="360" width="360" height="280" as="geometry" />
        </mxCell>
        <mxCell id="yLGBsqt9FNaAwt5bE01U-11" value="" style="group" parent="1" vertex="1" connectable="0">
          <mxGeometry x="440" y="360" width="360" height="280" as="geometry" />
        </mxCell>
        <mxCell id="yLGBsqt9FNaAwt5bE01U-10" value="" style="sketch=0;points=[[0,0,0],[0.25,0,0],[0.5,0,0],[0.75,0,0],[1,0,0],[0,1,0],[0.25,1,0],[0.5,1,0],[0.75,1,0],[1,1,0],[0,0.25,0],[0,0.5,0],[0,0.75,0],[1,0.25,0],[1,0.5,0],[1,0.75,0]];outlineConnect=0;fontColor=#232F3E;gradientColor=#4D72F3;gradientDirection=north;fillColor=#3334B9;strokeColor=#ffffff;dashed=0;verticalLabelPosition=bottom;verticalAlign=top;align=center;html=1;fontSize=12;fontStyle=0;aspect=fixed;shape=mxgraph.aws4.resourceIcon;resIcon=mxgraph.aws4.codebuild;" parent="yLGBsqt9FNaAwt5bE01U-11" vertex="1">
          <mxGeometry width="25" height="25" as="geometry" />
        </mxCell>
        <mxCell id="yLGBsqt9FNaAwt5bE01U-8" value="&amp;nbsp;CodeBuild Job" style="text;html=1;strokeColor=none;fillColor=none;align=left;verticalAlign=middle;whiteSpace=wrap;rounded=0;fontColor=#4D72F3;container=0;" parent="yLGBsqt9FNaAwt5bE01U-11" vertex="1">
          <mxGeometry x="25" width="95" height="25" as="geometry" />
        </mxCell>
        <mxCell id="yLGBsqt9FNaAwt5bE01U-9" value="" style="rounded=0;whiteSpace=wrap;html=1;fillColor=none;strokeColor=#4d72f3;" parent="yLGBsqt9FNaAwt5bE01U-11" vertex="1">
          <mxGeometry width="360" height="280" as="geometry" />
        </mxCell>
        <mxCell id="pno42WJ8ohMLmohR_kB9-1" value="Git Branch" style="image;aspect=fixed;html=1;points=[];align=center;fontSize=12;image=img/lib/azure2/general/Branch.svg;" parent="1" vertex="1">
          <mxGeometry x="160" y="1040" width="80" height="80" as="geometry" />
        </mxCell>
        <mxCell id="5slB_yqeO-nOf2K29UVc-1" value="CloudFormation&lt;br&gt;Template" style="sketch=0;outlineConnect=0;fontColor=#232F3E;gradientColor=none;fillColor=#B0084D;strokeColor=none;dashed=0;verticalLabelPosition=bottom;verticalAlign=top;align=center;html=1;fontSize=12;fontStyle=0;pointerEvents=1;shape=mxgraph.aws4.template;container=0;" parent="1" vertex="1">
          <mxGeometry x="520" y="720" width="80" height="80" as="geometry" />
        </mxCell>
        <mxCell id="5slB_yqeO-nOf2K29UVc-2" value="IAM Role" style="sketch=0;outlineConnect=0;fontColor=#232F3E;gradientColor=none;fillColor=#BF0816;strokeColor=none;dashed=0;verticalLabelPosition=bottom;verticalAlign=top;align=center;html=1;fontSize=12;fontStyle=0;pointerEvents=1;shape=mxgraph.aws4.role;container=0;" parent="1" vertex="1">
          <mxGeometry x="640" y="720" width="80" height="80" as="geometry" />
        </mxCell>
        <mxCell id="5slB_yqeO-nOf2K29UVc-3" value="Glue Job" style="sketch=0;points=[[0,0,0],[0.25,0,0],[0.5,0,0],[0.75,0,0],[1,0,0],[0,1,0],[0.25,1,0],[0.5,1,0],[0.75,1,0],[1,1,0],[0,0.25,0],[0,0.5,0],[0,0.75,0],[1,0.25,0],[1,0.5,0],[1,0.75,0]];outlineConnect=0;fontColor=#232F3E;gradientColor=#945DF2;gradientDirection=north;fillColor=#5A30B5;strokeColor=#ffffff;dashed=0;verticalLabelPosition=bottom;verticalAlign=top;align=center;html=1;fontSize=12;fontStyle=0;aspect=fixed;shape=mxgraph.aws4.resourceIcon;resIcon=mxgraph.aws4.glue;container=0;" parent="1" vertex="1">
          <mxGeometry x="400" y="880" width="80" height="80" as="geometry" />
        </mxCell>
        <mxCell id="bghhJONjkgt5ji0ICRuz-2" value="Lambda Function" style="sketch=0;outlineConnect=0;fontColor=#232F3E;gradientColor=none;fillColor=#D45B07;strokeColor=none;dashed=0;verticalLabelPosition=bottom;verticalAlign=top;align=center;html=1;fontSize=12;fontStyle=0;aspect=fixed;pointerEvents=1;shape=mxgraph.aws4.lambda_function;" parent="1" vertex="1">
          <mxGeometry x="280" y="880" width="80" height="80" as="geometry" />
        </mxCell>
        <mxCell id="bghhJONjkgt5ji0ICRuz-6" value="Event Bridge" style="sketch=0;points=[[0,0,0],[0.25,0,0],[0.5,0,0],[0.75,0,0],[1,0,0],[0,1,0],[0.25,1,0],[0.5,1,0],[0.75,1,0],[1,1,0],[0,0.25,0],[0,0.5,0],[0,0.75,0],[1,0.25,0],[1,0.5,0],[1,0.75,0]];outlineConnect=0;fontColor=#232F3E;gradientColor=#FF4F8B;gradientDirection=north;fillColor=#BC1356;strokeColor=#ffffff;dashed=0;verticalLabelPosition=bottom;verticalAlign=top;align=center;html=1;fontSize=12;fontStyle=0;aspect=fixed;shape=mxgraph.aws4.resourceIcon;resIcon=mxgraph.aws4.eventbridge;" parent="1" vertex="1">
          <mxGeometry x="520" y="880" width="80" height="80" as="geometry" />
        </mxCell>
        <mxCell id="D8_RJC_pTj7fzQ52w8fN-1" value="CloudFormation&lt;br&gt;Stack" style="sketch=0;points=[[0,0,0],[0.25,0,0],[0.5,0,0],[0.75,0,0],[1,0,0],[0,1,0],[0.25,1,0],[0.5,1,0],[0.75,1,0],[1,1,0],[0,0.25,0],[0,0.5,0],[0,0.75,0],[1,0.25,0],[1,0.5,0],[1,0.75,0]];points=[[0,0,0],[0.25,0,0],[0.5,0,0],[0.75,0,0],[1,0,0],[0,1,0],[0.25,1,0],[0.5,1,0],[0.75,1,0],[1,1,0],[0,0.25,0],[0,0.5,0],[0,0.75,0],[1,0.25,0],[1,0.5,0],[1,0.75,0]];outlineConnect=0;fontColor=#232F3E;gradientColor=#F34482;gradientDirection=north;fillColor=#BC1356;strokeColor=#ffffff;dashed=0;verticalLabelPosition=bottom;verticalAlign=top;align=center;html=1;fontSize=12;fontStyle=0;aspect=fixed;shape=mxgraph.aws4.resourceIcon;resIcon=mxgraph.aws4.cloudformation;container=0;" parent="1" vertex="1">
          <mxGeometry x="400" y="720" width="80" height="80" as="geometry" />
        </mxCell>
        <mxCell id="cIhSMo-fV8EQnNpXyJqY-1" value="CodeCommit&lt;br&gt;Repository" style="sketch=0;points=[[0,0,0],[0.25,0,0],[0.5,0,0],[0.75,0,0],[1,0,0],[0,1,0],[0.25,1,0],[0.5,1,0],[0.75,1,0],[1,1,0],[0,0.25,0],[0,0.5,0],[0,0.75,0],[1,0.25,0],[1,0.5,0],[1,0.75,0]];outlineConnect=0;fontColor=#232F3E;gradientColor=#4D72F3;gradientDirection=north;fillColor=#3334B9;strokeColor=#ffffff;dashed=0;verticalLabelPosition=bottom;verticalAlign=top;align=center;html=1;fontSize=12;fontStyle=0;aspect=fixed;shape=mxgraph.aws4.resourceIcon;resIcon=mxgraph.aws4.codecommit;" parent="1" vertex="1">
          <mxGeometry x="40" y="720" width="80" height="80" as="geometry" />
        </mxCell>
        <mxCell id="cIhSMo-fV8EQnNpXyJqY-2" value="CodeBuild&lt;br style=&quot;border-color: var(--border-color);&quot;&gt;Project" style="sketch=0;points=[[0,0,0],[0.25,0,0],[0.5,0,0],[0.75,0,0],[1,0,0],[0,1,0],[0.25,1,0],[0.5,1,0],[0.75,1,0],[1,1,0],[0,0.25,0],[0,0.5,0],[0,0.75,0],[1,0.25,0],[1,0.5,0],[1,0.75,0]];outlineConnect=0;fontColor=#232F3E;gradientColor=#4D72F3;gradientDirection=north;fillColor=#3334B9;strokeColor=#ffffff;dashed=0;verticalLabelPosition=bottom;verticalAlign=top;align=center;html=1;fontSize=12;fontStyle=0;aspect=fixed;shape=mxgraph.aws4.resourceIcon;resIcon=mxgraph.aws4.codebuild;" parent="1" vertex="1">
          <mxGeometry x="160" y="720" width="80" height="80" as="geometry" />
        </mxCell>
        <mxCell id="cIhSMo-fV8EQnNpXyJqY-3" value="CodePipeline" style="sketch=0;points=[[0,0,0],[0.25,0,0],[0.5,0,0],[0.75,0,0],[1,0,0],[0,1,0],[0.25,1,0],[0.5,1,0],[0.75,1,0],[1,1,0],[0,0.25,0],[0,0.5,0],[0,0.75,0],[1,0.25,0],[1,0.5,0],[1,0.75,0]];outlineConnect=0;fontColor=#232F3E;gradientColor=#4D72F3;gradientDirection=north;fillColor=#3334B9;strokeColor=#ffffff;dashed=0;verticalLabelPosition=bottom;verticalAlign=top;align=center;html=1;fontSize=12;fontStyle=0;aspect=fixed;shape=mxgraph.aws4.resourceIcon;resIcon=mxgraph.aws4.codepipeline;" parent="1" vertex="1">
          <mxGeometry x="280" y="720" width="80" height="80" as="geometry" />
        </mxCell>
        <mxCell id="cIhSMo-fV8EQnNpXyJqY-4" value="S3 Bucket" style="sketch=0;points=[[0,0,0],[0.25,0,0],[0.5,0,0],[0.75,0,0],[1,0,0],[0,1,0],[0.25,1,0],[0.5,1,0],[0.75,1,0],[1,1,0],[0,0.25,0],[0,0.5,0],[0,0.75,0],[1,0.25,0],[1,0.5,0],[1,0.75,0]];outlineConnect=0;fontColor=#232F3E;gradientColor=#60A337;gradientDirection=north;fillColor=#277116;strokeColor=#ffffff;dashed=0;verticalLabelPosition=bottom;verticalAlign=top;align=center;html=1;fontSize=12;fontStyle=0;aspect=fixed;shape=mxgraph.aws4.resourceIcon;resIcon=mxgraph.aws4.s3;" parent="1" vertex="1">
          <mxGeometry x="40" y="880" width="80" height="80" as="geometry" />
        </mxCell>
        <mxCell id="j2Tb_J7a0tIzIXydHOvH-1" value="Lambda" style="sketch=0;points=[[0,0,0],[0.25,0,0],[0.5,0,0],[0.75,0,0],[1,0,0],[0,1,0],[0.25,1,0],[0.5,1,0],[0.75,1,0],[1,1,0],[0,0.25,0],[0,0.5,0],[0,0.75,0],[1,0.25,0],[1,0.5,0],[1,0.75,0]];outlineConnect=0;fontColor=#232F3E;gradientColor=#F78E04;gradientDirection=north;fillColor=#D05C17;strokeColor=#ffffff;dashed=0;verticalLabelPosition=bottom;verticalAlign=top;align=center;html=1;fontSize=12;fontStyle=0;aspect=fixed;shape=mxgraph.aws4.resourceIcon;resIcon=mxgraph.aws4.lambda;" parent="1" vertex="1">
          <mxGeometry x="160" y="880" width="80" height="80" as="geometry" />
        </mxCell>
        <mxCell id="FUmqeyp8WMpIT8y1NkFV-1" value="Staging&lt;br&gt;Parameter Store" style="sketch=0;outlineConnect=0;fontColor=#232F3E;gradientColor=none;fillColor=#B0084D;strokeColor=none;dashed=0;verticalLabelPosition=bottom;verticalAlign=top;align=center;html=1;fontSize=12;fontStyle=0;pointerEvents=1;shape=mxgraph.aws4.parameter_store;" parent="1" vertex="1">
          <mxGeometry x="760" y="720" width="80" height="80" as="geometry" />
        </mxCell>
      </root>
    </mxGraphModel>
  </diagram>
  <diagram id="HjYDksVOIs1rO6o7VQWa" name="Solution">
    <mxGraphModel dx="1463" dy="1050" grid="1" gridSize="10" guides="1" tooltips="1" connect="1" arrows="1" fold="1" page="1" pageScale="1" pageWidth="850" pageHeight="1100" math="0" shadow="0">
      <root>
        <mxCell id="0" />
        <mxCell id="1" parent="0" />
        <mxCell id="keaWbCxJdhdQuxR16dr5-61" value="" style="rounded=0;whiteSpace=wrap;html=1;strokeColor=#CD2264;fillColor=none;container=0;" parent="1" vertex="1">
          <mxGeometry x="40" y="3080" width="760" height="440" as="geometry" />
        </mxCell>
        <mxCell id="aIiy6uRkic5YZvylrRZq-61" value="Project" style="rounded=0;whiteSpace=wrap;html=1;fillColor=none;verticalAlign=top;container=0;" parent="1" vertex="1">
          <mxGeometry x="80" y="400" width="1040" height="600" as="geometry" />
        </mxCell>
        <mxCell id="gRnku9ogE1lXKSb3Mj2m-3" value="" style="rounded=0;whiteSpace=wrap;html=1;strokeColor=#CD2264;fillColor=none;container=0;fontStyle=1" parent="1" vertex="1">
          <mxGeometry x="200" y="440" width="360" height="520" as="geometry" />
        </mxCell>
        <mxCell id="lDebBrJfbTBHltYF8pUQ-2" value="" style="rounded=0;whiteSpace=wrap;html=1;strokeColor=#CD2264;fillColor=none;container=0;" parent="1" vertex="1">
          <mxGeometry x="40" y="1160" width="520" height="240" as="geometry" />
        </mxCell>
        <mxCell id="lDebBrJfbTBHltYF8pUQ-3" value="" style="sketch=0;points=[[0,0,0],[0.25,0,0],[0.5,0,0],[0.75,0,0],[1,0,0],[0,1,0],[0.25,1,0],[0.5,1,0],[0.75,1,0],[1,1,0],[0,0.25,0],[0,0.5,0],[0,0.75,0],[1,0.25,0],[1,0.5,0],[1,0.75,0]];points=[[0,0,0],[0.25,0,0],[0.5,0,0],[0.75,0,0],[1,0,0],[0,1,0],[0.25,1,0],[0.5,1,0],[0.75,1,0],[1,1,0],[0,0.25,0],[0,0.5,0],[0,0.75,0],[1,0.25,0],[1,0.5,0],[1,0.75,0]];outlineConnect=0;fontColor=#232F3E;gradientColor=#F34482;gradientDirection=north;fillColor=#BC1356;strokeColor=#ffffff;dashed=0;verticalLabelPosition=bottom;verticalAlign=top;align=center;html=1;fontSize=12;fontStyle=0;aspect=fixed;shape=mxgraph.aws4.resourceIcon;resIcon=mxgraph.aws4.cloudformation;container=0;" parent="1" vertex="1">
          <mxGeometry x="40" y="1160" width="40" height="40" as="geometry" />
        </mxCell>
        <mxCell id="lDebBrJfbTBHltYF8pUQ-4" value="&amp;nbsp;Deployment Unit" style="text;html=1;strokeColor=none;fillColor=none;align=left;verticalAlign=middle;whiteSpace=wrap;rounded=0;fontColor=#cd2264;container=0;" parent="1" vertex="1">
          <mxGeometry x="80" y="1160" width="120" height="40" as="geometry" />
        </mxCell>
        <mxCell id="gRnku9ogE1lXKSb3Mj2m-1" value="AWS Account" style="points=[[0,0],[0.25,0],[0.5,0],[0.75,0],[1,0],[1,0.25],[1,0.5],[1,0.75],[1,1],[0.75,1],[0.5,1],[0.25,1],[0,1],[0,0.75],[0,0.5],[0,0.25]];outlineConnect=0;gradientColor=none;html=1;whiteSpace=wrap;fontSize=12;fontStyle=0;container=0;pointerEvents=0;collapsible=0;recursiveResize=0;shape=mxgraph.aws4.group;grIcon=mxgraph.aws4.group_account;strokeColor=#CD2264;fillColor=none;verticalAlign=top;align=left;spacingLeft=30;fontColor=#CD2264;dashed=0;" parent="1" vertex="1">
          <mxGeometry x="40" y="360" width="1240" height="680" as="geometry" />
        </mxCell>
        <mxCell id="aIiy6uRkic5YZvylrRZq-30" value="CodeCommit&lt;br&gt;Git Repository" style="sketch=0;points=[[0,0,0],[0.25,0,0],[0.5,0,0],[0.75,0,0],[1,0,0],[0,1,0],[0.25,1,0],[0.5,1,0],[0.75,1,0],[1,1,0],[0,0.25,0],[0,0.5,0],[0,0.75,0],[1,0.25,0],[1,0.5,0],[1,0.75,0]];outlineConnect=0;fontColor=#232F3E;gradientColor=#4D72F3;gradientDirection=north;fillColor=#3334B9;strokeColor=#ffffff;dashed=0;verticalLabelPosition=bottom;verticalAlign=top;align=center;html=1;fontSize=12;fontStyle=0;aspect=fixed;shape=mxgraph.aws4.resourceIcon;resIcon=mxgraph.aws4.codecommit;container=0;" parent="1" vertex="1">
          <mxGeometry x="120" y="440" width="40" height="40" as="geometry" />
        </mxCell>
        <mxCell id="aIiy6uRkic5YZvylrRZq-14" value="Sandbox (sbx)" style="group;fillColor=#dae8fc;strokeColor=#6c8ebf;container=0;" parent="1" vertex="1" connectable="0">
          <mxGeometry x="240" y="480" width="280" height="120" as="geometry" />
        </mxCell>
        <mxCell id="aIiy6uRkic5YZvylrRZq-15" value="Test (tst)" style="group;fillColor=#d5e8d4;strokeColor=#82b366;container=0;" parent="1" vertex="1" connectable="0">
          <mxGeometry x="240" y="640" width="280" height="120" as="geometry" />
        </mxCell>
        <mxCell id="aIiy6uRkic5YZvylrRZq-25" value="Production (prd)" style="group;fillColor=#f8cecc;strokeColor=#b85450;container=0;" parent="1" vertex="1" connectable="0">
          <mxGeometry x="240" y="800" width="280" height="120" as="geometry" />
        </mxCell>
        <mxCell id="gRnku9ogE1lXKSb3Mj2m-4" value="" style="sketch=0;points=[[0,0,0],[0.25,0,0],[0.5,0,0],[0.75,0,0],[1,0,0],[0,1,0],[0.25,1,0],[0.5,1,0],[0.75,1,0],[1,1,0],[0,0.25,0],[0,0.5,0],[0,0.75,0],[1,0.25,0],[1,0.5,0],[1,0.75,0]];points=[[0,0,0],[0.25,0,0],[0.5,0,0],[0.75,0,0],[1,0,0],[0,1,0],[0.25,1,0],[0.5,1,0],[0.75,1,0],[1,1,0],[0,0.25,0],[0,0.5,0],[0,0.75,0],[1,0.25,0],[1,0.5,0],[1,0.75,0]];outlineConnect=0;fontColor=#232F3E;gradientColor=#F34482;gradientDirection=north;fillColor=#BC1356;strokeColor=#ffffff;dashed=0;verticalLabelPosition=bottom;verticalAlign=top;align=center;html=1;fontSize=12;fontStyle=0;aspect=fixed;shape=mxgraph.aws4.resourceIcon;resIcon=mxgraph.aws4.cloudformation;container=0;" parent="1" vertex="1">
          <mxGeometry x="200" y="440" width="20" height="20" as="geometry" />
        </mxCell>
        <mxCell id="gRnku9ogE1lXKSb3Mj2m-5" value="&amp;nbsp;Deployment Unit" style="text;html=1;strokeColor=none;fillColor=none;align=left;verticalAlign=middle;whiteSpace=wrap;rounded=0;fontColor=#cd2264;container=0;" parent="1" vertex="1">
          <mxGeometry x="220" y="440" width="100" height="20" as="geometry" />
        </mxCell>
        <mxCell id="aIiy6uRkic5YZvylrRZq-9" value="CFT" style="sketch=0;outlineConnect=0;fontColor=#232F3E;gradientColor=none;fillColor=#B0084D;strokeColor=none;dashed=0;verticalLabelPosition=bottom;verticalAlign=top;align=center;html=1;fontSize=12;fontStyle=0;pointerEvents=1;shape=mxgraph.aws4.template;container=0;" parent="1" vertex="1">
          <mxGeometry x="280" y="520" width="40" height="40" as="geometry" />
        </mxCell>
        <mxCell id="aIiy6uRkic5YZvylrRZq-12" value="Lambda&lt;br&gt;Function" style="sketch=0;outlineConnect=0;fontColor=#232F3E;gradientColor=none;fillColor=#D45B07;strokeColor=none;dashed=0;verticalLabelPosition=bottom;verticalAlign=top;align=center;html=1;fontSize=12;fontStyle=0;aspect=fixed;pointerEvents=1;shape=mxgraph.aws4.lambda_function;container=0;" parent="1" vertex="1">
          <mxGeometry x="440" y="520" width="40" height="40" as="geometry" />
        </mxCell>
        <mxCell id="aIiy6uRkic5YZvylrRZq-13" value="IAM&lt;br&gt;Role" style="sketch=0;outlineConnect=0;fontColor=#232F3E;gradientColor=none;fillColor=#BF0816;strokeColor=none;dashed=0;verticalLabelPosition=bottom;verticalAlign=top;align=center;html=1;fontSize=12;fontStyle=0;pointerEvents=1;shape=mxgraph.aws4.role;container=0;" parent="1" vertex="1">
          <mxGeometry x="360" y="520" width="40" height="40" as="geometry" />
        </mxCell>
        <mxCell id="aIiy6uRkic5YZvylrRZq-17" value="CFT" style="sketch=0;outlineConnect=0;fontColor=#232F3E;gradientColor=none;fillColor=#B0084D;strokeColor=none;dashed=0;verticalLabelPosition=bottom;verticalAlign=top;align=center;html=1;fontSize=12;fontStyle=0;pointerEvents=1;shape=mxgraph.aws4.template;container=0;" parent="1" vertex="1">
          <mxGeometry x="280" y="680" width="40" height="40" as="geometry" />
        </mxCell>
        <mxCell id="aIiy6uRkic5YZvylrRZq-18" value="Lambda&lt;br&gt;Function" style="sketch=0;outlineConnect=0;fontColor=#232F3E;gradientColor=none;fillColor=#D45B07;strokeColor=none;dashed=0;verticalLabelPosition=bottom;verticalAlign=top;align=center;html=1;fontSize=12;fontStyle=0;aspect=fixed;pointerEvents=1;shape=mxgraph.aws4.lambda_function;container=0;" parent="1" vertex="1">
          <mxGeometry x="440" y="680" width="40" height="40" as="geometry" />
        </mxCell>
        <mxCell id="aIiy6uRkic5YZvylrRZq-19" value="IAM&lt;br&gt;Role" style="sketch=0;outlineConnect=0;fontColor=#232F3E;gradientColor=none;fillColor=#BF0816;strokeColor=none;dashed=0;verticalLabelPosition=bottom;verticalAlign=top;align=center;html=1;fontSize=12;fontStyle=0;pointerEvents=1;shape=mxgraph.aws4.role;container=0;" parent="1" vertex="1">
          <mxGeometry x="360" y="680" width="40" height="40" as="geometry" />
        </mxCell>
        <mxCell id="aIiy6uRkic5YZvylrRZq-27" value="CFT" style="sketch=0;outlineConnect=0;fontColor=#232F3E;gradientColor=none;fillColor=#B0084D;strokeColor=none;dashed=0;verticalLabelPosition=bottom;verticalAlign=top;align=center;html=1;fontSize=12;fontStyle=0;pointerEvents=1;shape=mxgraph.aws4.template;container=0;" parent="1" vertex="1">
          <mxGeometry x="280" y="840" width="40" height="40" as="geometry" />
        </mxCell>
        <mxCell id="aIiy6uRkic5YZvylrRZq-28" value="Lambda&lt;br&gt;Function" style="sketch=0;outlineConnect=0;fontColor=#232F3E;gradientColor=none;fillColor=#D45B07;strokeColor=none;dashed=0;verticalLabelPosition=bottom;verticalAlign=top;align=center;html=1;fontSize=12;fontStyle=0;aspect=fixed;pointerEvents=1;shape=mxgraph.aws4.lambda_function;container=0;" parent="1" vertex="1">
          <mxGeometry x="440" y="840" width="40" height="40" as="geometry" />
        </mxCell>
        <mxCell id="aIiy6uRkic5YZvylrRZq-29" value="IAM&lt;br&gt;Role" style="sketch=0;outlineConnect=0;fontColor=#232F3E;gradientColor=none;fillColor=#BF0816;strokeColor=none;dashed=0;verticalLabelPosition=bottom;verticalAlign=top;align=center;html=1;fontSize=12;fontStyle=0;pointerEvents=1;shape=mxgraph.aws4.role;container=0;" parent="1" vertex="1">
          <mxGeometry x="360" y="840" width="40" height="40" as="geometry" />
        </mxCell>
        <mxCell id="aIiy6uRkic5YZvylrRZq-38" value="" style="rounded=0;whiteSpace=wrap;html=1;strokeColor=#CD2264;fillColor=none;container=0;" parent="1" vertex="1">
          <mxGeometry x="600" y="440" width="360" height="520" as="geometry" />
        </mxCell>
        <mxCell id="aIiy6uRkic5YZvylrRZq-39" value="" style="sketch=0;points=[[0,0,0],[0.25,0,0],[0.5,0,0],[0.75,0,0],[1,0,0],[0,1,0],[0.25,1,0],[0.5,1,0],[0.75,1,0],[1,1,0],[0,0.25,0],[0,0.5,0],[0,0.75,0],[1,0.25,0],[1,0.5,0],[1,0.75,0]];points=[[0,0,0],[0.25,0,0],[0.5,0,0],[0.75,0,0],[1,0,0],[0,1,0],[0.25,1,0],[0.5,1,0],[0.75,1,0],[1,1,0],[0,0.25,0],[0,0.5,0],[0,0.75,0],[1,0.25,0],[1,0.5,0],[1,0.75,0]];outlineConnect=0;fontColor=#232F3E;gradientColor=#F34482;gradientDirection=north;fillColor=#BC1356;strokeColor=#ffffff;dashed=0;verticalLabelPosition=bottom;verticalAlign=top;align=center;html=1;fontSize=12;fontStyle=0;aspect=fixed;shape=mxgraph.aws4.resourceIcon;resIcon=mxgraph.aws4.cloudformation;container=0;" parent="1" vertex="1">
          <mxGeometry x="600" y="440" width="20" height="20" as="geometry" />
        </mxCell>
        <mxCell id="aIiy6uRkic5YZvylrRZq-40" value="&amp;nbsp;Deployment Unit" style="text;html=1;strokeColor=none;fillColor=none;align=left;verticalAlign=middle;whiteSpace=wrap;rounded=0;fontColor=#cd2264;container=0;" parent="1" vertex="1">
          <mxGeometry x="620" y="440" width="100" height="20" as="geometry" />
        </mxCell>
        <mxCell id="aIiy6uRkic5YZvylrRZq-34" value="Sandbox (sbx)" style="group;fillColor=#dae8fc;strokeColor=#6c8ebf;container=0;" parent="1" vertex="1" connectable="0">
          <mxGeometry x="640" y="480" width="280" height="120" as="geometry" />
        </mxCell>
        <mxCell id="aIiy6uRkic5YZvylrRZq-42" value="CFT" style="sketch=0;outlineConnect=0;fontColor=#232F3E;gradientColor=none;fillColor=#B0084D;strokeColor=none;dashed=0;verticalLabelPosition=bottom;verticalAlign=top;align=center;html=1;fontSize=12;fontStyle=0;pointerEvents=1;shape=mxgraph.aws4.template;container=0;" parent="1" vertex="1">
          <mxGeometry x="680" y="520" width="40" height="40" as="geometry" />
        </mxCell>
        <mxCell id="aIiy6uRkic5YZvylrRZq-44" value="IAM&lt;br&gt;Role" style="sketch=0;outlineConnect=0;fontColor=#232F3E;gradientColor=none;fillColor=#BF0816;strokeColor=none;dashed=0;verticalLabelPosition=bottom;verticalAlign=top;align=center;html=1;fontSize=12;fontStyle=0;pointerEvents=1;shape=mxgraph.aws4.role;container=0;" parent="1" vertex="1">
          <mxGeometry x="760" y="520" width="40" height="40" as="geometry" />
        </mxCell>
        <mxCell id="aIiy6uRkic5YZvylrRZq-57" value="Glue&lt;br&gt;Job" style="sketch=0;points=[[0,0,0],[0.25,0,0],[0.5,0,0],[0.75,0,0],[1,0,0],[0,1,0],[0.25,1,0],[0.5,1,0],[0.75,1,0],[1,1,0],[0,0.25,0],[0,0.5,0],[0,0.75,0],[1,0.25,0],[1,0.5,0],[1,0.75,0]];outlineConnect=0;fontColor=#232F3E;gradientColor=#945DF2;gradientDirection=north;fillColor=#5A30B5;strokeColor=#ffffff;dashed=0;verticalLabelPosition=bottom;verticalAlign=top;align=center;html=1;fontSize=12;fontStyle=0;aspect=fixed;shape=mxgraph.aws4.resourceIcon;resIcon=mxgraph.aws4.glue;container=0;" parent="1" vertex="1">
          <mxGeometry x="840" y="520" width="40" height="40" as="geometry" />
        </mxCell>
        <mxCell id="aIiy6uRkic5YZvylrRZq-35" value="Test (tst)" style="group;fillColor=#d5e8d4;strokeColor=#82b366;container=0;" parent="1" vertex="1" connectable="0">
          <mxGeometry x="640" y="640" width="280" height="120" as="geometry" />
        </mxCell>
        <mxCell id="aIiy6uRkic5YZvylrRZq-46" value="CFT" style="sketch=0;outlineConnect=0;fontColor=#232F3E;gradientColor=none;fillColor=#B0084D;strokeColor=none;dashed=0;verticalLabelPosition=bottom;verticalAlign=top;align=center;html=1;fontSize=12;fontStyle=0;pointerEvents=1;shape=mxgraph.aws4.template;container=0;" parent="1" vertex="1">
          <mxGeometry x="680" y="680" width="40" height="40" as="geometry" />
        </mxCell>
        <mxCell id="aIiy6uRkic5YZvylrRZq-48" value="IAM&lt;br&gt;Role" style="sketch=0;outlineConnect=0;fontColor=#232F3E;gradientColor=none;fillColor=#BF0816;strokeColor=none;dashed=0;verticalLabelPosition=bottom;verticalAlign=top;align=center;html=1;fontSize=12;fontStyle=0;pointerEvents=1;shape=mxgraph.aws4.role;container=0;" parent="1" vertex="1">
          <mxGeometry x="760" y="680" width="40" height="40" as="geometry" />
        </mxCell>
        <mxCell id="aIiy6uRkic5YZvylrRZq-58" value="Glue&lt;br&gt;Job" style="sketch=0;points=[[0,0,0],[0.25,0,0],[0.5,0,0],[0.75,0,0],[1,0,0],[0,1,0],[0.25,1,0],[0.5,1,0],[0.75,1,0],[1,1,0],[0,0.25,0],[0,0.5,0],[0,0.75,0],[1,0.25,0],[1,0.5,0],[1,0.75,0]];outlineConnect=0;fontColor=#232F3E;gradientColor=#945DF2;gradientDirection=north;fillColor=#5A30B5;strokeColor=#ffffff;dashed=0;verticalLabelPosition=bottom;verticalAlign=top;align=center;html=1;fontSize=12;fontStyle=0;aspect=fixed;shape=mxgraph.aws4.resourceIcon;resIcon=mxgraph.aws4.glue;container=0;" parent="1" vertex="1">
          <mxGeometry x="840" y="680" width="40" height="40" as="geometry" />
        </mxCell>
        <mxCell id="aIiy6uRkic5YZvylrRZq-37" value="Production (prd)" style="group;fillColor=#f8cecc;strokeColor=#b85450;container=0;" parent="1" vertex="1" connectable="0">
          <mxGeometry x="640" y="800" width="280" height="120" as="geometry" />
        </mxCell>
        <mxCell id="aIiy6uRkic5YZvylrRZq-54" value="CFT" style="sketch=0;outlineConnect=0;fontColor=#232F3E;gradientColor=none;fillColor=#B0084D;strokeColor=none;dashed=0;verticalLabelPosition=bottom;verticalAlign=top;align=center;html=1;fontSize=12;fontStyle=0;pointerEvents=1;shape=mxgraph.aws4.template;container=0;" parent="1" vertex="1">
          <mxGeometry x="680" y="840" width="40" height="40" as="geometry" />
        </mxCell>
        <mxCell id="aIiy6uRkic5YZvylrRZq-56" value="IAM&lt;br&gt;Role" style="sketch=0;outlineConnect=0;fontColor=#232F3E;gradientColor=none;fillColor=#BF0816;strokeColor=none;dashed=0;verticalLabelPosition=bottom;verticalAlign=top;align=center;html=1;fontSize=12;fontStyle=0;pointerEvents=1;shape=mxgraph.aws4.role;container=0;" parent="1" vertex="1">
          <mxGeometry x="760" y="840" width="40" height="40" as="geometry" />
        </mxCell>
        <mxCell id="aIiy6uRkic5YZvylrRZq-60" value="Glue&lt;br&gt;Job" style="sketch=0;points=[[0,0,0],[0.25,0,0],[0.5,0,0],[0.75,0,0],[1,0,0],[0,1,0],[0.25,1,0],[0.5,1,0],[0.75,1,0],[1,1,0],[0,0.25,0],[0,0.5,0],[0,0.75,0],[1,0.25,0],[1,0.5,0],[1,0.75,0]];outlineConnect=0;fontColor=#232F3E;gradientColor=#945DF2;gradientDirection=north;fillColor=#5A30B5;strokeColor=#ffffff;dashed=0;verticalLabelPosition=bottom;verticalAlign=top;align=center;html=1;fontSize=12;fontStyle=0;aspect=fixed;shape=mxgraph.aws4.resourceIcon;resIcon=mxgraph.aws4.glue;container=0;" parent="1" vertex="1">
          <mxGeometry x="840" y="840" width="40" height="40" as="geometry" />
        </mxCell>
        <mxCell id="aIiy6uRkic5YZvylrRZq-67" value="more &lt;br&gt;deployment units" style="text;html=1;strokeColor=none;fillColor=none;align=center;verticalAlign=middle;whiteSpace=wrap;rounded=0;container=0;" parent="1" vertex="1">
          <mxGeometry x="980" y="680" width="120" height="40" as="geometry" />
        </mxCell>
        <mxCell id="aIiy6uRkic5YZvylrRZq-68" value="&lt;font style=&quot;font-size: 32px;&quot;&gt;.&amp;nbsp; &amp;nbsp;.&amp;nbsp; &amp;nbsp;.&lt;/font&gt;" style="text;html=1;strokeColor=none;fillColor=none;align=center;verticalAlign=middle;whiteSpace=wrap;rounded=0;container=0;" parent="1" vertex="1">
          <mxGeometry x="980" y="640" width="120" height="40" as="geometry" />
        </mxCell>
        <mxCell id="aIiy6uRkic5YZvylrRZq-71" value="more projects" style="text;html=1;strokeColor=none;fillColor=none;align=center;verticalAlign=middle;whiteSpace=wrap;rounded=0;container=0;" parent="1" vertex="1">
          <mxGeometry x="1140" y="680" width="120" height="40" as="geometry" />
        </mxCell>
        <mxCell id="aIiy6uRkic5YZvylrRZq-72" value="&lt;font style=&quot;font-size: 32px;&quot;&gt;.&amp;nbsp; &amp;nbsp;.&amp;nbsp; &amp;nbsp;.&lt;/font&gt;" style="text;html=1;strokeColor=none;fillColor=none;align=center;verticalAlign=middle;whiteSpace=wrap;rounded=0;container=0;" parent="1" vertex="1">
          <mxGeometry x="1140" y="640" width="120" height="40" as="geometry" />
        </mxCell>
        <mxCell id="LQXonlIENh9ttu6iu8oH-2" value="CodeBuild&lt;br&gt;Pipeline" style="sketch=0;points=[[0,0,0],[0.25,0,0],[0.5,0,0],[0.75,0,0],[1,0,0],[0,1,0],[0.25,1,0],[0.5,1,0],[0.75,1,0],[1,1,0],[0,0.25,0],[0,0.5,0],[0,0.75,0],[1,0.25,0],[1,0.5,0],[1,0.75,0]];outlineConnect=0;fontColor=#232F3E;gradientColor=#4D72F3;gradientDirection=north;fillColor=#3334B9;strokeColor=#ffffff;dashed=0;verticalLabelPosition=bottom;verticalAlign=top;align=center;html=1;fontSize=12;fontStyle=0;aspect=fixed;shape=mxgraph.aws4.resourceIcon;resIcon=mxgraph.aws4.codepipeline;container=0;" parent="1" vertex="1">
          <mxGeometry x="320" y="1240" width="80" height="80" as="geometry" />
        </mxCell>
        <mxCell id="LQXonlIENh9ttu6iu8oH-3" value="CodeBuild&lt;br&gt;Project" style="sketch=0;points=[[0,0,0],[0.25,0,0],[0.5,0,0],[0.75,0,0],[1,0,0],[0,1,0],[0.25,1,0],[0.5,1,0],[0.75,1,0],[1,1,0],[0,0.25,0],[0,0.5,0],[0,0.75,0],[1,0.25,0],[1,0.5,0],[1,0.75,0]];outlineConnect=0;fontColor=#232F3E;gradientColor=#4D72F3;gradientDirection=north;fillColor=#3334B9;strokeColor=#ffffff;dashed=0;verticalLabelPosition=bottom;verticalAlign=top;align=center;html=1;fontSize=12;fontStyle=0;aspect=fixed;shape=mxgraph.aws4.resourceIcon;resIcon=mxgraph.aws4.codebuild;container=0;" parent="1" vertex="1">
          <mxGeometry x="200" y="1240" width="80" height="80" as="geometry" />
        </mxCell>
        <mxCell id="LQXonlIENh9ttu6iu8oH-5" value="Git Branch" style="image;aspect=fixed;html=1;points=[];align=center;fontSize=12;image=img/lib/azure2/general/Branch.svg;" parent="1" vertex="1">
          <mxGeometry x="80" y="1240" width="80" height="80" as="geometry" />
        </mxCell>
        <mxCell id="LQXonlIENh9ttu6iu8oH-7" value="Versioned&lt;br&gt;Artifacts" style="sketch=0;points=[[0,0,0],[0.25,0,0],[0.5,0,0],[0.75,0,0],[1,0,0],[0,1,0],[0.25,1,0],[0.5,1,0],[0.75,1,0],[1,1,0],[0,0.25,0],[0,0.5,0],[0,0.75,0],[1,0.25,0],[1,0.5,0],[1,0.75,0]];outlineConnect=0;fontColor=#232F3E;gradientColor=#60A337;gradientDirection=north;fillColor=#277116;strokeColor=#ffffff;dashed=0;verticalLabelPosition=bottom;verticalAlign=top;align=center;html=1;fontSize=12;fontStyle=0;aspect=fixed;shape=mxgraph.aws4.resourceIcon;resIcon=mxgraph.aws4.s3;" parent="1" vertex="1">
          <mxGeometry x="440" y="1240" width="80" height="80" as="geometry" />
        </mxCell>
        <mxCell id="0tOqgi2ROZsC2dhX-VJ2-1" value="&lt;h1&gt;AWS Account Architecture&lt;/h1&gt;&lt;p&gt;The minimal unit in this solution is the &quot;Deployment Unit.&quot; (DU) Your application may require many micro-services to work together. Some of them should be deployed together, while others should be decoupled. We split your application into multiple deployment units that can be deployed individually and also have the capability to be deployed all together.&lt;/p&gt;&lt;p&gt;The concepts hierarchy looks like:&lt;/p&gt;&lt;p&gt;&lt;/p&gt;&lt;ul&gt;&lt;li&gt;AWS Account&lt;/li&gt;&lt;ul&gt;&lt;li&gt;Project1&lt;/li&gt;&lt;li&gt;Project2&lt;/li&gt;&lt;li&gt;Project3&lt;/li&gt;&lt;ul&gt;&lt;li&gt;DU1&lt;/li&gt;&lt;li&gt;DU2&lt;/li&gt;&lt;li&gt;DU3&lt;/li&gt;&lt;ul&gt;&lt;li&gt;sandbox environment&lt;/li&gt;&lt;li&gt;test environment&lt;/li&gt;&lt;li&gt;production environment&lt;/li&gt;&lt;/ul&gt;&lt;li&gt;...&lt;/li&gt;&lt;/ul&gt;&lt;li&gt;...&lt;/li&gt;&lt;/ul&gt;&lt;/ul&gt;&lt;p&gt;&lt;/p&gt;" style="text;html=1;strokeColor=default;fillColor=none;spacing=5;spacingTop=-20;whiteSpace=wrap;overflow=hidden;rounded=0;" parent="1" vertex="1">
          <mxGeometry x="1320" y="360" width="320" height="680" as="geometry" />
        </mxCell>
        <mxCell id="0tOqgi2ROZsC2dhX-VJ2-2" value="&lt;h1&gt;Single-Account, Single-Region, Multi-Environment Setup&lt;/h1&gt;&lt;p&gt;In this setup, we only use one AWS Account, and deploy the application in only one region, but isolate them using namespace, IAM permission, VPC network, etc ... This is the minimal viable multi-environment setup for enterprise projects.&lt;/p&gt;&lt;p&gt;Once your developer team are getting mature, you could consider using multi-account, single-region, multi-environment setup.&lt;/p&gt;&lt;p&gt;Eventually, when your business expand to global, you could consider using multi-account, multi-region (global), multi-environment setup.&lt;/p&gt;&lt;p&gt;In this solution, we will focus on the single-account, single-region, multi-environment setup.&lt;/p&gt;" style="text;html=1;strokeColor=default;fillColor=none;spacing=5;spacingTop=-20;whiteSpace=wrap;overflow=hidden;rounded=0;" parent="1" vertex="1">
          <mxGeometry x="40" y="40" width="680" height="200" as="geometry" />
        </mxCell>
        <mxCell id="XMl-6tyrc1nSBgUTMUmJ-21" value="Sandbox (sbx)" style="rounded=0;whiteSpace=wrap;html=1;fillColor=#dae8fc;strokeColor=#6c8ebf;verticalAlign=top;container=0;" parent="1" vertex="1">
          <mxGeometry x="960" y="1720" width="200" height="120" as="geometry" />
        </mxCell>
        <mxCell id="XMl-6tyrc1nSBgUTMUmJ-23" value="CFT" style="sketch=0;outlineConnect=0;fontColor=#232F3E;gradientColor=none;fillColor=#B0084D;strokeColor=none;dashed=0;verticalLabelPosition=bottom;verticalAlign=top;align=center;html=1;fontSize=12;fontStyle=0;pointerEvents=1;shape=mxgraph.aws4.template;container=0;" parent="1" vertex="1">
          <mxGeometry x="1000" y="1760" width="40" height="40" as="geometry" />
        </mxCell>
        <mxCell id="XMl-6tyrc1nSBgUTMUmJ-27" value="Test (tst)" style="rounded=0;whiteSpace=wrap;html=1;fillColor=#d5e8d4;strokeColor=#82b366;verticalAlign=top;container=0;" parent="1" vertex="1">
          <mxGeometry x="960" y="1880" width="200" height="120" as="geometry" />
        </mxCell>
        <mxCell id="XMl-6tyrc1nSBgUTMUmJ-28" value="CFT" style="sketch=0;outlineConnect=0;fontColor=#232F3E;gradientColor=none;fillColor=#B0084D;strokeColor=none;dashed=0;verticalLabelPosition=bottom;verticalAlign=top;align=center;html=1;fontSize=12;fontStyle=0;pointerEvents=1;shape=mxgraph.aws4.template;container=0;" parent="1" vertex="1">
          <mxGeometry x="1000" y="1920" width="40" height="40" as="geometry" />
        </mxCell>
        <mxCell id="R951yEPM_ONJpUAEbM-j-3" value="Production (prd)" style="rounded=0;whiteSpace=wrap;html=1;fillColor=#f8cecc;strokeColor=#b85450;verticalAlign=top;container=0;" parent="1" vertex="1">
          <mxGeometry x="960" y="2040" width="200" height="120" as="geometry" />
        </mxCell>
        <mxCell id="R951yEPM_ONJpUAEbM-j-4" value="CFT" style="sketch=0;outlineConnect=0;fontColor=#232F3E;gradientColor=none;fillColor=#B0084D;strokeColor=none;dashed=0;verticalLabelPosition=bottom;verticalAlign=top;align=center;html=1;fontSize=12;fontStyle=0;pointerEvents=1;shape=mxgraph.aws4.template;container=0;" parent="1" vertex="1">
          <mxGeometry x="1000" y="2080" width="40" height="40" as="geometry" />
        </mxCell>
        <mxCell id="R951yEPM_ONJpUAEbM-j-5" value="CodeBuild&lt;br&gt;Job Run" style="outlineConnect=0;dashed=0;verticalLabelPosition=bottom;verticalAlign=top;align=center;html=1;shape=mxgraph.aws3.ec2_compute_container_3;fillColor=#F58534;gradientColor=none;" parent="1" vertex="1">
          <mxGeometry x="160" y="1760" width="80" height="40" as="geometry" />
        </mxCell>
        <mxCell id="DvlUVDjVkO4OrVPayChV-3" style="edgeStyle=orthogonalEdgeStyle;rounded=0;orthogonalLoop=1;jettySize=auto;html=1;entryX=0;entryY=0.25;entryDx=0;entryDy=0;entryPerimeter=0;" parent="1" source="DvlUVDjVkO4OrVPayChV-1" target="R951yEPM_ONJpUAEbM-j-5" edge="1">
          <mxGeometry relative="1" as="geometry">
            <Array as="points">
              <mxPoint x="120" y="1600" />
              <mxPoint x="120" y="1770" />
            </Array>
          </mxGeometry>
        </mxCell>
        <mxCell id="DvlUVDjVkO4OrVPayChV-1" value="Check out&#xa;from Git Branch" style="shape=image;verticalLabelPosition=bottom;labelBackgroundColor=default;verticalAlign=top;aspect=fixed;imageAspect=0;image=data:image/svg+xml,PHN2ZyB4bWxucz0iaHR0cDovL3d3dy53My5vcmcvMjAwMC9zdmciIGhlaWdodD0iNDhweCIgd2lkdGg9IjQ4cHgiIHZpZXdCb3g9IjAgMCA0OCA0OCI+PHBhdGggZD0iTTQyLjIsMjIuMUwyNS45LDUuOEMyNS40LDUuMywyNC43LDUsMjQsNWMwLDAsMCwwLDAsMGMtMC43LDAtMS40LDAuMy0xLjksMC44bC0zLjUsMy41bDQuMSw0LjFjMC40LTAuMiwwLjgtMC4zLDEuMy0wLjNjMS43LDAsMywxLjMsMywzYzAsMC41LTAuMSwwLjktMC4zLDEuM2w0LDRjMC40LTAuMiwwLjgtMC4zLDEuMy0wLjNjMS43LDAsMywxLjMsMywzcy0xLjMsMy0zLDNjLTEuNywwLTMtMS4zLTMtM2MwLTAuNSwwLjEtMC45LDAuMy0xLjNsLTQtNGMtMC4xLDAtMC4yLDAuMS0wLjMsMC4xdjEwLjRjMS4yLDAuNCwyLDEuNSwyLDIuOGMwLDEuNy0xLjMsMy0zLDNzLTMtMS4zLTMtM2MwLTEuMywwLjgtMi40LDItMi44VjE4LjhjLTEuMi0wLjQtMi0xLjUtMi0yLjhjMC0wLjUsMC4xLTAuOSwwLjMtMS4zbC00LjEtNC4xTDUuOCwyMi4xQzUuMywyMi42LDUsMjMuMyw1LDI0YzAsMC43LDAuMywxLjQsMC44LDEuOWwxNi4zLDE2LjNjMCwwLDAsMCwwLDBjMC41LDAuNSwxLjIsMC44LDEuOSwwLjhzMS40LTAuMywxLjktMC44bDE2LjMtMTYuM2MwLjUtMC41LDAuOC0xLjIsMC44LTEuOUM0MywyMy4zLDQyLjcsMjIuNiw0Mi4yLDIyLjF6IiBmaWxsPSIjRjQ1MTFFIi8+PC9zdmc+;" parent="1" vertex="1">
          <mxGeometry x="160" y="1560" width="80" height="80" as="geometry" />
        </mxCell>
        <mxCell id="keaWbCxJdhdQuxR16dr5-5" style="edgeStyle=orthogonalEdgeStyle;rounded=0;orthogonalLoop=1;jettySize=auto;html=1;exitX=0;exitY=0.75;exitDx=0;exitDy=0;exitPerimeter=0;entryX=0.5;entryY=0;entryDx=0;entryDy=0;" parent="1" source="DvlUVDjVkO4OrVPayChV-5" target="keaWbCxJdhdQuxR16dr5-4" edge="1">
          <mxGeometry relative="1" as="geometry" />
        </mxCell>
        <mxCell id="DvlUVDjVkO4OrVPayChV-5" value="CodeBuild&lt;br&gt;Job Run" style="outlineConnect=0;dashed=0;verticalLabelPosition=bottom;verticalAlign=top;align=center;html=1;shape=mxgraph.aws3.ec2_compute_container_3;fillColor=#F58534;gradientColor=none;" parent="1" vertex="1">
          <mxGeometry x="160" y="1920" width="80" height="40" as="geometry" />
        </mxCell>
        <mxCell id="DvlUVDjVkO4OrVPayChV-12" style="edgeStyle=orthogonalEdgeStyle;rounded=0;orthogonalLoop=1;jettySize=auto;html=1;exitX=0;exitY=0.75;exitDx=0;exitDy=0;exitPerimeter=0;entryX=0;entryY=0.25;entryDx=0;entryDy=0;entryPerimeter=0;" parent="1" source="R951yEPM_ONJpUAEbM-j-5" target="DvlUVDjVkO4OrVPayChV-5" edge="1">
          <mxGeometry relative="1" as="geometry">
            <Array as="points">
              <mxPoint x="120" y="1790" />
              <mxPoint x="120" y="1930" />
            </Array>
          </mxGeometry>
        </mxCell>
        <mxCell id="DvlUVDjVkO4OrVPayChV-10" value="CodeBuild&lt;br&gt;Job Run" style="outlineConnect=0;dashed=0;verticalLabelPosition=bottom;verticalAlign=top;align=center;html=1;shape=mxgraph.aws3.ec2_compute_container_3;fillColor=#F58534;gradientColor=none;" parent="1" vertex="1">
          <mxGeometry x="160" y="2080" width="80" height="40" as="geometry" />
        </mxCell>
        <mxCell id="DvlUVDjVkO4OrVPayChV-16" value="Install" style="rounded=0;whiteSpace=wrap;html=1;" parent="1" vertex="1">
          <mxGeometry x="320" y="1760" width="80" height="40" as="geometry" />
        </mxCell>
        <mxCell id="DvlUVDjVkO4OrVPayChV-18" value="Unit Test" style="rounded=0;whiteSpace=wrap;html=1;" parent="1" vertex="1">
          <mxGeometry x="440" y="1760" width="80" height="40" as="geometry" />
        </mxCell>
        <mxCell id="DvlUVDjVkO4OrVPayChV-28" style="edgeStyle=orthogonalEdgeStyle;rounded=0;orthogonalLoop=1;jettySize=auto;html=1;exitX=1;exitY=0.5;exitDx=0;exitDy=0;entryX=0;entryY=0.5;entryDx=0;entryDy=0;" parent="1" source="DvlUVDjVkO4OrVPayChV-16" target="DvlUVDjVkO4OrVPayChV-18" edge="1">
          <mxGeometry relative="1" as="geometry" />
        </mxCell>
        <mxCell id="DvlUVDjVkO4OrVPayChV-19" value="Build" style="rounded=0;whiteSpace=wrap;html=1;" parent="1" vertex="1">
          <mxGeometry x="560" y="1760" width="80" height="40" as="geometry" />
        </mxCell>
        <mxCell id="DvlUVDjVkO4OrVPayChV-29" style="edgeStyle=orthogonalEdgeStyle;rounded=0;orthogonalLoop=1;jettySize=auto;html=1;exitX=1;exitY=0.5;exitDx=0;exitDy=0;entryX=0;entryY=0.5;entryDx=0;entryDy=0;" parent="1" source="DvlUVDjVkO4OrVPayChV-18" target="DvlUVDjVkO4OrVPayChV-19" edge="1">
          <mxGeometry relative="1" as="geometry" />
        </mxCell>
        <mxCell id="DvlUVDjVkO4OrVPayChV-20" value="Deploy" style="rounded=0;whiteSpace=wrap;html=1;" parent="1" vertex="1">
          <mxGeometry x="680" y="1760" width="80" height="40" as="geometry" />
        </mxCell>
        <mxCell id="DvlUVDjVkO4OrVPayChV-30" style="edgeStyle=orthogonalEdgeStyle;rounded=0;orthogonalLoop=1;jettySize=auto;html=1;exitX=1;exitY=0.5;exitDx=0;exitDy=0;entryX=0;entryY=0.5;entryDx=0;entryDy=0;" parent="1" source="DvlUVDjVkO4OrVPayChV-19" target="DvlUVDjVkO4OrVPayChV-20" edge="1">
          <mxGeometry relative="1" as="geometry" />
        </mxCell>
        <mxCell id="DvlUVDjVkO4OrVPayChV-22" value="Int Test" style="rounded=0;whiteSpace=wrap;html=1;" parent="1" vertex="1">
          <mxGeometry x="800" y="1760" width="80" height="40" as="geometry" />
        </mxCell>
        <mxCell id="DvlUVDjVkO4OrVPayChV-31" style="edgeStyle=orthogonalEdgeStyle;rounded=0;orthogonalLoop=1;jettySize=auto;html=1;exitX=1;exitY=0.5;exitDx=0;exitDy=0;entryX=0;entryY=0.5;entryDx=0;entryDy=0;" parent="1" source="DvlUVDjVkO4OrVPayChV-20" target="DvlUVDjVkO4OrVPayChV-22" edge="1">
          <mxGeometry relative="1" as="geometry" />
        </mxCell>
        <mxCell id="DvlUVDjVkO4OrVPayChV-50" style="edgeStyle=orthogonalEdgeStyle;rounded=0;orthogonalLoop=1;jettySize=auto;html=1;exitX=1;exitY=0.5;exitDx=0;exitDy=0;entryX=0;entryY=0.5;entryDx=0;entryDy=0;" parent="1" source="DvlUVDjVkO4OrVPayChV-26" target="XMl-6tyrc1nSBgUTMUmJ-21" edge="1">
          <mxGeometry relative="1" as="geometry" />
        </mxCell>
        <mxCell id="DvlUVDjVkO4OrVPayChV-26" value="" style="rounded=0;whiteSpace=wrap;html=1;fillColor=none;" parent="1" vertex="1">
          <mxGeometry x="280" y="1720" width="640" height="120" as="geometry" />
        </mxCell>
        <mxCell id="DvlUVDjVkO4OrVPayChV-27" style="edgeStyle=orthogonalEdgeStyle;rounded=0;orthogonalLoop=1;jettySize=auto;html=1;exitX=1;exitY=0.5;exitDx=0;exitDy=0;exitPerimeter=0;entryX=0;entryY=0.5;entryDx=0;entryDy=0;" parent="1" source="R951yEPM_ONJpUAEbM-j-5" target="DvlUVDjVkO4OrVPayChV-26" edge="1">
          <mxGeometry relative="1" as="geometry" />
        </mxCell>
        <mxCell id="DvlUVDjVkO4OrVPayChV-33" value="Install" style="rounded=0;whiteSpace=wrap;html=1;" parent="1" vertex="1">
          <mxGeometry x="320" y="1920" width="80" height="40" as="geometry" />
        </mxCell>
        <mxCell id="DvlUVDjVkO4OrVPayChV-35" value="Unit Test" style="rounded=0;whiteSpace=wrap;html=1;" parent="1" vertex="1">
          <mxGeometry x="440" y="1920" width="80" height="40" as="geometry" />
        </mxCell>
        <mxCell id="DvlUVDjVkO4OrVPayChV-32" style="edgeStyle=orthogonalEdgeStyle;rounded=0;orthogonalLoop=1;jettySize=auto;html=1;exitX=1;exitY=0.5;exitDx=0;exitDy=0;entryX=0;entryY=0.5;entryDx=0;entryDy=0;" parent="1" source="DvlUVDjVkO4OrVPayChV-33" target="DvlUVDjVkO4OrVPayChV-35" edge="1">
          <mxGeometry relative="1" as="geometry" />
        </mxCell>
        <mxCell id="DvlUVDjVkO4OrVPayChV-37" value="Build" style="rounded=0;whiteSpace=wrap;html=1;" parent="1" vertex="1">
          <mxGeometry x="560" y="1920" width="80" height="40" as="geometry" />
        </mxCell>
        <mxCell id="DvlUVDjVkO4OrVPayChV-34" style="edgeStyle=orthogonalEdgeStyle;rounded=0;orthogonalLoop=1;jettySize=auto;html=1;exitX=1;exitY=0.5;exitDx=0;exitDy=0;entryX=0;entryY=0.5;entryDx=0;entryDy=0;" parent="1" source="DvlUVDjVkO4OrVPayChV-35" target="DvlUVDjVkO4OrVPayChV-37" edge="1">
          <mxGeometry relative="1" as="geometry" />
        </mxCell>
        <mxCell id="DvlUVDjVkO4OrVPayChV-39" value="Deploy" style="rounded=0;whiteSpace=wrap;html=1;" parent="1" vertex="1">
          <mxGeometry x="680" y="1920" width="80" height="40" as="geometry" />
        </mxCell>
        <mxCell id="DvlUVDjVkO4OrVPayChV-36" style="edgeStyle=orthogonalEdgeStyle;rounded=0;orthogonalLoop=1;jettySize=auto;html=1;exitX=1;exitY=0.5;exitDx=0;exitDy=0;entryX=0;entryY=0.5;entryDx=0;entryDy=0;" parent="1" source="DvlUVDjVkO4OrVPayChV-37" target="DvlUVDjVkO4OrVPayChV-39" edge="1">
          <mxGeometry relative="1" as="geometry" />
        </mxCell>
        <mxCell id="DvlUVDjVkO4OrVPayChV-40" value="Int Test" style="rounded=0;whiteSpace=wrap;html=1;" parent="1" vertex="1">
          <mxGeometry x="800" y="1920" width="80" height="40" as="geometry" />
        </mxCell>
        <mxCell id="DvlUVDjVkO4OrVPayChV-38" style="edgeStyle=orthogonalEdgeStyle;rounded=0;orthogonalLoop=1;jettySize=auto;html=1;exitX=1;exitY=0.5;exitDx=0;exitDy=0;entryX=0;entryY=0.5;entryDx=0;entryDy=0;" parent="1" source="DvlUVDjVkO4OrVPayChV-39" target="DvlUVDjVkO4OrVPayChV-40" edge="1">
          <mxGeometry relative="1" as="geometry" />
        </mxCell>
        <mxCell id="DvlUVDjVkO4OrVPayChV-42" value="Install" style="rounded=0;whiteSpace=wrap;html=1;" parent="1" vertex="1">
          <mxGeometry x="320" y="2080" width="80" height="40" as="geometry" />
        </mxCell>
        <mxCell id="DvlUVDjVkO4OrVPayChV-44" value="Unit Test" style="rounded=0;whiteSpace=wrap;html=1;" parent="1" vertex="1">
          <mxGeometry x="440" y="2080" width="80" height="40" as="geometry" />
        </mxCell>
        <mxCell id="DvlUVDjVkO4OrVPayChV-41" style="edgeStyle=orthogonalEdgeStyle;rounded=0;orthogonalLoop=1;jettySize=auto;html=1;exitX=1;exitY=0.5;exitDx=0;exitDy=0;entryX=0;entryY=0.5;entryDx=0;entryDy=0;" parent="1" source="DvlUVDjVkO4OrVPayChV-42" target="DvlUVDjVkO4OrVPayChV-44" edge="1">
          <mxGeometry relative="1" as="geometry" />
        </mxCell>
        <mxCell id="DvlUVDjVkO4OrVPayChV-46" value="Build" style="rounded=0;whiteSpace=wrap;html=1;" parent="1" vertex="1">
          <mxGeometry x="560" y="2080" width="80" height="40" as="geometry" />
        </mxCell>
        <mxCell id="DvlUVDjVkO4OrVPayChV-43" style="edgeStyle=orthogonalEdgeStyle;rounded=0;orthogonalLoop=1;jettySize=auto;html=1;exitX=1;exitY=0.5;exitDx=0;exitDy=0;entryX=0;entryY=0.5;entryDx=0;entryDy=0;" parent="1" source="DvlUVDjVkO4OrVPayChV-44" target="DvlUVDjVkO4OrVPayChV-46" edge="1">
          <mxGeometry relative="1" as="geometry" />
        </mxCell>
        <mxCell id="DvlUVDjVkO4OrVPayChV-48" value="Deploy" style="rounded=0;whiteSpace=wrap;html=1;" parent="1" vertex="1">
          <mxGeometry x="680" y="2080" width="80" height="40" as="geometry" />
        </mxCell>
        <mxCell id="DvlUVDjVkO4OrVPayChV-45" style="edgeStyle=orthogonalEdgeStyle;rounded=0;orthogonalLoop=1;jettySize=auto;html=1;exitX=1;exitY=0.5;exitDx=0;exitDy=0;entryX=0;entryY=0.5;entryDx=0;entryDy=0;" parent="1" source="DvlUVDjVkO4OrVPayChV-46" target="DvlUVDjVkO4OrVPayChV-48" edge="1">
          <mxGeometry relative="1" as="geometry" />
        </mxCell>
        <mxCell id="DvlUVDjVkO4OrVPayChV-49" value="Int Test" style="rounded=0;whiteSpace=wrap;html=1;dashed=1;" parent="1" vertex="1">
          <mxGeometry x="800" y="2080" width="80" height="40" as="geometry" />
        </mxCell>
        <mxCell id="DvlUVDjVkO4OrVPayChV-47" style="edgeStyle=orthogonalEdgeStyle;rounded=0;orthogonalLoop=1;jettySize=auto;html=1;exitX=1;exitY=0.5;exitDx=0;exitDy=0;entryX=0;entryY=0.5;entryDx=0;entryDy=0;" parent="1" source="DvlUVDjVkO4OrVPayChV-48" target="DvlUVDjVkO4OrVPayChV-49" edge="1">
          <mxGeometry relative="1" as="geometry" />
        </mxCell>
        <mxCell id="DvlUVDjVkO4OrVPayChV-55" style="edgeStyle=orthogonalEdgeStyle;rounded=0;orthogonalLoop=1;jettySize=auto;html=1;exitX=1;exitY=0.5;exitDx=0;exitDy=0;entryX=0;entryY=0.5;entryDx=0;entryDy=0;" parent="1" source="DvlUVDjVkO4OrVPayChV-51" target="XMl-6tyrc1nSBgUTMUmJ-27" edge="1">
          <mxGeometry relative="1" as="geometry" />
        </mxCell>
        <mxCell id="DvlUVDjVkO4OrVPayChV-51" value="" style="rounded=0;whiteSpace=wrap;html=1;fillColor=none;" parent="1" vertex="1">
          <mxGeometry x="280" y="1880" width="640" height="120" as="geometry" />
        </mxCell>
        <mxCell id="DvlUVDjVkO4OrVPayChV-53" style="edgeStyle=orthogonalEdgeStyle;rounded=0;orthogonalLoop=1;jettySize=auto;html=1;exitX=1;exitY=0.5;exitDx=0;exitDy=0;exitPerimeter=0;entryX=0;entryY=0.5;entryDx=0;entryDy=0;" parent="1" source="DvlUVDjVkO4OrVPayChV-5" target="DvlUVDjVkO4OrVPayChV-51" edge="1">
          <mxGeometry relative="1" as="geometry" />
        </mxCell>
        <mxCell id="DvlUVDjVkO4OrVPayChV-56" style="edgeStyle=orthogonalEdgeStyle;rounded=0;orthogonalLoop=1;jettySize=auto;html=1;exitX=1;exitY=0.5;exitDx=0;exitDy=0;entryX=0;entryY=0.5;entryDx=0;entryDy=0;" parent="1" source="DvlUVDjVkO4OrVPayChV-52" target="R951yEPM_ONJpUAEbM-j-3" edge="1">
          <mxGeometry relative="1" as="geometry" />
        </mxCell>
        <mxCell id="DvlUVDjVkO4OrVPayChV-52" value="" style="rounded=0;whiteSpace=wrap;html=1;fillColor=none;" parent="1" vertex="1">
          <mxGeometry x="280" y="2040" width="640" height="120" as="geometry" />
        </mxCell>
        <mxCell id="DvlUVDjVkO4OrVPayChV-57" value="Resources" style="sketch=0;points=[[0,0,0],[0.25,0,0],[0.5,0,0],[0.75,0,0],[1,0,0],[0,1,0],[0.25,1,0],[0.5,1,0],[0.75,1,0],[1,1,0],[0,0.25,0],[0,0.5,0],[0,0.75,0],[1,0.25,0],[1,0.5,0],[1,0.75,0]];gradientDirection=north;outlineConnect=0;fontColor=#232F3E;gradientColor=#505863;fillColor=#1E262E;strokeColor=#ffffff;dashed=0;verticalLabelPosition=bottom;verticalAlign=top;align=center;html=1;fontSize=12;fontStyle=0;aspect=fixed;shape=mxgraph.aws4.resourceIcon;resIcon=mxgraph.aws4.general;" parent="1" vertex="1">
          <mxGeometry x="1080" y="1760" width="40" height="40" as="geometry" />
        </mxCell>
        <mxCell id="DvlUVDjVkO4OrVPayChV-59" value="Resources" style="sketch=0;points=[[0,0,0],[0.25,0,0],[0.5,0,0],[0.75,0,0],[1,0,0],[0,1,0],[0.25,1,0],[0.5,1,0],[0.75,1,0],[1,1,0],[0,0.25,0],[0,0.5,0],[0,0.75,0],[1,0.25,0],[1,0.5,0],[1,0.75,0]];gradientDirection=north;outlineConnect=0;fontColor=#232F3E;gradientColor=#505863;fillColor=#1E262E;strokeColor=#ffffff;dashed=0;verticalLabelPosition=bottom;verticalAlign=top;align=center;html=1;fontSize=12;fontStyle=0;aspect=fixed;shape=mxgraph.aws4.resourceIcon;resIcon=mxgraph.aws4.general;" parent="1" vertex="1">
          <mxGeometry x="1080" y="1920" width="40" height="40" as="geometry" />
        </mxCell>
        <mxCell id="DvlUVDjVkO4OrVPayChV-60" value="Resources" style="sketch=0;points=[[0,0,0],[0.25,0,0],[0.5,0,0],[0.75,0,0],[1,0,0],[0,1,0],[0.25,1,0],[0.5,1,0],[0.75,1,0],[1,1,0],[0,0.25,0],[0,0.5,0],[0,0.75,0],[1,0.25,0],[1,0.5,0],[1,0.75,0]];gradientDirection=north;outlineConnect=0;fontColor=#232F3E;gradientColor=#505863;fillColor=#1E262E;strokeColor=#ffffff;dashed=0;verticalLabelPosition=bottom;verticalAlign=top;align=center;html=1;fontSize=12;fontStyle=0;aspect=fixed;shape=mxgraph.aws4.resourceIcon;resIcon=mxgraph.aws4.general;" parent="1" vertex="1">
          <mxGeometry x="1080" y="2080" width="40" height="40" as="geometry" />
        </mxCell>
        <mxCell id="DvlUVDjVkO4OrVPayChV-63" value="Artifacts" style="sketch=0;points=[[0,0,0],[0.25,0,0],[0.5,0,0],[0.75,0,0],[1,0,0],[0,1,0],[0.25,1,0],[0.5,1,0],[0.75,1,0],[1,1,0],[0,0.25,0],[0,0.5,0],[0,0.75,0],[1,0.25,0],[1,0.5,0],[1,0.75,0]];outlineConnect=0;fontColor=#232F3E;gradientColor=#60A337;gradientDirection=north;fillColor=#277116;strokeColor=#ffffff;dashed=0;verticalLabelPosition=bottom;verticalAlign=top;align=center;html=1;fontSize=12;fontStyle=0;aspect=fixed;shape=mxgraph.aws4.resourceIcon;resIcon=mxgraph.aws4.s3;" parent="1" vertex="1">
          <mxGeometry x="560" y="1560" width="80" height="80" as="geometry" />
        </mxCell>
        <mxCell id="wtchO5frlSlZCEj5MVCA-3" value="&lt;b&gt;CodePipeline Orchestration Logics&lt;/b&gt;" style="rounded=0;whiteSpace=wrap;html=1;fillColor=none;strokeColor=#4d72f3;verticalAlign=top;" parent="1" vertex="1">
          <mxGeometry x="40" y="1520" width="1160" height="680" as="geometry" />
        </mxCell>
        <mxCell id="DvlUVDjVkO4OrVPayChV-2" value="" style="sketch=0;points=[[0,0,0],[0.25,0,0],[0.5,0,0],[0.75,0,0],[1,0,0],[0,1,0],[0.25,1,0],[0.5,1,0],[0.75,1,0],[1,1,0],[0,0.25,0],[0,0.5,0],[0,0.75,0],[1,0.25,0],[1,0.5,0],[1,0.75,0]];outlineConnect=0;fontColor=#232F3E;gradientColor=#4D72F3;gradientDirection=north;fillColor=#3334B9;strokeColor=#ffffff;dashed=0;verticalLabelPosition=bottom;verticalAlign=top;align=center;html=1;fontSize=12;fontStyle=0;aspect=fixed;shape=mxgraph.aws4.resourceIcon;resIcon=mxgraph.aws4.codepipeline;container=0;" parent="1" vertex="1">
          <mxGeometry x="40" y="1520" width="40" height="40" as="geometry" />
        </mxCell>
        <mxCell id="wtchO5frlSlZCEj5MVCA-1" value="&amp;nbsp;CodePipeline" style="text;html=1;strokeColor=none;fillColor=none;align=left;verticalAlign=middle;whiteSpace=wrap;rounded=0;fontColor=#4D72F3;container=0;" parent="1" vertex="1">
          <mxGeometry x="80" y="1520" width="80" height="40" as="geometry" />
        </mxCell>
        <mxCell id="keaWbCxJdhdQuxR16dr5-1" value="&lt;h1&gt;What&#39;s in a Deployment Unit&lt;/h1&gt;&lt;p&gt;A deployment unit includes the following components:&lt;/p&gt;&lt;p&gt;&lt;/p&gt;&lt;ul&gt;&lt;li&gt;a branch and a subfolder in your Git repository.&lt;/li&gt;&lt;li&gt;a CodeBuild project to run your CI job.&lt;/li&gt;&lt;li&gt;a CodePipeline to orchestrate the deployment.&lt;/li&gt;&lt;li&gt;an versioned artifacts store (usually S3, CodeArtifact repository, Parameter store, Secret manager, Lambda layer, ECR repository, etc ...)&lt;/li&gt;&lt;/ul&gt;&lt;p&gt;&lt;/p&gt;" style="text;html=1;strokeColor=default;fillColor=none;spacing=5;spacingTop=-20;whiteSpace=wrap;overflow=hidden;rounded=0;" parent="1" vertex="1">
          <mxGeometry x="600" y="1160" width="360" height="240" as="geometry" />
        </mxCell>
        <mxCell id="keaWbCxJdhdQuxR16dr5-2" value="&lt;h1&gt;CodePipeline Orchestration Logics&lt;/h1&gt;&lt;p&gt;The baseline orchestration logics is described as follow, you can customize this for your needs.&lt;/p&gt;&lt;p&gt;&lt;/p&gt;&lt;ul&gt;&lt;li&gt;CodePipeline monitor changes on the &quot;${deployment_unit_name}/release&quot; branch.&lt;/li&gt;&lt;li&gt;Detect a change on the branch, start a new pipeline execution.&lt;/li&gt;&lt;li&gt;Check out source code from CodeCommit repository and package the artifacts for subsequence stage.&lt;/li&gt;&lt;li&gt;Start a CodeBuild job run for sandbox environment.&lt;/li&gt;&lt;li style=&quot;border-color: var(--border-color);&quot;&gt;Start a CodeBuild job run for test environment.&lt;/li&gt;&lt;li style=&quot;border-color: var(--border-color);&quot;&gt;(Optional) Manually approve the release to production.&lt;/li&gt;&lt;li style=&quot;border-color: var(--border-color);&quot;&gt;Start a CodeBuild job run for production environment.&lt;/li&gt;&lt;li style=&quot;border-color: var(--border-color);&quot;&gt;If any of step failed, it won&#39;t continue to the next step.&lt;/li&gt;&lt;li style=&quot;border-color: var(--border-color);&quot;&gt;Now the deployment unit is running in production.&lt;/li&gt;&lt;/ul&gt;&lt;div&gt;&lt;h1 style=&quot;border-color: var(--border-color);&quot;&gt;CodeBuild Job Run Logics&lt;/h1&gt;&lt;p style=&quot;border-color: var(--border-color);&quot;&gt;The baseline CI job logics is described as follow, you can customize this for your needs.&amp;nbsp;&lt;/p&gt;&lt;p style=&quot;border-color: var(--border-color);&quot;&gt;&lt;/p&gt;&lt;ul style=&quot;border-color: var(--border-color);&quot;&gt;&lt;li style=&quot;border-color: var(--border-color);&quot;&gt;Install necessary dependencies for your application code runtime.&lt;/li&gt;&lt;li style=&quot;border-color: var(--border-color);&quot;&gt;Run unit test.&lt;/li&gt;&lt;li style=&quot;border-color: var(--border-color);&quot;&gt;&lt;span style=&quot;background-color: initial;&quot;&gt;Build and publish the required artifacts for your application.&lt;/span&gt;&lt;br&gt;&lt;/li&gt;&lt;li style=&quot;border-color: var(--border-color);&quot;&gt;Deploy the application via CDK and other tools.&lt;/li&gt;&lt;li style=&quot;border-color: var(--border-color);&quot;&gt;Run integration test using the deployed resources.&lt;/li&gt;&lt;/ul&gt;&lt;/div&gt;&lt;p&gt;&lt;/p&gt;" style="text;html=1;strokeColor=default;fillColor=none;spacing=5;spacingTop=-20;whiteSpace=wrap;overflow=hidden;rounded=0;" parent="1" vertex="1">
          <mxGeometry x="1240" y="1520" width="400" height="680" as="geometry" />
        </mxCell>
        <mxCell id="keaWbCxJdhdQuxR16dr5-6" style="edgeStyle=orthogonalEdgeStyle;rounded=0;orthogonalLoop=1;jettySize=auto;html=1;exitX=0.5;exitY=1;exitDx=0;exitDy=0;entryX=0;entryY=0.5;entryDx=0;entryDy=0;entryPerimeter=0;" parent="1" source="keaWbCxJdhdQuxR16dr5-4" target="DvlUVDjVkO4OrVPayChV-10" edge="1">
          <mxGeometry relative="1" as="geometry" />
        </mxCell>
        <mxCell id="keaWbCxJdhdQuxR16dr5-4" value="Manual Approval" style="rounded=0;whiteSpace=wrap;html=1;dashed=1;" parent="1" vertex="1">
          <mxGeometry x="80" y="2000" width="80" height="40" as="geometry" />
        </mxCell>
        <mxCell id="keaWbCxJdhdQuxR16dr5-22" style="edgeStyle=orthogonalEdgeStyle;rounded=0;orthogonalLoop=1;jettySize=auto;html=1;entryX=0;entryY=0.5;entryDx=0;entryDy=0;" parent="1" source="keaWbCxJdhdQuxR16dr5-7" target="keaWbCxJdhdQuxR16dr5-21" edge="1">
          <mxGeometry relative="1" as="geometry" />
        </mxCell>
        <mxCell id="keaWbCxJdhdQuxR16dr5-7" value="CodeBuild Trigger&lt;br&gt;Lambda Function" style="sketch=0;outlineConnect=0;fontColor=#232F3E;gradientColor=none;fillColor=#D45B07;strokeColor=none;dashed=0;verticalLabelPosition=bottom;verticalAlign=top;align=center;html=1;fontSize=12;fontStyle=0;aspect=fixed;pointerEvents=1;shape=mxgraph.aws4.lambda_function;" parent="1" vertex="1">
          <mxGeometry x="320" y="2600" width="80" height="80" as="geometry" />
        </mxCell>
        <mxCell id="keaWbCxJdhdQuxR16dr5-10" style="edgeStyle=orthogonalEdgeStyle;rounded=0;orthogonalLoop=1;jettySize=auto;html=1;exitX=1;exitY=0.5;exitDx=0;exitDy=0;exitPerimeter=0;entryX=0;entryY=0.5;entryDx=0;entryDy=0;entryPerimeter=0;" parent="1" source="keaWbCxJdhdQuxR16dr5-8" target="keaWbCxJdhdQuxR16dr5-9" edge="1">
          <mxGeometry relative="1" as="geometry" />
        </mxCell>
        <mxCell id="keaWbCxJdhdQuxR16dr5-8" value="CodeCommit&lt;br&gt;Change Event" style="sketch=0;points=[[0,0,0],[0.25,0,0],[0.5,0,0],[0.75,0,0],[1,0,0],[0,1,0],[0.25,1,0],[0.5,1,0],[0.75,1,0],[1,1,0],[0,0.25,0],[0,0.5,0],[0,0.75,0],[1,0.25,0],[1,0.5,0],[1,0.75,0]];outlineConnect=0;fontColor=#232F3E;gradientColor=#4D72F3;gradientDirection=north;fillColor=#3334B9;strokeColor=#ffffff;dashed=0;verticalLabelPosition=bottom;verticalAlign=top;align=center;html=1;fontSize=12;fontStyle=0;aspect=fixed;shape=mxgraph.aws4.resourceIcon;resIcon=mxgraph.aws4.codecommit;" parent="1" vertex="1">
          <mxGeometry x="80" y="2600" width="80" height="80" as="geometry" />
        </mxCell>
        <mxCell id="keaWbCxJdhdQuxR16dr5-11" style="edgeStyle=orthogonalEdgeStyle;rounded=0;orthogonalLoop=1;jettySize=auto;html=1;exitX=1;exitY=0.5;exitDx=0;exitDy=0;exitPerimeter=0;" parent="1" source="keaWbCxJdhdQuxR16dr5-9" target="keaWbCxJdhdQuxR16dr5-7" edge="1">
          <mxGeometry relative="1" as="geometry" />
        </mxCell>
        <mxCell id="keaWbCxJdhdQuxR16dr5-9" value="Event Bridge" style="sketch=0;points=[[0,0,0],[0.25,0,0],[0.5,0,0],[0.75,0,0],[1,0,0],[0,1,0],[0.25,1,0],[0.5,1,0],[0.75,1,0],[1,1,0],[0,0.25,0],[0,0.5,0],[0,0.75,0],[1,0.25,0],[1,0.5,0],[1,0.75,0]];outlineConnect=0;fontColor=#232F3E;gradientColor=#FF4F8B;gradientDirection=north;fillColor=#BC1356;strokeColor=#ffffff;dashed=0;verticalLabelPosition=bottom;verticalAlign=top;align=center;html=1;fontSize=12;fontStyle=0;aspect=fixed;shape=mxgraph.aws4.resourceIcon;resIcon=mxgraph.aws4.eventbridge;" parent="1" vertex="1">
          <mxGeometry x="200" y="2600" width="80" height="80" as="geometry" />
        </mxCell>
        <mxCell id="keaWbCxJdhdQuxR16dr5-20" value="" style="group" parent="1" vertex="1" connectable="0">
          <mxGeometry x="640" y="2560" width="200" height="160" as="geometry" />
        </mxCell>
        <mxCell id="keaWbCxJdhdQuxR16dr5-13" value="" style="rounded=0;whiteSpace=wrap;html=1;strokeColor=#CD2264;fillColor=none;container=0;" parent="keaWbCxJdhdQuxR16dr5-20" vertex="1">
          <mxGeometry width="200" height="160" as="geometry" />
        </mxCell>
        <mxCell id="keaWbCxJdhdQuxR16dr5-14" value="" style="sketch=0;points=[[0,0,0],[0.25,0,0],[0.5,0,0],[0.75,0,0],[1,0,0],[0,1,0],[0.25,1,0],[0.5,1,0],[0.75,1,0],[1,1,0],[0,0.25,0],[0,0.5,0],[0,0.75,0],[1,0.25,0],[1,0.5,0],[1,0.75,0]];points=[[0,0,0],[0.25,0,0],[0.5,0,0],[0.75,0,0],[1,0,0],[0,1,0],[0.25,1,0],[0.5,1,0],[0.75,1,0],[1,1,0],[0,0.25,0],[0,0.5,0],[0,0.75,0],[1,0.25,0],[1,0.5,0],[1,0.75,0]];outlineConnect=0;fontColor=#232F3E;gradientColor=#F34482;gradientDirection=north;fillColor=#BC1356;strokeColor=#ffffff;dashed=0;verticalLabelPosition=bottom;verticalAlign=top;align=center;html=1;fontSize=12;fontStyle=0;aspect=fixed;shape=mxgraph.aws4.resourceIcon;resIcon=mxgraph.aws4.cloudformation;container=0;" parent="keaWbCxJdhdQuxR16dr5-20" vertex="1">
          <mxGeometry width="40" height="40" as="geometry" />
        </mxCell>
        <mxCell id="keaWbCxJdhdQuxR16dr5-15" value="&amp;nbsp;Deployment Unit 2" style="text;html=1;strokeColor=none;fillColor=none;align=left;verticalAlign=middle;whiteSpace=wrap;rounded=0;fontColor=#cd2264;container=0;" parent="keaWbCxJdhdQuxR16dr5-20" vertex="1">
          <mxGeometry x="40" width="120" height="40" as="geometry" />
        </mxCell>
        <mxCell id="keaWbCxJdhdQuxR16dr5-17" value="CodeBuild&lt;br&gt;Project" style="sketch=0;points=[[0,0,0],[0.25,0,0],[0.5,0,0],[0.75,0,0],[1,0,0],[0,1,0],[0.25,1,0],[0.5,1,0],[0.75,1,0],[1,1,0],[0,0.25,0],[0,0.5,0],[0,0.75,0],[1,0.25,0],[1,0.5,0],[1,0.75,0]];outlineConnect=0;fontColor=#232F3E;gradientColor=#4D72F3;gradientDirection=north;fillColor=#3334B9;strokeColor=#ffffff;dashed=0;verticalLabelPosition=bottom;verticalAlign=top;align=center;html=1;fontSize=12;fontStyle=0;aspect=fixed;shape=mxgraph.aws4.resourceIcon;resIcon=mxgraph.aws4.codebuild;container=0;" parent="keaWbCxJdhdQuxR16dr5-20" vertex="1">
          <mxGeometry x="60" y="40" width="80" height="80" as="geometry" />
        </mxCell>
        <mxCell id="keaWbCxJdhdQuxR16dr5-34" style="rounded=0;orthogonalLoop=1;jettySize=auto;html=1;exitX=1;exitY=0.5;exitDx=0;exitDy=0;entryX=0;entryY=0.5;entryDx=0;entryDy=0;dashed=1;" parent="1" source="keaWbCxJdhdQuxR16dr5-21" target="keaWbCxJdhdQuxR16dr5-13" edge="1">
          <mxGeometry relative="1" as="geometry" />
        </mxCell>
        <mxCell id="keaWbCxJdhdQuxR16dr5-36" style="rounded=0;orthogonalLoop=1;jettySize=auto;html=1;exitX=1;exitY=0.5;exitDx=0;exitDy=0;entryX=0;entryY=0.5;entryDx=0;entryDy=0;dashed=1;" parent="1" source="keaWbCxJdhdQuxR16dr5-21" target="keaWbCxJdhdQuxR16dr5-24" edge="1">
          <mxGeometry relative="1" as="geometry" />
        </mxCell>
        <mxCell id="keaWbCxJdhdQuxR16dr5-37" style="rounded=0;orthogonalLoop=1;jettySize=auto;html=1;exitX=1;exitY=0.5;exitDx=0;exitDy=0;entryX=0;entryY=0.5;entryDx=0;entryDy=0;" parent="1" source="keaWbCxJdhdQuxR16dr5-21" target="keaWbCxJdhdQuxR16dr5-29" edge="1">
          <mxGeometry relative="1" as="geometry" />
        </mxCell>
        <mxCell id="keaWbCxJdhdQuxR16dr5-21" value="Trigger the right CodeBuild project&lt;br&gt;based on the &lt;br&gt;branch name" style="rounded=0;whiteSpace=wrap;html=1;" parent="1" vertex="1">
          <mxGeometry x="440" y="2600" width="120" height="80" as="geometry" />
        </mxCell>
        <mxCell id="keaWbCxJdhdQuxR16dr5-23" value="" style="group" parent="1" vertex="1" connectable="0">
          <mxGeometry x="640" y="2360" width="200" height="160" as="geometry" />
        </mxCell>
        <mxCell id="keaWbCxJdhdQuxR16dr5-24" value="" style="rounded=0;whiteSpace=wrap;html=1;strokeColor=#CD2264;fillColor=none;container=0;" parent="keaWbCxJdhdQuxR16dr5-23" vertex="1">
          <mxGeometry width="200" height="160" as="geometry" />
        </mxCell>
        <mxCell id="keaWbCxJdhdQuxR16dr5-25" value="" style="sketch=0;points=[[0,0,0],[0.25,0,0],[0.5,0,0],[0.75,0,0],[1,0,0],[0,1,0],[0.25,1,0],[0.5,1,0],[0.75,1,0],[1,1,0],[0,0.25,0],[0,0.5,0],[0,0.75,0],[1,0.25,0],[1,0.5,0],[1,0.75,0]];points=[[0,0,0],[0.25,0,0],[0.5,0,0],[0.75,0,0],[1,0,0],[0,1,0],[0.25,1,0],[0.5,1,0],[0.75,1,0],[1,1,0],[0,0.25,0],[0,0.5,0],[0,0.75,0],[1,0.25,0],[1,0.5,0],[1,0.75,0]];outlineConnect=0;fontColor=#232F3E;gradientColor=#F34482;gradientDirection=north;fillColor=#BC1356;strokeColor=#ffffff;dashed=0;verticalLabelPosition=bottom;verticalAlign=top;align=center;html=1;fontSize=12;fontStyle=0;aspect=fixed;shape=mxgraph.aws4.resourceIcon;resIcon=mxgraph.aws4.cloudformation;container=0;" parent="keaWbCxJdhdQuxR16dr5-23" vertex="1">
          <mxGeometry width="40" height="40" as="geometry" />
        </mxCell>
        <mxCell id="keaWbCxJdhdQuxR16dr5-26" value="&amp;nbsp;Deployment Unit 1" style="text;html=1;strokeColor=none;fillColor=none;align=left;verticalAlign=middle;whiteSpace=wrap;rounded=0;fontColor=#cd2264;container=0;" parent="keaWbCxJdhdQuxR16dr5-23" vertex="1">
          <mxGeometry x="40" width="120" height="40" as="geometry" />
        </mxCell>
        <mxCell id="keaWbCxJdhdQuxR16dr5-27" value="CodeBuild&lt;br&gt;Project" style="sketch=0;points=[[0,0,0],[0.25,0,0],[0.5,0,0],[0.75,0,0],[1,0,0],[0,1,0],[0.25,1,0],[0.5,1,0],[0.75,1,0],[1,1,0],[0,0.25,0],[0,0.5,0],[0,0.75,0],[1,0.25,0],[1,0.5,0],[1,0.75,0]];outlineConnect=0;fontColor=#232F3E;gradientColor=#4D72F3;gradientDirection=north;fillColor=#3334B9;strokeColor=#ffffff;dashed=0;verticalLabelPosition=bottom;verticalAlign=top;align=center;html=1;fontSize=12;fontStyle=0;aspect=fixed;shape=mxgraph.aws4.resourceIcon;resIcon=mxgraph.aws4.codebuild;container=0;" parent="keaWbCxJdhdQuxR16dr5-23" vertex="1">
          <mxGeometry x="60" y="40" width="80" height="80" as="geometry" />
        </mxCell>
        <mxCell id="keaWbCxJdhdQuxR16dr5-28" value="" style="group" parent="1" vertex="1" connectable="0">
          <mxGeometry x="640" y="2760" width="200" height="160" as="geometry" />
        </mxCell>
        <mxCell id="keaWbCxJdhdQuxR16dr5-29" value="" style="rounded=0;whiteSpace=wrap;html=1;strokeColor=#CD2264;fillColor=none;container=0;" parent="keaWbCxJdhdQuxR16dr5-28" vertex="1">
          <mxGeometry width="200" height="160" as="geometry" />
        </mxCell>
        <mxCell id="keaWbCxJdhdQuxR16dr5-30" value="" style="sketch=0;points=[[0,0,0],[0.25,0,0],[0.5,0,0],[0.75,0,0],[1,0,0],[0,1,0],[0.25,1,0],[0.5,1,0],[0.75,1,0],[1,1,0],[0,0.25,0],[0,0.5,0],[0,0.75,0],[1,0.25,0],[1,0.5,0],[1,0.75,0]];points=[[0,0,0],[0.25,0,0],[0.5,0,0],[0.75,0,0],[1,0,0],[0,1,0],[0.25,1,0],[0.5,1,0],[0.75,1,0],[1,1,0],[0,0.25,0],[0,0.5,0],[0,0.75,0],[1,0.25,0],[1,0.5,0],[1,0.75,0]];outlineConnect=0;fontColor=#232F3E;gradientColor=#F34482;gradientDirection=north;fillColor=#BC1356;strokeColor=#ffffff;dashed=0;verticalLabelPosition=bottom;verticalAlign=top;align=center;html=1;fontSize=12;fontStyle=0;aspect=fixed;shape=mxgraph.aws4.resourceIcon;resIcon=mxgraph.aws4.cloudformation;container=0;" parent="keaWbCxJdhdQuxR16dr5-28" vertex="1">
          <mxGeometry width="40" height="40" as="geometry" />
        </mxCell>
        <mxCell id="keaWbCxJdhdQuxR16dr5-31" value="&amp;nbsp;Deployment Unit 3" style="text;html=1;strokeColor=none;fillColor=none;align=left;verticalAlign=middle;whiteSpace=wrap;rounded=0;fontColor=#cd2264;container=0;" parent="keaWbCxJdhdQuxR16dr5-28" vertex="1">
          <mxGeometry x="40" width="120" height="40" as="geometry" />
        </mxCell>
        <mxCell id="keaWbCxJdhdQuxR16dr5-32" value="CodeBuild&lt;br&gt;Project" style="sketch=0;points=[[0,0,0],[0.25,0,0],[0.5,0,0],[0.75,0,0],[1,0,0],[0,1,0],[0.25,1,0],[0.5,1,0],[0.75,1,0],[1,1,0],[0,0.25,0],[0,0.5,0],[0,0.75,0],[1,0.25,0],[1,0.5,0],[1,0.75,0]];outlineConnect=0;fontColor=#232F3E;gradientColor=#4D72F3;gradientDirection=north;fillColor=#3334B9;strokeColor=#ffffff;dashed=0;verticalLabelPosition=bottom;verticalAlign=top;align=center;html=1;fontSize=12;fontStyle=0;aspect=fixed;shape=mxgraph.aws4.resourceIcon;resIcon=mxgraph.aws4.codebuild;container=0;" parent="keaWbCxJdhdQuxR16dr5-28" vertex="1">
          <mxGeometry x="60" y="40" width="80" height="80" as="geometry" />
        </mxCell>
        <mxCell id="keaWbCxJdhdQuxR16dr5-67" value="&lt;h1&gt;What&#39;s in the Shared CloudFormation Stack?&lt;/h1&gt;&lt;p&gt;&lt;/p&gt;&lt;ul&gt;&lt;li&gt;An &lt;a href=&quot;https://docs.aws.amazon.com/cdk/api/v2/python/aws_cdk.aws_events/Rule.html&quot;&gt;Event Bridge Rule&lt;/a&gt; that capture CodeCommit&amp;nbsp;reference create / update (create, update branch, push commits) events, and trigger the next Lambda Function.&lt;/li&gt;&lt;li&gt;A &lt;a href=&quot;https://docs.aws.amazon.com/cdk/api/v2/python/aws_cdk.aws_lambda/Function.html&quot;&gt;Lambda Function&lt;/a&gt; that receives CodeCommit events, analyze it and decide to trigger which CodeBuild job run.&lt;/li&gt;&lt;li&gt;A collection of resources including a CodeBuild project and a CodePipeline for each deployment unit.&lt;/li&gt;&lt;/ul&gt;&lt;p&gt;&lt;/p&gt;&lt;p&gt;&lt;/p&gt;" style="text;html=1;strokeColor=none;fillColor=none;spacing=5;spacingTop=-20;whiteSpace=wrap;overflow=hidden;rounded=0;" parent="1" vertex="1">
          <mxGeometry x="360" y="3100" width="400" height="200" as="geometry" />
        </mxCell>
        <mxCell id="keaWbCxJdhdQuxR16dr5-39" value="" style="sketch=0;outlineConnect=0;fontColor=#232F3E;gradientColor=none;fillColor=#B0084D;strokeColor=none;dashed=0;verticalLabelPosition=bottom;verticalAlign=top;align=center;html=1;fontSize=12;fontStyle=0;pointerEvents=1;shape=mxgraph.aws4.template;container=0;" parent="1" vertex="1">
          <mxGeometry x="40" y="3080" width="40" height="40" as="geometry" />
        </mxCell>
        <mxCell id="keaWbCxJdhdQuxR16dr5-40" value="CodeBuild Trigger&lt;br&gt;Lambda Function" style="sketch=0;outlineConnect=0;fontColor=#232F3E;gradientColor=none;fillColor=#D45B07;strokeColor=none;dashed=0;verticalLabelPosition=bottom;verticalAlign=top;align=center;html=1;fontSize=12;fontStyle=0;aspect=fixed;pointerEvents=1;shape=mxgraph.aws4.lambda_function;" parent="1" vertex="1">
          <mxGeometry x="240" y="3160" width="80" height="80" as="geometry" />
        </mxCell>
        <mxCell id="keaWbCxJdhdQuxR16dr5-42" value="Event Bridge" style="sketch=0;points=[[0,0,0],[0.25,0,0],[0.5,0,0],[0.75,0,0],[1,0,0],[0,1,0],[0.25,1,0],[0.5,1,0],[0.75,1,0],[1,1,0],[0,0.25,0],[0,0.5,0],[0,0.75,0],[1,0.25,0],[1,0.5,0],[1,0.75,0]];outlineConnect=0;fontColor=#232F3E;gradientColor=#FF4F8B;gradientDirection=north;fillColor=#BC1356;strokeColor=#ffffff;dashed=0;verticalLabelPosition=bottom;verticalAlign=top;align=center;html=1;fontSize=12;fontStyle=0;aspect=fixed;shape=mxgraph.aws4.resourceIcon;resIcon=mxgraph.aws4.eventbridge;" parent="1" vertex="1">
          <mxGeometry x="80" y="3160" width="80" height="80" as="geometry" />
        </mxCell>
        <mxCell id="keaWbCxJdhdQuxR16dr5-43" value="" style="rounded=0;whiteSpace=wrap;html=1;strokeColor=#CD2264;fillColor=none;container=0;" parent="1" vertex="1">
          <mxGeometry x="320" y="3320" width="200" height="160" as="geometry" />
        </mxCell>
        <mxCell id="keaWbCxJdhdQuxR16dr5-44" value="" style="sketch=0;points=[[0,0,0],[0.25,0,0],[0.5,0,0],[0.75,0,0],[1,0,0],[0,1,0],[0.25,1,0],[0.5,1,0],[0.75,1,0],[1,1,0],[0,0.25,0],[0,0.5,0],[0,0.75,0],[1,0.25,0],[1,0.5,0],[1,0.75,0]];points=[[0,0,0],[0.25,0,0],[0.5,0,0],[0.75,0,0],[1,0,0],[0,1,0],[0.25,1,0],[0.5,1,0],[0.75,1,0],[1,1,0],[0,0.25,0],[0,0.5,0],[0,0.75,0],[1,0.25,0],[1,0.5,0],[1,0.75,0]];outlineConnect=0;fontColor=#232F3E;gradientColor=#F34482;gradientDirection=north;fillColor=#BC1356;strokeColor=#ffffff;dashed=0;verticalLabelPosition=bottom;verticalAlign=top;align=center;html=1;fontSize=12;fontStyle=0;aspect=fixed;shape=mxgraph.aws4.resourceIcon;resIcon=mxgraph.aws4.cloudformation;container=0;" parent="1" vertex="1">
          <mxGeometry x="320" y="3320" width="40" height="40" as="geometry" />
        </mxCell>
        <mxCell id="keaWbCxJdhdQuxR16dr5-45" value="&amp;nbsp;Deployment Unit 2" style="text;html=1;strokeColor=none;fillColor=none;align=left;verticalAlign=middle;whiteSpace=wrap;rounded=0;fontColor=#cd2264;container=0;" parent="1" vertex="1">
          <mxGeometry x="360" y="3320" width="120" height="40" as="geometry" />
        </mxCell>
        <mxCell id="keaWbCxJdhdQuxR16dr5-46" value="CodeBuild&lt;br&gt;Pipeline" style="sketch=0;points=[[0,0,0],[0.25,0,0],[0.5,0,0],[0.75,0,0],[1,0,0],[0,1,0],[0.25,1,0],[0.5,1,0],[0.75,1,0],[1,1,0],[0,0.25,0],[0,0.5,0],[0,0.75,0],[1,0.25,0],[1,0.5,0],[1,0.75,0]];outlineConnect=0;fontColor=#232F3E;gradientColor=#4D72F3;gradientDirection=north;fillColor=#3334B9;strokeColor=#ffffff;dashed=0;verticalLabelPosition=bottom;verticalAlign=top;align=center;html=1;fontSize=12;fontStyle=0;aspect=fixed;shape=mxgraph.aws4.resourceIcon;resIcon=mxgraph.aws4.codepipeline;container=0;" parent="1" vertex="1">
          <mxGeometry x="440" y="3380" width="40" height="40" as="geometry" />
        </mxCell>
        <mxCell id="keaWbCxJdhdQuxR16dr5-47" value="CodeBuild&lt;br&gt;Project" style="sketch=0;points=[[0,0,0],[0.25,0,0],[0.5,0,0],[0.75,0,0],[1,0,0],[0,1,0],[0.25,1,0],[0.5,1,0],[0.75,1,0],[1,1,0],[0,0.25,0],[0,0.5,0],[0,0.75,0],[1,0.25,0],[1,0.5,0],[1,0.75,0]];outlineConnect=0;fontColor=#232F3E;gradientColor=#4D72F3;gradientDirection=north;fillColor=#3334B9;strokeColor=#ffffff;dashed=0;verticalLabelPosition=bottom;verticalAlign=top;align=center;html=1;fontSize=12;fontStyle=0;aspect=fixed;shape=mxgraph.aws4.resourceIcon;resIcon=mxgraph.aws4.codebuild;container=0;" parent="1" vertex="1">
          <mxGeometry x="360" y="3380" width="40" height="40" as="geometry" />
        </mxCell>
        <mxCell id="keaWbCxJdhdQuxR16dr5-50" value="" style="rounded=0;whiteSpace=wrap;html=1;strokeColor=#CD2264;fillColor=none;container=0;" parent="1" vertex="1">
          <mxGeometry x="80" y="3320" width="200" height="160" as="geometry" />
        </mxCell>
        <mxCell id="keaWbCxJdhdQuxR16dr5-51" value="" style="sketch=0;points=[[0,0,0],[0.25,0,0],[0.5,0,0],[0.75,0,0],[1,0,0],[0,1,0],[0.25,1,0],[0.5,1,0],[0.75,1,0],[1,1,0],[0,0.25,0],[0,0.5,0],[0,0.75,0],[1,0.25,0],[1,0.5,0],[1,0.75,0]];points=[[0,0,0],[0.25,0,0],[0.5,0,0],[0.75,0,0],[1,0,0],[0,1,0],[0.25,1,0],[0.5,1,0],[0.75,1,0],[1,1,0],[0,0.25,0],[0,0.5,0],[0,0.75,0],[1,0.25,0],[1,0.5,0],[1,0.75,0]];outlineConnect=0;fontColor=#232F3E;gradientColor=#F34482;gradientDirection=north;fillColor=#BC1356;strokeColor=#ffffff;dashed=0;verticalLabelPosition=bottom;verticalAlign=top;align=center;html=1;fontSize=12;fontStyle=0;aspect=fixed;shape=mxgraph.aws4.resourceIcon;resIcon=mxgraph.aws4.cloudformation;container=0;" parent="1" vertex="1">
          <mxGeometry x="80" y="3320" width="40" height="40" as="geometry" />
        </mxCell>
        <mxCell id="keaWbCxJdhdQuxR16dr5-52" value="&amp;nbsp;Deployment Unit 1" style="text;html=1;strokeColor=none;fillColor=none;align=left;verticalAlign=middle;whiteSpace=wrap;rounded=0;fontColor=#cd2264;container=0;" parent="1" vertex="1">
          <mxGeometry x="120" y="3320" width="120" height="40" as="geometry" />
        </mxCell>
        <mxCell id="keaWbCxJdhdQuxR16dr5-53" value="CodeBuild&lt;br&gt;Pipeline" style="sketch=0;points=[[0,0,0],[0.25,0,0],[0.5,0,0],[0.75,0,0],[1,0,0],[0,1,0],[0.25,1,0],[0.5,1,0],[0.75,1,0],[1,1,0],[0,0.25,0],[0,0.5,0],[0,0.75,0],[1,0.25,0],[1,0.5,0],[1,0.75,0]];outlineConnect=0;fontColor=#232F3E;gradientColor=#4D72F3;gradientDirection=north;fillColor=#3334B9;strokeColor=#ffffff;dashed=0;verticalLabelPosition=bottom;verticalAlign=top;align=center;html=1;fontSize=12;fontStyle=0;aspect=fixed;shape=mxgraph.aws4.resourceIcon;resIcon=mxgraph.aws4.codepipeline;container=0;" parent="1" vertex="1">
          <mxGeometry x="200" y="3380" width="40" height="40" as="geometry" />
        </mxCell>
        <mxCell id="keaWbCxJdhdQuxR16dr5-54" value="CodeBuild&lt;br&gt;Project" style="sketch=0;points=[[0,0,0],[0.25,0,0],[0.5,0,0],[0.75,0,0],[1,0,0],[0,1,0],[0.25,1,0],[0.5,1,0],[0.75,1,0],[1,1,0],[0,0.25,0],[0,0.5,0],[0,0.75,0],[1,0.25,0],[1,0.5,0],[1,0.75,0]];outlineConnect=0;fontColor=#232F3E;gradientColor=#4D72F3;gradientDirection=north;fillColor=#3334B9;strokeColor=#ffffff;dashed=0;verticalLabelPosition=bottom;verticalAlign=top;align=center;html=1;fontSize=12;fontStyle=0;aspect=fixed;shape=mxgraph.aws4.resourceIcon;resIcon=mxgraph.aws4.codebuild;container=0;" parent="1" vertex="1">
          <mxGeometry x="120" y="3380" width="40" height="40" as="geometry" />
        </mxCell>
        <mxCell id="keaWbCxJdhdQuxR16dr5-55" value="" style="rounded=0;whiteSpace=wrap;html=1;strokeColor=#CD2264;fillColor=none;container=0;" parent="1" vertex="1">
          <mxGeometry x="560" y="3320" width="200" height="160" as="geometry" />
        </mxCell>
        <mxCell id="keaWbCxJdhdQuxR16dr5-56" value="" style="sketch=0;points=[[0,0,0],[0.25,0,0],[0.5,0,0],[0.75,0,0],[1,0,0],[0,1,0],[0.25,1,0],[0.5,1,0],[0.75,1,0],[1,1,0],[0,0.25,0],[0,0.5,0],[0,0.75,0],[1,0.25,0],[1,0.5,0],[1,0.75,0]];points=[[0,0,0],[0.25,0,0],[0.5,0,0],[0.75,0,0],[1,0,0],[0,1,0],[0.25,1,0],[0.5,1,0],[0.75,1,0],[1,1,0],[0,0.25,0],[0,0.5,0],[0,0.75,0],[1,0.25,0],[1,0.5,0],[1,0.75,0]];outlineConnect=0;fontColor=#232F3E;gradientColor=#F34482;gradientDirection=north;fillColor=#BC1356;strokeColor=#ffffff;dashed=0;verticalLabelPosition=bottom;verticalAlign=top;align=center;html=1;fontSize=12;fontStyle=0;aspect=fixed;shape=mxgraph.aws4.resourceIcon;resIcon=mxgraph.aws4.cloudformation;container=0;" parent="1" vertex="1">
          <mxGeometry x="560" y="3320" width="40" height="40" as="geometry" />
        </mxCell>
        <mxCell id="keaWbCxJdhdQuxR16dr5-57" value="&amp;nbsp;Deployment Unit 3" style="text;html=1;strokeColor=none;fillColor=none;align=left;verticalAlign=middle;whiteSpace=wrap;rounded=0;fontColor=#cd2264;container=0;" parent="1" vertex="1">
          <mxGeometry x="600" y="3320" width="120" height="40" as="geometry" />
        </mxCell>
        <mxCell id="keaWbCxJdhdQuxR16dr5-58" value="CodeBuild&lt;br&gt;Pipeline" style="sketch=0;points=[[0,0,0],[0.25,0,0],[0.5,0,0],[0.75,0,0],[1,0,0],[0,1,0],[0.25,1,0],[0.5,1,0],[0.75,1,0],[1,1,0],[0,0.25,0],[0,0.5,0],[0,0.75,0],[1,0.25,0],[1,0.5,0],[1,0.75,0]];outlineConnect=0;fontColor=#232F3E;gradientColor=#4D72F3;gradientDirection=north;fillColor=#3334B9;strokeColor=#ffffff;dashed=0;verticalLabelPosition=bottom;verticalAlign=top;align=center;html=1;fontSize=12;fontStyle=0;aspect=fixed;shape=mxgraph.aws4.resourceIcon;resIcon=mxgraph.aws4.codepipeline;container=0;" parent="1" vertex="1">
          <mxGeometry x="680" y="3380" width="40" height="40" as="geometry" />
        </mxCell>
        <mxCell id="keaWbCxJdhdQuxR16dr5-59" value="CodeBuild&lt;br&gt;Project" style="sketch=0;points=[[0,0,0],[0.25,0,0],[0.5,0,0],[0.75,0,0],[1,0,0],[0,1,0],[0.25,1,0],[0.5,1,0],[0.75,1,0],[1,1,0],[0,0.25,0],[0,0.5,0],[0,0.75,0],[1,0.25,0],[1,0.5,0],[1,0.75,0]];outlineConnect=0;fontColor=#232F3E;gradientColor=#4D72F3;gradientDirection=north;fillColor=#3334B9;strokeColor=#ffffff;dashed=0;verticalLabelPosition=bottom;verticalAlign=top;align=center;html=1;fontSize=12;fontStyle=0;aspect=fixed;shape=mxgraph.aws4.resourceIcon;resIcon=mxgraph.aws4.codebuild;container=0;" parent="1" vertex="1">
          <mxGeometry x="600" y="3380" width="40" height="40" as="geometry" />
        </mxCell>
        <mxCell id="keaWbCxJdhdQuxR16dr5-65" value="Shared Cloudformation Stack" style="text;html=1;strokeColor=none;fillColor=none;align=left;verticalAlign=middle;whiteSpace=wrap;rounded=0;fontColor=#cd2264;container=0;" parent="1" vertex="1">
          <mxGeometry x="80" y="3080" width="160" height="40" as="geometry" />
        </mxCell>
        <mxCell id="keaWbCxJdhdQuxR16dr5-69" value="&lt;h1 style=&quot;border-color: var(--border-color);&quot;&gt;The CI Job for &quot;development&quot; Git branches.&lt;/h1&gt;&lt;h1&gt;&lt;p style=&quot;border-color: var(--border-color); font-size: 12px; font-weight: 400;&quot;&gt;&lt;/p&gt;&lt;ul style=&quot;border-color: var(--border-color); font-size: 12px;&quot;&gt;&lt;li style=&quot;font-weight: 400; border-color: var(--border-color);&quot;&gt;A developer create a branch ${deployment_unit_name}/${semantic_name}/${description} and doing development on it. The ${deployment_unit_name} has to be accurate, and the semantic name can be anything other than &quot;release&quot;.&lt;/li&gt;&lt;li style=&quot;font-weight: 400; border-color: var(--border-color);&quot;&gt;An&amp;nbsp;&lt;a style=&quot;border-color: var(--border-color);&quot; href=&quot;https://docs.aws.amazon.com/cdk/api/v2/python/aws_cdk.aws_events/Rule.html&quot;&gt;Event Bridge Rule&lt;/a&gt;&amp;nbsp;that capture CodeCommit&amp;nbsp;reference create / update (create, update branch, push commits) events, and trigger the next Lambda Function.&lt;/li&gt;&lt;li style=&quot;font-weight: 400; border-color: var(--border-color);&quot;&gt;A&amp;nbsp;&lt;a style=&quot;border-color: var(--border-color);&quot; href=&quot;https://docs.aws.amazon.com/cdk/api/v2/python/aws_cdk.aws_lambda/Function.html&quot;&gt;Lambda Function&lt;/a&gt;&amp;nbsp;that receives CodeCommit events, analyze it and decide to trigger which CodeBuild job run.&lt;/li&gt;&lt;li style=&quot;border-color: var(--border-color);&quot;&gt;&lt;span style=&quot;font-weight: 400;&quot;&gt;The CodeBuild job run will execute the logics described in the &quot;&lt;/span&gt;CodeBuild Job Run Logics&lt;span style=&quot;font-weight: 400;&quot;&gt; section&quot;, but only in Sandbox environment.&lt;/span&gt;&lt;/li&gt;&lt;/ul&gt;&lt;/h1&gt;&lt;h1 style=&quot;border-color: var(--border-color);&quot;&gt;CodeBuild Trigger Lambda Function Logics&lt;/h1&gt;&lt;h1&gt;&lt;div style=&quot;border-color: var(--border-color); font-size: 12px; font-weight: 400;&quot;&gt;&lt;p style=&quot;border-color: var(--border-color);&quot;&gt;&lt;/p&gt;&lt;ul style=&quot;border-color: var(--border-color);&quot;&gt;&lt;li style=&quot;border-color: var(--border-color);&quot;&gt;&lt;span style=&quot;background-color: initial;&quot;&gt;Don&#39;t trigger any build on direct commit to main branch, unless the commit message is &quot;${deployment_unit_name}: ...&quot;.&lt;/span&gt;&lt;br&gt;&lt;/li&gt;&lt;li style=&quot;border-color: var(--border-color);&quot;&gt;Don&#39;t trigger any build when branch name is chore, this branch is for house keeping.&lt;/li&gt;&lt;li style=&quot;border-color: var(--border-color);&quot;&gt;Don&#39;t trigger any build when branch name is ${deployment_unit_name}/release, this branch is handled by CodePipeline.&lt;/li&gt;&lt;li style=&quot;border-color: var(--border-color);&quot;&gt;Don&#39;t trigger any build when branch name is ${deployment_unit_name}/chore, this branch is for house keeping.&lt;/li&gt;&lt;li style=&quot;border-color: var(--border-color);&quot;&gt;When branch name is ${deployment_unit_name}/${semantic_name}, then use the ${deployment_unit_name} to locate the CodeBuild project and run it.&lt;/li&gt;&lt;/ul&gt;&lt;/div&gt;&lt;/h1&gt;&lt;p&gt;&lt;/p&gt;&lt;p&gt;&lt;/p&gt;" style="text;html=1;strokeColor=default;fillColor=none;spacing=5;spacingTop=-20;whiteSpace=wrap;overflow=hidden;rounded=0;" parent="1" vertex="1">
          <mxGeometry x="920" y="2320" width="720" height="640" as="geometry" />
        </mxCell>
        <mxCell id="keaWbCxJdhdQuxR16dr5-70" value="&lt;b&gt;Daily Development CI Job Run&lt;/b&gt;" style="rounded=0;whiteSpace=wrap;html=1;fillColor=none;verticalAlign=top;" parent="1" vertex="1">
          <mxGeometry x="40" y="2320" width="840" height="640" as="geometry" />
        </mxCell>
        <mxCell id="IKKTTKfhClPqd0NQZwso-4" style="edgeStyle=orthogonalEdgeStyle;rounded=0;orthogonalLoop=1;jettySize=auto;html=1;entryX=0;entryY=0.5;entryDx=0;entryDy=0;entryPerimeter=0;" parent="1" source="GboHktEb3weiOecwaubW-1" target="IKKTTKfhClPqd0NQZwso-3" edge="1">
          <mxGeometry relative="1" as="geometry" />
        </mxCell>
        <mxCell id="GboHktEb3weiOecwaubW-1" value="main" style="image;aspect=fixed;html=1;points=[];align=center;fontSize=12;image=img/lib/azure2/general/Branch.svg;" parent="1" vertex="1">
          <mxGeometry x="240" y="4120" width="80" height="80" as="geometry" />
        </mxCell>
        <mxCell id="IKKTTKfhClPqd0NQZwso-6" style="edgeStyle=orthogonalEdgeStyle;rounded=0;orthogonalLoop=1;jettySize=auto;html=1;entryX=0;entryY=0.5;entryDx=0;entryDy=0;entryPerimeter=0;" parent="1" source="GboHktEb3weiOecwaubW-2" target="IKKTTKfhClPqd0NQZwso-2" edge="1">
          <mxGeometry relative="1" as="geometry" />
        </mxCell>
        <mxCell id="GboHktEb3weiOecwaubW-2" value="${deployment_unit_name}/release" style="image;aspect=fixed;html=1;points=[];align=center;fontSize=12;image=img/lib/azure2/general/Branch.svg;" parent="1" vertex="1">
          <mxGeometry x="240" y="3960" width="80" height="80" as="geometry" />
        </mxCell>
        <mxCell id="GboHktEb3weiOecwaubW-3" value="main&lt;br&gt;chore/...&lt;br&gt;${deployment_unit_name}/chore" style="image;aspect=fixed;html=1;points=[];align=center;fontSize=12;image=img/lib/azure2/general/Branch.svg;" parent="1" vertex="1">
          <mxGeometry x="240" y="4280" width="80" height="80" as="geometry" />
        </mxCell>
        <mxCell id="IKKTTKfhClPqd0NQZwso-5" style="edgeStyle=orthogonalEdgeStyle;rounded=0;orthogonalLoop=1;jettySize=auto;html=1;entryX=0;entryY=0.5;entryDx=0;entryDy=0;entryPerimeter=0;" parent="1" source="GboHktEb3weiOecwaubW-4" target="IKKTTKfhClPqd0NQZwso-1" edge="1">
          <mxGeometry relative="1" as="geometry" />
        </mxCell>
        <mxCell id="GboHktEb3weiOecwaubW-4" value="${deployment_unit_name}/${any_others}&lt;br&gt;feature&lt;br&gt;fix&lt;br&gt;layer&lt;br&gt;ecr&lt;br&gt;lambda&lt;br&gt;cleanup&lt;br&gt;etc ..." style="image;aspect=fixed;html=1;points=[];align=center;fontSize=12;image=img/lib/azure2/general/Branch.svg;" parent="1" vertex="1">
          <mxGeometry x="240" y="3720" width="80" height="80" as="geometry" />
        </mxCell>
        <mxCell id="IKKTTKfhClPqd0NQZwso-1" value="CodeBuild&lt;br style=&quot;border-color: var(--border-color);&quot;&gt;Project" style="sketch=0;points=[[0,0,0],[0.25,0,0],[0.5,0,0],[0.75,0,0],[1,0,0],[0,1,0],[0.25,1,0],[0.5,1,0],[0.75,1,0],[1,1,0],[0,0.25,0],[0,0.5,0],[0,0.75,0],[1,0.25,0],[1,0.5,0],[1,0.75,0]];outlineConnect=0;fontColor=#232F3E;gradientColor=#4D72F3;gradientDirection=north;fillColor=#3334B9;strokeColor=#ffffff;dashed=0;verticalLabelPosition=bottom;verticalAlign=top;align=center;html=1;fontSize=12;fontStyle=0;aspect=fixed;shape=mxgraph.aws4.resourceIcon;resIcon=mxgraph.aws4.codebuild;" parent="1" vertex="1">
          <mxGeometry x="440" y="3720" width="80" height="80" as="geometry" />
        </mxCell>
        <mxCell id="IKKTTKfhClPqd0NQZwso-2" value="CodePipeline" style="sketch=0;points=[[0,0,0],[0.25,0,0],[0.5,0,0],[0.75,0,0],[1,0,0],[0,1,0],[0.25,1,0],[0.5,1,0],[0.75,1,0],[1,1,0],[0,0.25,0],[0,0.5,0],[0,0.75,0],[1,0.25,0],[1,0.5,0],[1,0.75,0]];outlineConnect=0;fontColor=#232F3E;gradientColor=#4D72F3;gradientDirection=north;fillColor=#3334B9;strokeColor=#ffffff;dashed=0;verticalLabelPosition=bottom;verticalAlign=top;align=center;html=1;fontSize=12;fontStyle=0;aspect=fixed;shape=mxgraph.aws4.resourceIcon;resIcon=mxgraph.aws4.codepipeline;" parent="1" vertex="1">
          <mxGeometry x="440" y="3960" width="80" height="80" as="geometry" />
        </mxCell>
        <mxCell id="IKKTTKfhClPqd0NQZwso-3" value="CodeBuild&lt;br style=&quot;border-color: var(--border-color);&quot;&gt;Project" style="sketch=0;points=[[0,0,0],[0.25,0,0],[0.5,0,0],[0.75,0,0],[1,0,0],[0,1,0],[0.25,1,0],[0.5,1,0],[0.75,1,0],[1,1,0],[0,0.25,0],[0,0.5,0],[0,0.75,0],[1,0.25,0],[1,0.5,0],[1,0.75,0]];outlineConnect=0;fontColor=#232F3E;gradientColor=#4D72F3;gradientDirection=north;fillColor=#3334B9;strokeColor=#ffffff;dashed=0;verticalLabelPosition=bottom;verticalAlign=top;align=center;html=1;fontSize=12;fontStyle=0;aspect=fixed;shape=mxgraph.aws4.resourceIcon;resIcon=mxgraph.aws4.codebuild;" parent="1" vertex="1">
          <mxGeometry x="440" y="4120" width="80" height="80" as="geometry" />
        </mxCell>
        <mxCell id="IKKTTKfhClPqd0NQZwso-9" value="Do nothing" style="text;html=1;strokeColor=none;fillColor=none;align=center;verticalAlign=middle;whiteSpace=wrap;rounded=0;" parent="1" vertex="1">
          <mxGeometry x="440" y="4280" width="80" height="80" as="geometry" />
        </mxCell>
        <mxCell id="IKKTTKfhClPqd0NQZwso-10" value="any branch other than release and chore will trigger a CodeBuild job run in sandbox environment." style="text;html=1;strokeColor=default;fillColor=none;align=left;verticalAlign=middle;whiteSpace=wrap;rounded=0;" parent="1" vertex="1">
          <mxGeometry x="560" y="3720" width="200" height="120" as="geometry" />
        </mxCell>
        <mxCell id="IKKTTKfhClPqd0NQZwso-11" value="release branch will trigger a CodePipeline run to deploy from sandbox -&amp;gt; test -&amp;gt; production." style="text;html=1;strokeColor=default;fillColor=none;align=left;verticalAlign=middle;whiteSpace=wrap;rounded=0;" parent="1" vertex="1">
          <mxGeometry x="560" y="3960" width="200" height="120" as="geometry" />
        </mxCell>
        <mxCell id="IKKTTKfhClPqd0NQZwso-12" value="PR merge from any deployment unit branch to main will trigger a CodeBuild run to run unit test, integration test for certain deployment unit in sandbox environment" style="text;html=1;strokeColor=default;fillColor=none;align=left;verticalAlign=middle;whiteSpace=wrap;rounded=0;" parent="1" vertex="1">
          <mxGeometry x="560" y="4120" width="200" height="120" as="geometry" />
        </mxCell>
        <mxCell id="IKKTTKfhClPqd0NQZwso-13" value="chore branch is designed to do house keeping stuff without triggering the CI build" style="text;html=1;strokeColor=default;fillColor=none;align=left;verticalAlign=middle;whiteSpace=wrap;rounded=0;" parent="1" vertex="1">
          <mxGeometry x="560" y="4280" width="200" height="120" as="geometry" />
        </mxCell>
        <mxCell id="IKKTTKfhClPqd0NQZwso-14" value="&lt;b&gt;Git branching and CI/CD logics&lt;/b&gt;" style="rounded=0;whiteSpace=wrap;html=1;fillColor=none;verticalAlign=top;" parent="1" vertex="1">
          <mxGeometry x="40" y="3640" width="760" height="800" as="geometry" />
        </mxCell>
        <mxCell id="RDSMqAifsQ5TWIercQSK-1" value="" style="shape=image;verticalLabelPosition=bottom;labelBackgroundColor=default;verticalAlign=top;aspect=fixed;imageAspect=0;image=data:image/svg+xml,PHN2ZyB4bWxucz0iaHR0cDovL3d3dy53My5vcmcvMjAwMC9zdmciIGhlaWdodD0iNDhweCIgd2lkdGg9IjQ4cHgiIHZpZXdCb3g9IjAgMCA0OCA0OCI+PHBhdGggZD0iTTQyLjIsMjIuMUwyNS45LDUuOEMyNS40LDUuMywyNC43LDUsMjQsNWMwLDAsMCwwLDAsMGMtMC43LDAtMS40LDAuMy0xLjksMC44bC0zLjUsMy41bDQuMSw0LjFjMC40LTAuMiwwLjgtMC4zLDEuMy0wLjNjMS43LDAsMywxLjMsMywzYzAsMC41LTAuMSwwLjktMC4zLDEuM2w0LDRjMC40LTAuMiwwLjgtMC4zLDEuMy0wLjNjMS43LDAsMywxLjMsMywzcy0xLjMsMy0zLDNjLTEuNywwLTMtMS4zLTMtM2MwLTAuNSwwLjEtMC45LDAuMy0xLjNsLTQtNGMtMC4xLDAtMC4yLDAuMS0wLjMsMC4xdjEwLjRjMS4yLDAuNCwyLDEuNSwyLDIuOGMwLDEuNy0xLjMsMy0zLDNzLTMtMS4zLTMtM2MwLTEuMywwLjgtMi40LDItMi44VjE4LjhjLTEuMi0wLjQtMi0xLjUtMi0yLjhjMC0wLjUsMC4xLTAuOSwwLjMtMS4zbC00LjEtNC4xTDUuOCwyMi4xQzUuMywyMi42LDUsMjMuMyw1LDI0YzAsMC43LDAuMywxLjQsMC44LDEuOWwxNi4zLDE2LjNjMCwwLDAsMCwwLDBjMC41LDAuNSwxLjIsMC44LDEuOSwwLjhzMS40LTAuMywxLjktMC44bDE2LjMtMTYuM2MwLjUtMC41LDAuOC0xLjIsMC44LTEuOUM0MywyMy4zLDQyLjcsMjIuNiw0Mi4yLDIyLjF6IiBmaWxsPSIjRjQ1MTFFIi8+PC9zdmc+;" parent="1" vertex="1">
          <mxGeometry x="40" y="3640" width="40" height="40" as="geometry" />
        </mxCell>
        <mxCell id="RDSMqAifsQ5TWIercQSK-3" value="tst&lt;br&gt;Stage" style="whiteSpace=wrap;html=1;aspect=fixed;" parent="1" vertex="1">
          <mxGeometry x="60" y="1920" width="40" height="40" as="geometry" />
        </mxCell>
        <mxCell id="RDSMqAifsQ5TWIercQSK-4" value="sbx&lt;br&gt;Stage" style="whiteSpace=wrap;html=1;aspect=fixed;" parent="1" vertex="1">
          <mxGeometry x="60" y="1760" width="40" height="40" as="geometry" />
        </mxCell>
        <mxCell id="RDSMqAifsQ5TWIercQSK-5" value="prd&lt;br&gt;Stage" style="whiteSpace=wrap;html=1;aspect=fixed;" parent="1" vertex="1">
          <mxGeometry x="60" y="2080" width="40" height="40" as="geometry" />
        </mxCell>
        <mxCell id="RDSMqAifsQ5TWIercQSK-6" value="Source&lt;br&gt;Stage" style="whiteSpace=wrap;html=1;aspect=fixed;" parent="1" vertex="1">
          <mxGeometry x="60" y="1580" width="40" height="40" as="geometry" />
        </mxCell>
        <mxCell id="lkrg1OwwRpQMM8YOvac7-3" style="edgeStyle=orthogonalEdgeStyle;rounded=0;orthogonalLoop=1;jettySize=auto;html=1;exitX=1;exitY=0.5;exitDx=0;exitDy=0;entryX=0;entryY=0.5;entryDx=0;entryDy=0;entryPerimeter=0;" parent="1" source="lkrg1OwwRpQMM8YOvac7-1" target="GboHktEb3weiOecwaubW-1" edge="1">
          <mxGeometry relative="1" as="geometry" />
        </mxCell>
        <mxCell id="lkrg1OwwRpQMM8YOvac7-1" value="&lt;b&gt;commit message&lt;/b&gt;:&lt;br&gt;${deployment_unit_name}: ..." style="text;html=1;strokeColor=#82b366;fillColor=#d5e8d4;align=left;verticalAlign=middle;whiteSpace=wrap;overflow=hidden;" parent="1" vertex="1">
          <mxGeometry x="60" y="4140" width="160" height="40" as="geometry" />
        </mxCell>
      </root>
    </mxGraphModel>
  </diagram>
  <diagram id="znhCk2SrT6V7MIfDEiRE" name="Lambda-Project">
    <mxGraphModel dx="1170" dy="840" grid="1" gridSize="10" guides="1" tooltips="1" connect="1" arrows="1" fold="1" page="1" pageScale="1" pageWidth="850" pageHeight="1100" math="0" shadow="0">
      <root>
        <mxCell id="0" />
        <mxCell id="1" parent="0" />
        <mxCell id="jD32kpkFDY1tSJcAyQsd-8" value="Production" style="rounded=0;whiteSpace=wrap;html=1;fillColor=#f8cecc;strokeColor=#b85450;verticalAlign=top;" vertex="1" parent="1">
          <mxGeometry x="80" y="1120" width="640" height="200" as="geometry" />
        </mxCell>
        <mxCell id="jD32kpkFDY1tSJcAyQsd-1" value="Test" style="rounded=0;whiteSpace=wrap;html=1;fillColor=#d5e8d4;strokeColor=#82b366;verticalAlign=top;" vertex="1" parent="1">
          <mxGeometry x="80" y="880" width="640" height="200" as="geometry" />
        </mxCell>
        <mxCell id="gQaQKUmSXkdKncSa90jm-2" value="Sandbox" style="rounded=0;whiteSpace=wrap;html=1;fillColor=#dae8fc;strokeColor=#6c8ebf;verticalAlign=top;" vertex="1" parent="1">
          <mxGeometry x="80" y="640" width="640" height="200" as="geometry" />
        </mxCell>
        <mxCell id="whgy40KmDWLCFkjcJu9m-2" value="&lt;b&gt;Lambda Project Semantic Branching and CI/CD Strategy&lt;br&gt;&lt;/b&gt;&lt;br&gt;&lt;table style=&quot;table-layout: fixed; font-size: 10pt; font-family: arial, sans, sans-serif; width: 0px; border-collapse: collapse; border: none;&quot; border=&quot;1&quot; dir=&quot;ltr&quot; cellpadding=&quot;0&quot; cellspacing=&quot;0&quot; xmlns=&quot;http://www.w3.org/1999/xhtml&quot;&gt;&lt;colgroup&gt;&lt;col width=&quot;215&quot;&gt;&lt;col width=&quot;56&quot;&gt;&lt;col width=&quot;56&quot;&gt;&lt;col width=&quot;56&quot;&gt;&lt;col width=&quot;56&quot;&gt;&lt;col width=&quot;56&quot;&gt;&lt;col width=&quot;56&quot;&gt;&lt;col width=&quot;56&quot;&gt;&lt;col width=&quot;56&quot;&gt;&lt;col width=&quot;56&quot;&gt;&lt;/colgroup&gt;&lt;tbody&gt;&lt;tr style=&quot;height: 21px;&quot;&gt;&lt;td style=&quot;border: 1px solid rgb(0, 0, 0); overflow: hidden; padding: 2px 3px; vertical-align: bottom; text-align: center;&quot; data-sheets-value=&quot;{&amp;quot;1&amp;quot;:2,&amp;quot;2&amp;quot;:&amp;quot;Action👇 Git Branch 👉&amp;quot;}&quot;&gt;Action👇 Git Branch 👉&lt;/td&gt;&lt;td style=&quot;border-width: 1px; border-style: solid; border-color: rgb(0, 0, 0) rgb(0, 0, 0) rgb(0, 0, 0) rgb(204, 204, 204); border-image: initial; overflow: hidden; padding: 2px 3px; vertical-align: bottom; overflow-wrap: break-word; text-align: center;&quot; data-sheets-numberformat=&quot;{&amp;quot;1&amp;quot;:1}&quot; data-sheets-value=&quot;{&amp;quot;1&amp;quot;:2,&amp;quot;2&amp;quot;:&amp;quot;main&amp;quot;}&quot;&gt;main&lt;/td&gt;&lt;td style=&quot;border-width: 1px; border-style: solid; border-color: rgb(0, 0, 0) rgb(0, 0, 0) rgb(0, 0, 0) rgb(204, 204, 204); border-image: initial; overflow: hidden; padding: 2px 3px; vertical-align: bottom; overflow-wrap: break-word; text-align: center;&quot; data-sheets-numberformat=&quot;{&amp;quot;1&amp;quot;:1}&quot; data-sheets-value=&quot;{&amp;quot;1&amp;quot;:2,&amp;quot;2&amp;quot;:&amp;quot;feature&amp;quot;}&quot;&gt;feature&lt;/td&gt;&lt;td style=&quot;border-width: 1px; border-style: solid; border-color: rgb(0, 0, 0) rgb(0, 0, 0) rgb(0, 0, 0) rgb(204, 204, 204); border-image: initial; overflow: hidden; padding: 2px 3px; vertical-align: bottom; text-align: center;&quot; data-sheets-value=&quot;{&amp;quot;1&amp;quot;:2,&amp;quot;2&amp;quot;:&amp;quot;fix&amp;quot;}&quot;&gt;fix&lt;/td&gt;&lt;td style=&quot;border-width: 1px; border-style: solid; border-color: rgb(0, 0, 0) rgb(0, 0, 0) rgb(0, 0, 0) rgb(204, 204, 204); border-image: initial; overflow: hidden; padding: 2px 3px; vertical-align: bottom; text-align: center;&quot; data-sheets-value=&quot;{&amp;quot;1&amp;quot;:2,&amp;quot;2&amp;quot;:&amp;quot;doc&amp;quot;}&quot;&gt;doc&lt;/td&gt;&lt;td style=&quot;border-width: 1px; border-style: solid; border-color: rgb(0, 0, 0) rgb(0, 0, 0) rgb(0, 0, 0) rgb(204, 204, 204); border-image: initial; overflow: hidden; padding: 2px 3px; vertical-align: bottom; text-align: center;&quot; data-sheets-value=&quot;{&amp;quot;1&amp;quot;:2,&amp;quot;2&amp;quot;:&amp;quot;layer&amp;quot;}&quot;&gt;layer&lt;/td&gt;&lt;td style=&quot;border-width: 1px; border-style: solid; border-color: rgb(0, 0, 0) rgb(0, 0, 0) rgb(0, 0, 0) rgb(204, 204, 204); border-image: initial; overflow: hidden; padding: 2px 3px; vertical-align: bottom; text-align: center;&quot; data-sheets-value=&quot;{&amp;quot;1&amp;quot;:2,&amp;quot;2&amp;quot;:&amp;quot;ecr&amp;quot;}&quot;&gt;ecr&lt;/td&gt;&lt;td style=&quot;border-width: 1px; border-style: solid; border-color: rgb(0, 0, 0) rgb(0, 0, 0) rgb(0, 0, 0) rgb(204, 204, 204); border-image: initial; overflow: hidden; padding: 2px 3px; vertical-align: bottom; text-align: center;&quot; data-sheets-value=&quot;{&amp;quot;1&amp;quot;:2,&amp;quot;2&amp;quot;:&amp;quot;lambda&amp;quot;}&quot;&gt;lambda&lt;/td&gt;&lt;td style=&quot;border-width: 1px; border-style: solid; border-color: rgb(0, 0, 0) rgb(0, 0, 0) rgb(0, 0, 0) rgb(204, 204, 204); border-image: initial; overflow: hidden; padding: 2px 3px; vertical-align: bottom; text-align: center;&quot; data-sheets-value=&quot;{&amp;quot;1&amp;quot;:2,&amp;quot;2&amp;quot;:&amp;quot;release&amp;quot;}&quot;&gt;release&lt;/td&gt;&lt;td style=&quot;border-width: 1px; border-style: solid; border-color: rgb(0, 0, 0) rgb(0, 0, 0) rgb(0, 0, 0) rgb(204, 204, 204); border-image: initial; overflow: hidden; padding: 2px 3px; vertical-align: bottom; text-align: center;&quot; data-sheets-value=&quot;{&amp;quot;1&amp;quot;:2,&amp;quot;2&amp;quot;:&amp;quot;cleanup&amp;quot;}&quot;&gt;cleanup&lt;/td&gt;&lt;/tr&gt;&lt;tr style=&quot;height: 21px;&quot;&gt;&lt;td style=&quot;border-width: 1px; border-style: solid; border-color: rgb(204, 204, 204) rgb(0, 0, 0) rgb(0, 0, 0); border-image: initial; overflow: hidden; padding: 2px 3px; vertical-align: bottom; text-align: center;&quot; data-sheets-value=&quot;{&amp;quot;1&amp;quot;:2,&amp;quot;2&amp;quot;:&amp;quot;Create Virtualenv&amp;quot;}&quot;&gt;Create Virtualenv&lt;/td&gt;&lt;td style=&quot;border-width: 1px; border-style: solid; border-color: rgb(204, 204, 204) rgb(0, 0, 0) rgb(0, 0, 0) rgb(204, 204, 204); border-image: initial; overflow: hidden; padding: 2px 3px; vertical-align: bottom; overflow-wrap: break-word; text-align: center;&quot; data-sheets-numberformat=&quot;{&amp;quot;1&amp;quot;:1}&quot; data-sheets-value=&quot;{&amp;quot;1&amp;quot;:2,&amp;quot;2&amp;quot;:&amp;quot;✅&amp;quot;}&quot;&gt;✅&lt;/td&gt;&lt;td style=&quot;border-width: 1px; border-style: solid; border-color: rgb(204, 204, 204) rgb(0, 0, 0) rgb(0, 0, 0) rgb(204, 204, 204); border-image: initial; overflow: hidden; padding: 2px 3px; vertical-align: bottom; overflow-wrap: break-word; text-align: center;&quot; data-sheets-numberformat=&quot;{&amp;quot;1&amp;quot;:1}&quot; data-sheets-value=&quot;{&amp;quot;1&amp;quot;:2,&amp;quot;2&amp;quot;:&amp;quot;✅&amp;quot;}&quot;&gt;✅&lt;/td&gt;&lt;td style=&quot;border-width: 1px; border-style: solid; border-color: rgb(204, 204, 204) rgb(0, 0, 0) rgb(0, 0, 0) rgb(204, 204, 204); border-image: initial; overflow: hidden; padding: 2px 3px; vertical-align: bottom; overflow-wrap: break-word; text-align: center;&quot; data-sheets-numberformat=&quot;{&amp;quot;1&amp;quot;:1}&quot; data-sheets-value=&quot;{&amp;quot;1&amp;quot;:2,&amp;quot;2&amp;quot;:&amp;quot;✅&amp;quot;}&quot;&gt;✅&lt;/td&gt;&lt;td style=&quot;border-width: 1px; border-style: solid; border-color: rgb(204, 204, 204) rgb(0, 0, 0) rgb(0, 0, 0) rgb(204, 204, 204); border-image: initial; overflow: hidden; padding: 2px 3px; vertical-align: bottom; overflow-wrap: break-word; text-align: center;&quot; data-sheets-numberformat=&quot;{&amp;quot;1&amp;quot;:1}&quot; data-sheets-value=&quot;{&amp;quot;1&amp;quot;:2,&amp;quot;2&amp;quot;:&amp;quot;✅&amp;quot;}&quot;&gt;✅&lt;/td&gt;&lt;td style=&quot;border-width: 1px; border-style: solid; border-color: rgb(204, 204, 204) rgb(0, 0, 0) rgb(0, 0, 0) rgb(204, 204, 204); border-image: initial; overflow: hidden; padding: 2px 3px; vertical-align: bottom; overflow-wrap: break-word; text-align: center;&quot; data-sheets-numberformat=&quot;{&amp;quot;1&amp;quot;:1}&quot; data-sheets-value=&quot;{&amp;quot;1&amp;quot;:2,&amp;quot;2&amp;quot;:&amp;quot;✅&amp;quot;}&quot;&gt;✅&lt;/td&gt;&lt;td style=&quot;border-width: 1px; border-style: solid; border-color: rgb(204, 204, 204) rgb(0, 0, 0) rgb(0, 0, 0) rgb(204, 204, 204); border-image: initial; overflow: hidden; padding: 2px 3px; vertical-align: bottom; overflow-wrap: break-word; text-align: center;&quot; data-sheets-numberformat=&quot;{&amp;quot;1&amp;quot;:1}&quot; data-sheets-value=&quot;{&amp;quot;1&amp;quot;:2,&amp;quot;2&amp;quot;:&amp;quot;✅&amp;quot;}&quot;&gt;✅&lt;/td&gt;&lt;td style=&quot;border-width: 1px; border-style: solid; border-color: rgb(204, 204, 204) rgb(0, 0, 0) rgb(0, 0, 0) rgb(204, 204, 204); border-image: initial; overflow: hidden; padding: 2px 3px; vertical-align: bottom; overflow-wrap: break-word; text-align: center;&quot; data-sheets-numberformat=&quot;{&amp;quot;1&amp;quot;:1}&quot; data-sheets-value=&quot;{&amp;quot;1&amp;quot;:2,&amp;quot;2&amp;quot;:&amp;quot;✅&amp;quot;}&quot;&gt;✅&lt;/td&gt;&lt;td style=&quot;border-width: 1px; border-style: solid; border-color: rgb(204, 204, 204) rgb(0, 0, 0) rgb(0, 0, 0) rgb(204, 204, 204); border-image: initial; overflow: hidden; padding: 2px 3px; vertical-align: bottom; overflow-wrap: break-word; text-align: center;&quot; data-sheets-numberformat=&quot;{&amp;quot;1&amp;quot;:1}&quot; data-sheets-value=&quot;{&amp;quot;1&amp;quot;:2,&amp;quot;2&amp;quot;:&amp;quot;✅&amp;quot;}&quot;&gt;✅&lt;/td&gt;&lt;td style=&quot;border-width: 1px; border-style: solid; border-color: rgb(204, 204, 204) rgb(0, 0, 0) rgb(0, 0, 0) rgb(204, 204, 204); border-image: initial; overflow: hidden; padding: 2px 3px; vertical-align: bottom; overflow-wrap: break-word; text-align: center;&quot; data-sheets-numberformat=&quot;{&amp;quot;1&amp;quot;:1}&quot; data-sheets-value=&quot;{&amp;quot;1&amp;quot;:2,&amp;quot;2&amp;quot;:&amp;quot;✅&amp;quot;}&quot;&gt;✅&lt;/td&gt;&lt;/tr&gt;&lt;tr style=&quot;height: 21px;&quot;&gt;&lt;td style=&quot;border-width: 1px; border-style: solid; border-color: rgb(204, 204, 204) rgb(0, 0, 0) rgb(0, 0, 0); border-image: initial; overflow: hidden; padding: 2px 3px; vertical-align: bottom; text-align: center;&quot; data-sheets-value=&quot;{&amp;quot;1&amp;quot;:2,&amp;quot;2&amp;quot;:&amp;quot;Install Dependencies&amp;quot;}&quot;&gt;Install Dependencies&lt;/td&gt;&lt;td style=&quot;border-width: 1px; border-style: solid; border-color: rgb(204, 204, 204) rgb(0, 0, 0) rgb(0, 0, 0) rgb(204, 204, 204); border-image: initial; overflow: hidden; padding: 2px 3px; vertical-align: bottom; overflow-wrap: break-word; text-align: center;&quot; data-sheets-numberformat=&quot;{&amp;quot;1&amp;quot;:1}&quot; data-sheets-value=&quot;{&amp;quot;1&amp;quot;:2,&amp;quot;2&amp;quot;:&amp;quot;✅&amp;quot;}&quot;&gt;✅&lt;/td&gt;&lt;td style=&quot;border-width: 1px; border-style: solid; border-color: rgb(204, 204, 204) rgb(0, 0, 0) rgb(0, 0, 0) rgb(204, 204, 204); border-image: initial; overflow: hidden; padding: 2px 3px; vertical-align: bottom; overflow-wrap: break-word; text-align: center;&quot; data-sheets-numberformat=&quot;{&amp;quot;1&amp;quot;:1}&quot; data-sheets-value=&quot;{&amp;quot;1&amp;quot;:2,&amp;quot;2&amp;quot;:&amp;quot;✅&amp;quot;}&quot;&gt;✅&lt;/td&gt;&lt;td style=&quot;border-width: 1px; border-style: solid; border-color: rgb(204, 204, 204) rgb(0, 0, 0) rgb(0, 0, 0) rgb(204, 204, 204); border-image: initial; overflow: hidden; padding: 2px 3px; vertical-align: bottom; overflow-wrap: break-word; text-align: center;&quot; data-sheets-numberformat=&quot;{&amp;quot;1&amp;quot;:1}&quot; data-sheets-value=&quot;{&amp;quot;1&amp;quot;:2,&amp;quot;2&amp;quot;:&amp;quot;✅&amp;quot;}&quot;&gt;✅&lt;/td&gt;&lt;td style=&quot;border-width: 1px; border-style: solid; border-color: rgb(204, 204, 204) rgb(0, 0, 0) rgb(0, 0, 0) rgb(204, 204, 204); border-image: initial; overflow: hidden; padding: 2px 3px; vertical-align: bottom; overflow-wrap: break-word; text-align: center;&quot; data-sheets-numberformat=&quot;{&amp;quot;1&amp;quot;:1}&quot; data-sheets-value=&quot;{&amp;quot;1&amp;quot;:2,&amp;quot;2&amp;quot;:&amp;quot;✅&amp;quot;}&quot;&gt;✅&lt;/td&gt;&lt;td style=&quot;border-width: 1px; border-style: solid; border-color: rgb(204, 204, 204) rgb(0, 0, 0) rgb(0, 0, 0) rgb(204, 204, 204); border-image: initial; overflow: hidden; padding: 2px 3px; vertical-align: bottom; overflow-wrap: break-word; text-align: center;&quot; data-sheets-numberformat=&quot;{&amp;quot;1&amp;quot;:1}&quot; data-sheets-value=&quot;{&amp;quot;1&amp;quot;:2,&amp;quot;2&amp;quot;:&amp;quot;✅&amp;quot;}&quot;&gt;✅&lt;/td&gt;&lt;td style=&quot;border-width: 1px; border-style: solid; border-color: rgb(204, 204, 204) rgb(0, 0, 0) rgb(0, 0, 0) rgb(204, 204, 204); border-image: initial; overflow: hidden; padding: 2px 3px; vertical-align: bottom; overflow-wrap: break-word; text-align: center;&quot; data-sheets-numberformat=&quot;{&amp;quot;1&amp;quot;:1}&quot; data-sheets-value=&quot;{&amp;quot;1&amp;quot;:2,&amp;quot;2&amp;quot;:&amp;quot;✅&amp;quot;}&quot;&gt;✅&lt;/td&gt;&lt;td style=&quot;border-width: 1px; border-style: solid; border-color: rgb(204, 204, 204) rgb(0, 0, 0) rgb(0, 0, 0) rgb(204, 204, 204); border-image: initial; overflow: hidden; padding: 2px 3px; vertical-align: bottom; overflow-wrap: break-word; text-align: center;&quot; data-sheets-numberformat=&quot;{&amp;quot;1&amp;quot;:1}&quot; data-sheets-value=&quot;{&amp;quot;1&amp;quot;:2,&amp;quot;2&amp;quot;:&amp;quot;✅&amp;quot;}&quot;&gt;✅&lt;/td&gt;&lt;td style=&quot;border-width: 1px; border-style: solid; border-color: rgb(204, 204, 204) rgb(0, 0, 0) rgb(0, 0, 0) rgb(204, 204, 204); border-image: initial; overflow: hidden; padding: 2px 3px; vertical-align: bottom; overflow-wrap: break-word; text-align: center;&quot; data-sheets-numberformat=&quot;{&amp;quot;1&amp;quot;:1}&quot; data-sheets-value=&quot;{&amp;quot;1&amp;quot;:2,&amp;quot;2&amp;quot;:&amp;quot;✅&amp;quot;}&quot;&gt;✅&lt;/td&gt;&lt;td style=&quot;border-width: 1px; border-style: solid; border-color: rgb(204, 204, 204) rgb(0, 0, 0) rgb(0, 0, 0) rgb(204, 204, 204); border-image: initial; overflow: hidden; padding: 2px 3px; vertical-align: bottom; overflow-wrap: break-word; text-align: center;&quot; data-sheets-numberformat=&quot;{&amp;quot;1&amp;quot;:1}&quot; data-sheets-value=&quot;{&amp;quot;1&amp;quot;:2,&amp;quot;2&amp;quot;:&amp;quot;✅&amp;quot;}&quot;&gt;✅&lt;/td&gt;&lt;/tr&gt;&lt;tr style=&quot;height: 21px;&quot;&gt;&lt;td style=&quot;border-width: 1px; border-style: solid; border-color: rgb(204, 204, 204) rgb(0, 0, 0) rgb(0, 0, 0); border-image: initial; overflow: hidden; padding: 2px 3px; vertical-align: bottom; text-align: center;&quot; data-sheets-value=&quot;{&amp;quot;1&amp;quot;:2,&amp;quot;2&amp;quot;:&amp;quot;Run Code Coverage Test&amp;quot;}&quot;&gt;Run Code Coverage Test&lt;/td&gt;&lt;td style=&quot;border-width: 1px; border-style: solid; border-color: rgb(204, 204, 204) rgb(0, 0, 0) rgb(0, 0, 0) rgb(204, 204, 204); border-image: initial; overflow: hidden; padding: 2px 3px; vertical-align: bottom; overflow-wrap: break-word; text-align: center;&quot; data-sheets-numberformat=&quot;{&amp;quot;1&amp;quot;:1}&quot; data-sheets-value=&quot;{&amp;quot;1&amp;quot;:2,&amp;quot;2&amp;quot;:&amp;quot;✅&amp;quot;}&quot;&gt;✅&lt;/td&gt;&lt;td style=&quot;border-width: 1px; border-style: solid; border-color: rgb(204, 204, 204) rgb(0, 0, 0) rgb(0, 0, 0) rgb(204, 204, 204); border-image: initial; overflow: hidden; padding: 2px 3px; vertical-align: bottom; overflow-wrap: break-word; text-align: center;&quot; data-sheets-numberformat=&quot;{&amp;quot;1&amp;quot;:1}&quot; data-sheets-value=&quot;{&amp;quot;1&amp;quot;:2,&amp;quot;2&amp;quot;:&amp;quot;✅&amp;quot;}&quot;&gt;✅&lt;/td&gt;&lt;td style=&quot;border-width: 1px; border-style: solid; border-color: rgb(204, 204, 204) rgb(0, 0, 0) rgb(0, 0, 0) rgb(204, 204, 204); border-image: initial; overflow: hidden; padding: 2px 3px; vertical-align: bottom; overflow-wrap: break-word; text-align: center;&quot; data-sheets-numberformat=&quot;{&amp;quot;1&amp;quot;:1}&quot; data-sheets-value=&quot;{&amp;quot;1&amp;quot;:2,&amp;quot;2&amp;quot;:&amp;quot;✅&amp;quot;}&quot;&gt;✅&lt;/td&gt;&lt;td style=&quot;border-width: 1px; border-style: solid; border-color: rgb(204, 204, 204) rgb(0, 0, 0) rgb(0, 0, 0) rgb(204, 204, 204); border-image: initial; overflow: hidden; padding: 2px 3px; vertical-align: bottom; overflow-wrap: break-word; text-align: center;&quot; data-sheets-numberformat=&quot;{&amp;quot;1&amp;quot;:1}&quot; data-sheets-value=&quot;{&amp;quot;1&amp;quot;:2,&amp;quot;2&amp;quot;:&amp;quot;✅&amp;quot;}&quot;&gt;✅&lt;/td&gt;&lt;td style=&quot;border-width: 1px; border-style: solid; border-color: rgb(204, 204, 204) rgb(0, 0, 0) rgb(0, 0, 0) rgb(204, 204, 204); border-image: initial; overflow: hidden; padding: 2px 3px; vertical-align: bottom; overflow-wrap: break-word; text-align: center;&quot; data-sheets-numberformat=&quot;{&amp;quot;1&amp;quot;:1}&quot; data-sheets-value=&quot;{&amp;quot;1&amp;quot;:2,&amp;quot;2&amp;quot;:&amp;quot;✅&amp;quot;}&quot;&gt;✅&lt;/td&gt;&lt;td style=&quot;border-width: 1px; border-style: solid; border-color: rgb(204, 204, 204) rgb(0, 0, 0) rgb(0, 0, 0) rgb(204, 204, 204); border-image: initial; overflow: hidden; padding: 2px 3px; vertical-align: bottom; overflow-wrap: break-word; text-align: center;&quot; data-sheets-numberformat=&quot;{&amp;quot;1&amp;quot;:1}&quot; data-sheets-value=&quot;{&amp;quot;1&amp;quot;:2,&amp;quot;2&amp;quot;:&amp;quot;✅&amp;quot;}&quot;&gt;✅&lt;/td&gt;&lt;td style=&quot;border-width: 1px; border-style: solid; border-color: rgb(204, 204, 204) rgb(0, 0, 0) rgb(0, 0, 0) rgb(204, 204, 204); border-image: initial; overflow: hidden; padding: 2px 3px; vertical-align: bottom; overflow-wrap: break-word; text-align: center;&quot; data-sheets-numberformat=&quot;{&amp;quot;1&amp;quot;:1}&quot; data-sheets-value=&quot;{&amp;quot;1&amp;quot;:2,&amp;quot;2&amp;quot;:&amp;quot;✅&amp;quot;}&quot;&gt;✅&lt;/td&gt;&lt;td style=&quot;border-width: 1px; border-style: solid; border-color: rgb(204, 204, 204) rgb(0, 0, 0) rgb(0, 0, 0) rgb(204, 204, 204); border-image: initial; overflow: hidden; padding: 2px 3px; vertical-align: bottom; overflow-wrap: break-word; text-align: center;&quot; data-sheets-numberformat=&quot;{&amp;quot;1&amp;quot;:1}&quot; data-sheets-value=&quot;{&amp;quot;1&amp;quot;:2,&amp;quot;2&amp;quot;:&amp;quot;✅&amp;quot;}&quot;&gt;✅&lt;/td&gt;&lt;td style=&quot;border-width: 1px; border-style: solid; border-color: rgb(204, 204, 204) rgb(0, 0, 0) rgb(0, 0, 0) rgb(204, 204, 204); border-image: initial; overflow: hidden; padding: 2px 3px; vertical-align: bottom; overflow-wrap: break-word; text-align: center;&quot; data-sheets-numberformat=&quot;{&amp;quot;1&amp;quot;:1}&quot; data-sheets-value=&quot;{&amp;quot;1&amp;quot;:2,&amp;quot;2&amp;quot;:&amp;quot;❌&amp;quot;}&quot;&gt;❌&lt;/td&gt;&lt;/tr&gt;&lt;tr style=&quot;height: 21px;&quot;&gt;&lt;td style=&quot;border-width: 1px; border-style: solid; border-color: rgb(204, 204, 204) rgb(0, 0, 0) rgb(0, 0, 0); border-image: initial; overflow: hidden; padding: 2px 3px; vertical-align: bottom; text-align: center;&quot; data-sheets-value=&quot;{&amp;quot;1&amp;quot;:2,&amp;quot;2&amp;quot;:&amp;quot;Publish Documentation Website&amp;quot;}&quot;&gt;Publish Documentation Website&lt;/td&gt;&lt;td style=&quot;border-width: 1px; border-style: solid; border-color: rgb(204, 204, 204) rgb(0, 0, 0) rgb(0, 0, 0) rgb(204, 204, 204); border-image: initial; overflow: hidden; padding: 2px 3px; vertical-align: bottom; overflow-wrap: break-word; text-align: center;&quot; data-sheets-numberformat=&quot;{&amp;quot;1&amp;quot;:1}&quot; data-sheets-value=&quot;{&amp;quot;1&amp;quot;:2,&amp;quot;2&amp;quot;:&amp;quot;❌&amp;quot;}&quot;&gt;❌&lt;/td&gt;&lt;td style=&quot;border-width: 1px; border-style: solid; border-color: rgb(204, 204, 204) rgb(0, 0, 0) rgb(0, 0, 0) rgb(204, 204, 204); border-image: initial; overflow: hidden; padding: 2px 3px; vertical-align: bottom; overflow-wrap: break-word; text-align: center;&quot; data-sheets-numberformat=&quot;{&amp;quot;1&amp;quot;:1}&quot; data-sheets-value=&quot;{&amp;quot;1&amp;quot;:2,&amp;quot;2&amp;quot;:&amp;quot;❌&amp;quot;}&quot;&gt;❌&lt;/td&gt;&lt;td style=&quot;border-width: 1px; border-style: solid; border-color: rgb(204, 204, 204) rgb(0, 0, 0) rgb(0, 0, 0) rgb(204, 204, 204); border-image: initial; overflow: hidden; padding: 2px 3px; vertical-align: bottom; overflow-wrap: break-word; text-align: center;&quot; data-sheets-numberformat=&quot;{&amp;quot;1&amp;quot;:1}&quot; data-sheets-value=&quot;{&amp;quot;1&amp;quot;:2,&amp;quot;2&amp;quot;:&amp;quot;❌&amp;quot;}&quot;&gt;❌&lt;/td&gt;&lt;td style=&quot;border-width: 1px; border-style: solid; border-color: rgb(204, 204, 204) rgb(0, 0, 0) rgb(0, 0, 0) rgb(204, 204, 204); border-image: initial; overflow: hidden; padding: 2px 3px; vertical-align: bottom; overflow-wrap: break-word; text-align: center;&quot; data-sheets-numberformat=&quot;{&amp;quot;1&amp;quot;:1}&quot; data-sheets-value=&quot;{&amp;quot;1&amp;quot;:2,&amp;quot;2&amp;quot;:&amp;quot;✅&amp;quot;}&quot;&gt;✅&lt;/td&gt;&lt;td style=&quot;border-width: 1px; border-style: solid; border-color: rgb(204, 204, 204) rgb(0, 0, 0) rgb(0, 0, 0) rgb(204, 204, 204); border-image: initial; overflow: hidden; padding: 2px 3px; vertical-align: bottom; overflow-wrap: break-word; text-align: center;&quot; data-sheets-numberformat=&quot;{&amp;quot;1&amp;quot;:1}&quot; data-sheets-value=&quot;{&amp;quot;1&amp;quot;:2,&amp;quot;2&amp;quot;:&amp;quot;❌&amp;quot;}&quot;&gt;❌&lt;/td&gt;&lt;td style=&quot;border-width: 1px; border-style: solid; border-color: rgb(204, 204, 204) rgb(0, 0, 0) rgb(0, 0, 0) rgb(204, 204, 204); border-image: initial; overflow: hidden; padding: 2px 3px; vertical-align: bottom; overflow-wrap: break-word; text-align: center;&quot; data-sheets-numberformat=&quot;{&amp;quot;1&amp;quot;:1}&quot; data-sheets-value=&quot;{&amp;quot;1&amp;quot;:2,&amp;quot;2&amp;quot;:&amp;quot;❌&amp;quot;}&quot;&gt;❌&lt;/td&gt;&lt;td style=&quot;border-width: 1px; border-style: solid; border-color: rgb(204, 204, 204) rgb(0, 0, 0) rgb(0, 0, 0) rgb(204, 204, 204); border-image: initial; overflow: hidden; padding: 2px 3px; vertical-align: bottom; overflow-wrap: break-word; text-align: center;&quot; data-sheets-numberformat=&quot;{&amp;quot;1&amp;quot;:1}&quot; data-sheets-value=&quot;{&amp;quot;1&amp;quot;:2,&amp;quot;2&amp;quot;:&amp;quot;❌&amp;quot;}&quot;&gt;❌&lt;/td&gt;&lt;td style=&quot;border-width: 1px; border-style: solid; border-color: rgb(204, 204, 204) rgb(0, 0, 0) rgb(0, 0, 0) rgb(204, 204, 204); border-image: initial; overflow: hidden; padding: 2px 3px; vertical-align: bottom; overflow-wrap: break-word; text-align: center;&quot; data-sheets-numberformat=&quot;{&amp;quot;1&amp;quot;:1}&quot; data-sheets-value=&quot;{&amp;quot;1&amp;quot;:2,&amp;quot;2&amp;quot;:&amp;quot;❌&amp;quot;}&quot;&gt;❌&lt;/td&gt;&lt;td style=&quot;border-width: 1px; border-style: solid; border-color: rgb(204, 204, 204) rgb(0, 0, 0) rgb(0, 0, 0) rgb(204, 204, 204); border-image: initial; overflow: hidden; padding: 2px 3px; vertical-align: bottom; overflow-wrap: break-word; text-align: center;&quot; data-sheets-numberformat=&quot;{&amp;quot;1&amp;quot;:1}&quot; data-sheets-value=&quot;{&amp;quot;1&amp;quot;:2,&amp;quot;2&amp;quot;:&amp;quot;❌&amp;quot;}&quot;&gt;❌&lt;/td&gt;&lt;/tr&gt;&lt;tr style=&quot;height: 21px;&quot;&gt;&lt;td style=&quot;border-width: 1px; border-style: solid; border-color: rgb(204, 204, 204) rgb(0, 0, 0) rgb(0, 0, 0); border-image: initial; overflow: hidden; padding: 2px 3px; vertical-align: bottom; text-align: center;&quot; data-sheets-value=&quot;{&amp;quot;1&amp;quot;:2,&amp;quot;2&amp;quot;:&amp;quot;Publish Lambda Layer Version&amp;quot;}&quot;&gt;Publish Lambda Layer Version&lt;/td&gt;&lt;td style=&quot;border-width: 1px; border-style: solid; border-color: rgb(204, 204, 204) rgb(0, 0, 0) rgb(0, 0, 0) rgb(204, 204, 204); border-image: initial; overflow: hidden; padding: 2px 3px; vertical-align: bottom; overflow-wrap: break-word; text-align: center;&quot; data-sheets-numberformat=&quot;{&amp;quot;1&amp;quot;:1}&quot; data-sheets-value=&quot;{&amp;quot;1&amp;quot;:2,&amp;quot;2&amp;quot;:&amp;quot;❌&amp;quot;}&quot;&gt;❌&lt;/td&gt;&lt;td style=&quot;border-width: 1px; border-style: solid; border-color: rgb(204, 204, 204) rgb(0, 0, 0) rgb(0, 0, 0) rgb(204, 204, 204); border-image: initial; overflow: hidden; padding: 2px 3px; vertical-align: bottom; overflow-wrap: break-word; text-align: center;&quot; data-sheets-numberformat=&quot;{&amp;quot;1&amp;quot;:1}&quot; data-sheets-value=&quot;{&amp;quot;1&amp;quot;:2,&amp;quot;2&amp;quot;:&amp;quot;❌&amp;quot;}&quot;&gt;❌&lt;/td&gt;&lt;td style=&quot;border-width: 1px; border-style: solid; border-color: rgb(204, 204, 204) rgb(0, 0, 0) rgb(0, 0, 0) rgb(204, 204, 204); border-image: initial; overflow: hidden; padding: 2px 3px; vertical-align: bottom; overflow-wrap: break-word; text-align: center;&quot; data-sheets-numberformat=&quot;{&amp;quot;1&amp;quot;:1}&quot; data-sheets-value=&quot;{&amp;quot;1&amp;quot;:2,&amp;quot;2&amp;quot;:&amp;quot;❌&amp;quot;}&quot;&gt;❌&lt;/td&gt;&lt;td style=&quot;border-width: 1px; border-style: solid; border-color: rgb(204, 204, 204) rgb(0, 0, 0) rgb(0, 0, 0) rgb(204, 204, 204); border-image: initial; overflow: hidden; padding: 2px 3px; vertical-align: bottom; overflow-wrap: break-word; text-align: center;&quot; data-sheets-numberformat=&quot;{&amp;quot;1&amp;quot;:1}&quot; data-sheets-value=&quot;{&amp;quot;1&amp;quot;:2,&amp;quot;2&amp;quot;:&amp;quot;❌&amp;quot;}&quot;&gt;❌&lt;/td&gt;&lt;td style=&quot;border-width: 1px; border-style: solid; border-color: rgb(204, 204, 204) rgb(0, 0, 0) rgb(0, 0, 0) rgb(204, 204, 204); border-image: initial; overflow: hidden; padding: 2px 3px; vertical-align: bottom; overflow-wrap: break-word; text-align: center;&quot; data-sheets-numberformat=&quot;{&amp;quot;1&amp;quot;:1}&quot; data-sheets-value=&quot;{&amp;quot;1&amp;quot;:2,&amp;quot;2&amp;quot;:&amp;quot;✅&amp;quot;}&quot;&gt;✅&lt;/td&gt;&lt;td style=&quot;border-width: 1px; border-style: solid; border-color: rgb(204, 204, 204) rgb(0, 0, 0) rgb(0, 0, 0) rgb(204, 204, 204); border-image: initial; overflow: hidden; padding: 2px 3px; vertical-align: bottom; overflow-wrap: break-word; text-align: center;&quot; data-sheets-numberformat=&quot;{&amp;quot;1&amp;quot;:1}&quot; data-sheets-value=&quot;{&amp;quot;1&amp;quot;:2,&amp;quot;2&amp;quot;:&amp;quot;❌&amp;quot;}&quot;&gt;❌&lt;/td&gt;&lt;td style=&quot;border-width: 1px; border-style: solid; border-color: rgb(204, 204, 204) rgb(0, 0, 0) rgb(0, 0, 0) rgb(204, 204, 204); border-image: initial; overflow: hidden; padding: 2px 3px; vertical-align: bottom; overflow-wrap: break-word; text-align: center;&quot; data-sheets-numberformat=&quot;{&amp;quot;1&amp;quot;:1}&quot; data-sheets-value=&quot;{&amp;quot;1&amp;quot;:2,&amp;quot;2&amp;quot;:&amp;quot;❌&amp;quot;}&quot;&gt;❌&lt;/td&gt;&lt;td style=&quot;border-width: 1px; border-style: solid; border-color: rgb(204, 204, 204) rgb(0, 0, 0) rgb(0, 0, 0) rgb(204, 204, 204); border-image: initial; overflow: hidden; padding: 2px 3px; vertical-align: bottom; overflow-wrap: break-word; text-align: center;&quot; data-sheets-numberformat=&quot;{&amp;quot;1&amp;quot;:1}&quot; data-sheets-value=&quot;{&amp;quot;1&amp;quot;:2,&amp;quot;2&amp;quot;:&amp;quot;❌&amp;quot;}&quot;&gt;❌&lt;/td&gt;&lt;td style=&quot;border-width: 1px; border-style: solid; border-color: rgb(204, 204, 204) rgb(0, 0, 0) rgb(0, 0, 0) rgb(204, 204, 204); border-image: initial; overflow: hidden; padding: 2px 3px; vertical-align: bottom; overflow-wrap: break-word; text-align: center;&quot; data-sheets-numberformat=&quot;{&amp;quot;1&amp;quot;:1}&quot; data-sheets-value=&quot;{&amp;quot;1&amp;quot;:2,&amp;quot;2&amp;quot;:&amp;quot;❌&amp;quot;}&quot;&gt;❌&lt;/td&gt;&lt;/tr&gt;&lt;tr style=&quot;height: 21px;&quot;&gt;&lt;td style=&quot;border-width: 1px; border-style: solid; border-color: rgb(204, 204, 204) rgb(0, 0, 0) rgb(0, 0, 0); border-image: initial; overflow: hidden; padding: 2px 3px; vertical-align: bottom; text-align: center;&quot; data-sheets-value=&quot;{&amp;quot;1&amp;quot;:2,&amp;quot;2&amp;quot;:&amp;quot;Build ECR container Image&amp;quot;}&quot;&gt;Build ECR container Image&lt;/td&gt;&lt;td style=&quot;border-width: 1px; border-style: solid; border-color: rgb(204, 204, 204) rgb(0, 0, 0) rgb(0, 0, 0) rgb(204, 204, 204); border-image: initial; overflow: hidden; padding: 2px 3px; vertical-align: bottom; overflow-wrap: break-word; text-align: center;&quot; data-sheets-numberformat=&quot;{&amp;quot;1&amp;quot;:1}&quot; data-sheets-value=&quot;{&amp;quot;1&amp;quot;:2,&amp;quot;2&amp;quot;:&amp;quot;❌&amp;quot;}&quot;&gt;❌&lt;/td&gt;&lt;td style=&quot;border-width: 1px; border-style: solid; border-color: rgb(204, 204, 204) rgb(0, 0, 0) rgb(0, 0, 0) rgb(204, 204, 204); border-image: initial; overflow: hidden; padding: 2px 3px; vertical-align: bottom; overflow-wrap: break-word; text-align: center;&quot; data-sheets-numberformat=&quot;{&amp;quot;1&amp;quot;:1}&quot; data-sheets-value=&quot;{&amp;quot;1&amp;quot;:2,&amp;quot;2&amp;quot;:&amp;quot;❌&amp;quot;}&quot;&gt;❌&lt;/td&gt;&lt;td style=&quot;border-width: 1px; border-style: solid; border-color: rgb(204, 204, 204) rgb(0, 0, 0) rgb(0, 0, 0) rgb(204, 204, 204); border-image: initial; overflow: hidden; padding: 2px 3px; vertical-align: bottom; overflow-wrap: break-word; text-align: center;&quot; data-sheets-numberformat=&quot;{&amp;quot;1&amp;quot;:1}&quot; data-sheets-value=&quot;{&amp;quot;1&amp;quot;:2,&amp;quot;2&amp;quot;:&amp;quot;❌&amp;quot;}&quot;&gt;❌&lt;/td&gt;&lt;td style=&quot;border-width: 1px; border-style: solid; border-color: rgb(204, 204, 204) rgb(0, 0, 0) rgb(0, 0, 0) rgb(204, 204, 204); border-image: initial; overflow: hidden; padding: 2px 3px; vertical-align: bottom; overflow-wrap: break-word; text-align: center;&quot; data-sheets-numberformat=&quot;{&amp;quot;1&amp;quot;:1}&quot; data-sheets-value=&quot;{&amp;quot;1&amp;quot;:2,&amp;quot;2&amp;quot;:&amp;quot;❌&amp;quot;}&quot;&gt;❌&lt;/td&gt;&lt;td style=&quot;border-width: 1px; border-style: solid; border-color: rgb(204, 204, 204) rgb(0, 0, 0) rgb(0, 0, 0) rgb(204, 204, 204); border-image: initial; overflow: hidden; padding: 2px 3px; vertical-align: bottom; overflow-wrap: break-word; text-align: center;&quot; data-sheets-numberformat=&quot;{&amp;quot;1&amp;quot;:1}&quot; data-sheets-value=&quot;{&amp;quot;1&amp;quot;:2,&amp;quot;2&amp;quot;:&amp;quot;❌&amp;quot;}&quot;&gt;❌&lt;/td&gt;&lt;td style=&quot;border-width: 1px; border-style: solid; border-color: rgb(204, 204, 204) rgb(0, 0, 0) rgb(0, 0, 0) rgb(204, 204, 204); border-image: initial; overflow: hidden; padding: 2px 3px; vertical-align: bottom; overflow-wrap: break-word; text-align: center;&quot; data-sheets-numberformat=&quot;{&amp;quot;1&amp;quot;:1}&quot; data-sheets-value=&quot;{&amp;quot;1&amp;quot;:2,&amp;quot;2&amp;quot;:&amp;quot;✅&amp;quot;}&quot;&gt;✅&lt;/td&gt;&lt;td style=&quot;border-width: 1px; border-style: solid; border-color: rgb(204, 204, 204) rgb(0, 0, 0) rgb(0, 0, 0) rgb(204, 204, 204); border-image: initial; overflow: hidden; padding: 2px 3px; vertical-align: bottom; overflow-wrap: break-word; text-align: center;&quot; data-sheets-numberformat=&quot;{&amp;quot;1&amp;quot;:1}&quot; data-sheets-value=&quot;{&amp;quot;1&amp;quot;:2,&amp;quot;2&amp;quot;:&amp;quot;❌&amp;quot;}&quot;&gt;❌&lt;/td&gt;&lt;td style=&quot;border-width: 1px; border-style: solid; border-color: rgb(204, 204, 204) rgb(0, 0, 0) rgb(0, 0, 0) rgb(204, 204, 204); border-image: initial; overflow: hidden; padding: 2px 3px; vertical-align: bottom; overflow-wrap: break-word; text-align: center;&quot; data-sheets-numberformat=&quot;{&amp;quot;1&amp;quot;:1}&quot; data-sheets-value=&quot;{&amp;quot;1&amp;quot;:2,&amp;quot;2&amp;quot;:&amp;quot;❌&amp;quot;}&quot;&gt;❌&lt;/td&gt;&lt;td style=&quot;border-width: 1px; border-style: solid; border-color: rgb(204, 204, 204) rgb(0, 0, 0) rgb(0, 0, 0) rgb(204, 204, 204); border-image: initial; overflow: hidden; padding: 2px 3px; vertical-align: bottom; overflow-wrap: break-word; text-align: center;&quot; data-sheets-numberformat=&quot;{&amp;quot;1&amp;quot;:1}&quot; data-sheets-value=&quot;{&amp;quot;1&amp;quot;:2,&amp;quot;2&amp;quot;:&amp;quot;❌&amp;quot;}&quot;&gt;❌&lt;/td&gt;&lt;/tr&gt;&lt;tr style=&quot;height: 21px;&quot;&gt;&lt;td style=&quot;border-width: 1px; border-style: solid; border-color: rgb(204, 204, 204) rgb(0, 0, 0) rgb(0, 0, 0); border-image: initial; overflow: hidden; padding: 2px 3px; vertical-align: bottom; text-align: center;&quot; data-sheets-value=&quot;{&amp;quot;1&amp;quot;:2,&amp;quot;2&amp;quot;:&amp;quot;Deploy Lambda App via CDK&amp;quot;}&quot;&gt;Deploy Lambda App via CDK&lt;/td&gt;&lt;td style=&quot;border-width: 1px; border-style: solid; border-color: rgb(204, 204, 204) rgb(0, 0, 0) rgb(0, 0, 0) rgb(204, 204, 204); border-image: initial; overflow: hidden; padding: 2px 3px; vertical-align: bottom; overflow-wrap: break-word; text-align: center;&quot; data-sheets-numberformat=&quot;{&amp;quot;1&amp;quot;:1}&quot; data-sheets-value=&quot;{&amp;quot;1&amp;quot;:2,&amp;quot;2&amp;quot;:&amp;quot;✅&amp;quot;}&quot;&gt;✅&lt;/td&gt;&lt;td style=&quot;border-width: 1px; border-style: solid; border-color: rgb(204, 204, 204) rgb(0, 0, 0) rgb(0, 0, 0) rgb(204, 204, 204); border-image: initial; overflow: hidden; padding: 2px 3px; vertical-align: bottom; overflow-wrap: break-word; text-align: center;&quot; data-sheets-numberformat=&quot;{&amp;quot;1&amp;quot;:1}&quot; data-sheets-value=&quot;{&amp;quot;1&amp;quot;:2,&amp;quot;2&amp;quot;:&amp;quot;❌&amp;quot;}&quot;&gt;❌&lt;/td&gt;&lt;td style=&quot;border-width: 1px; border-style: solid; border-color: rgb(204, 204, 204) rgb(0, 0, 0) rgb(0, 0, 0) rgb(204, 204, 204); border-image: initial; overflow: hidden; padding: 2px 3px; vertical-align: bottom; overflow-wrap: break-word; text-align: center;&quot; data-sheets-numberformat=&quot;{&amp;quot;1&amp;quot;:1}&quot; data-sheets-value=&quot;{&amp;quot;1&amp;quot;:2,&amp;quot;2&amp;quot;:&amp;quot;❌&amp;quot;}&quot;&gt;❌&lt;/td&gt;&lt;td style=&quot;border-width: 1px; border-style: solid; border-color: rgb(204, 204, 204) rgb(0, 0, 0) rgb(0, 0, 0) rgb(204, 204, 204); border-image: initial; overflow: hidden; padding: 2px 3px; vertical-align: bottom; overflow-wrap: break-word; text-align: center;&quot; data-sheets-numberformat=&quot;{&amp;quot;1&amp;quot;:1}&quot; data-sheets-value=&quot;{&amp;quot;1&amp;quot;:2,&amp;quot;2&amp;quot;:&amp;quot;❌&amp;quot;}&quot;&gt;❌&lt;/td&gt;&lt;td style=&quot;border-width: 1px; border-style: solid; border-color: rgb(204, 204, 204) rgb(0, 0, 0) rgb(0, 0, 0) rgb(204, 204, 204); border-image: initial; overflow: hidden; padding: 2px 3px; vertical-align: bottom; overflow-wrap: break-word; text-align: center;&quot; data-sheets-numberformat=&quot;{&amp;quot;1&amp;quot;:1}&quot; data-sheets-value=&quot;{&amp;quot;1&amp;quot;:2,&amp;quot;2&amp;quot;:&amp;quot;❌&amp;quot;}&quot;&gt;❌&lt;/td&gt;&lt;td style=&quot;border-width: 1px; border-style: solid; border-color: rgb(204, 204, 204) rgb(0, 0, 0) rgb(0, 0, 0) rgb(204, 204, 204); border-image: initial; overflow: hidden; padding: 2px 3px; vertical-align: bottom; overflow-wrap: break-word; text-align: center;&quot; data-sheets-numberformat=&quot;{&amp;quot;1&amp;quot;:1}&quot; data-sheets-value=&quot;{&amp;quot;1&amp;quot;:2,&amp;quot;2&amp;quot;:&amp;quot;❌&amp;quot;}&quot;&gt;❌&lt;/td&gt;&lt;td style=&quot;border-width: 1px; border-style: solid; border-color: rgb(204, 204, 204) rgb(0, 0, 0) rgb(0, 0, 0) rgb(204, 204, 204); border-image: initial; overflow: hidden; padding: 2px 3px; vertical-align: bottom; overflow-wrap: break-word; text-align: center;&quot; data-sheets-numberformat=&quot;{&amp;quot;1&amp;quot;:1}&quot; data-sheets-value=&quot;{&amp;quot;1&amp;quot;:2,&amp;quot;2&amp;quot;:&amp;quot;✅&amp;quot;}&quot;&gt;✅&lt;/td&gt;&lt;td style=&quot;border-width: 1px; border-style: solid; border-color: rgb(204, 204, 204) rgb(0, 0, 0) rgb(0, 0, 0) rgb(204, 204, 204); border-image: initial; overflow: hidden; padding: 2px 3px; vertical-align: bottom; overflow-wrap: break-word; text-align: center;&quot; data-sheets-numberformat=&quot;{&amp;quot;1&amp;quot;:1}&quot; data-sheets-value=&quot;{&amp;quot;1&amp;quot;:2,&amp;quot;2&amp;quot;:&amp;quot;✅&amp;quot;}&quot;&gt;✅&lt;/td&gt;&lt;td style=&quot;border-width: 1px; border-style: solid; border-color: rgb(204, 204, 204) rgb(0, 0, 0) rgb(0, 0, 0) rgb(204, 204, 204); border-image: initial; overflow: hidden; padding: 2px 3px; vertical-align: bottom; overflow-wrap: break-word; text-align: center;&quot; data-sheets-numberformat=&quot;{&amp;quot;1&amp;quot;:1}&quot; data-sheets-value=&quot;{&amp;quot;1&amp;quot;:2,&amp;quot;2&amp;quot;:&amp;quot;❌&amp;quot;}&quot;&gt;❌&lt;/td&gt;&lt;/tr&gt;&lt;tr style=&quot;height: 21px;&quot;&gt;&lt;td style=&quot;border-width: 1px; border-style: solid; border-color: rgb(204, 204, 204) rgb(0, 0, 0) rgb(0, 0, 0); border-image: initial; overflow: hidden; padding: 2px 3px; vertical-align: bottom; text-align: center;&quot; data-sheets-value=&quot;{&amp;quot;1&amp;quot;:2,&amp;quot;2&amp;quot;:&amp;quot;Run Integration Test&amp;quot;}&quot;&gt;Run Integration Test&lt;/td&gt;&lt;td style=&quot;border-width: 1px; border-style: solid; border-color: rgb(204, 204, 204) rgb(0, 0, 0) rgb(0, 0, 0) rgb(204, 204, 204); border-image: initial; overflow: hidden; padding: 2px 3px; vertical-align: bottom; overflow-wrap: break-word; text-align: center;&quot; data-sheets-numberformat=&quot;{&amp;quot;1&amp;quot;:1}&quot; data-sheets-value=&quot;{&amp;quot;1&amp;quot;:2,&amp;quot;2&amp;quot;:&amp;quot;✅&amp;quot;}&quot;&gt;✅&lt;/td&gt;&lt;td style=&quot;border-width: 1px; border-style: solid; border-color: rgb(204, 204, 204) rgb(0, 0, 0) rgb(0, 0, 0) rgb(204, 204, 204); border-image: initial; overflow: hidden; padding: 2px 3px; vertical-align: bottom; overflow-wrap: break-word; text-align: center;&quot; data-sheets-numberformat=&quot;{&amp;quot;1&amp;quot;:1}&quot; data-sheets-value=&quot;{&amp;quot;1&amp;quot;:2,&amp;quot;2&amp;quot;:&amp;quot;❌&amp;quot;}&quot;&gt;❌&lt;/td&gt;&lt;td style=&quot;border-width: 1px; border-style: solid; border-color: rgb(204, 204, 204) rgb(0, 0, 0) rgb(0, 0, 0) rgb(204, 204, 204); border-image: initial; overflow: hidden; padding: 2px 3px; vertical-align: bottom; overflow-wrap: break-word; text-align: center;&quot; data-sheets-numberformat=&quot;{&amp;quot;1&amp;quot;:1}&quot; data-sheets-value=&quot;{&amp;quot;1&amp;quot;:2,&amp;quot;2&amp;quot;:&amp;quot;❌&amp;quot;}&quot;&gt;❌&lt;/td&gt;&lt;td style=&quot;border-width: 1px; border-style: solid; border-color: rgb(204, 204, 204) rgb(0, 0, 0) rgb(0, 0, 0) rgb(204, 204, 204); border-image: initial; overflow: hidden; padding: 2px 3px; vertical-align: bottom; overflow-wrap: break-word; text-align: center;&quot; data-sheets-numberformat=&quot;{&amp;quot;1&amp;quot;:1}&quot; data-sheets-value=&quot;{&amp;quot;1&amp;quot;:2,&amp;quot;2&amp;quot;:&amp;quot;❌&amp;quot;}&quot;&gt;❌&lt;/td&gt;&lt;td style=&quot;border-width: 1px; border-style: solid; border-color: rgb(204, 204, 204) rgb(0, 0, 0) rgb(0, 0, 0) rgb(204, 204, 204); border-image: initial; overflow: hidden; padding: 2px 3px; vertical-align: bottom; overflow-wrap: break-word; text-align: center;&quot; data-sheets-numberformat=&quot;{&amp;quot;1&amp;quot;:1}&quot; data-sheets-value=&quot;{&amp;quot;1&amp;quot;:2,&amp;quot;2&amp;quot;:&amp;quot;❌&amp;quot;}&quot;&gt;❌&lt;/td&gt;&lt;td style=&quot;border-width: 1px; border-style: solid; border-color: rgb(204, 204, 204) rgb(0, 0, 0) rgb(0, 0, 0) rgb(204, 204, 204); border-image: initial; overflow: hidden; padding: 2px 3px; vertical-align: bottom; overflow-wrap: break-word; text-align: center;&quot; data-sheets-numberformat=&quot;{&amp;quot;1&amp;quot;:1}&quot; data-sheets-value=&quot;{&amp;quot;1&amp;quot;:2,&amp;quot;2&amp;quot;:&amp;quot;❌&amp;quot;}&quot;&gt;❌&lt;/td&gt;&lt;td style=&quot;border-width: 1px; border-style: solid; border-color: rgb(204, 204, 204) rgb(0, 0, 0) rgb(0, 0, 0) rgb(204, 204, 204); border-image: initial; overflow: hidden; padding: 2px 3px; vertical-align: bottom; overflow-wrap: break-word; text-align: center;&quot; data-sheets-numberformat=&quot;{&amp;quot;1&amp;quot;:1}&quot; data-sheets-value=&quot;{&amp;quot;1&amp;quot;:2,&amp;quot;2&amp;quot;:&amp;quot;✅&amp;quot;}&quot;&gt;✅&lt;/td&gt;&lt;td style=&quot;border-width: 1px; border-style: solid; border-color: rgb(204, 204, 204) rgb(0, 0, 0) rgb(0, 0, 0) rgb(204, 204, 204); border-image: initial; overflow: hidden; padding: 2px 3px; vertical-align: bottom; overflow-wrap: break-word; text-align: center;&quot; data-sheets-numberformat=&quot;{&amp;quot;1&amp;quot;:1}&quot; data-sheets-value=&quot;{&amp;quot;1&amp;quot;:2,&amp;quot;2&amp;quot;:&amp;quot;✅&amp;quot;}&quot;&gt;✅&lt;/td&gt;&lt;td style=&quot;border-width: 1px; border-style: solid; border-color: rgb(204, 204, 204) rgb(0, 0, 0) rgb(0, 0, 0) rgb(204, 204, 204); border-image: initial; overflow: hidden; padding: 2px 3px; vertical-align: bottom; overflow-wrap: break-word; text-align: center;&quot; data-sheets-numberformat=&quot;{&amp;quot;1&amp;quot;:1}&quot; data-sheets-value=&quot;{&amp;quot;1&amp;quot;:2,&amp;quot;2&amp;quot;:&amp;quot;❌&amp;quot;}&quot;&gt;❌&lt;/td&gt;&lt;/tr&gt;&lt;tr style=&quot;height: 21px;&quot;&gt;&lt;td style=&quot;border-width: 1px; border-style: solid; border-color: rgb(204, 204, 204) rgb(0, 0, 0) rgb(0, 0, 0); border-image: initial; overflow: hidden; padding: 2px 3px; vertical-align: bottom; text-align: center;&quot; data-sheets-value=&quot;{&amp;quot;1&amp;quot;:2,&amp;quot;2&amp;quot;:&amp;quot;Delete Lambda App&amp;quot;}&quot;&gt;Delete Lambda App&lt;/td&gt;&lt;td style=&quot;border-width: 1px; border-style: solid; border-color: rgb(204, 204, 204) rgb(0, 0, 0) rgb(0, 0, 0) rgb(204, 204, 204); border-image: initial; overflow: hidden; padding: 2px 3px; vertical-align: bottom; overflow-wrap: break-word; text-align: center;&quot; data-sheets-numberformat=&quot;{&amp;quot;1&amp;quot;:1}&quot; data-sheets-value=&quot;{&amp;quot;1&amp;quot;:2,&amp;quot;2&amp;quot;:&amp;quot;❌&amp;quot;}&quot;&gt;❌&lt;/td&gt;&lt;td style=&quot;border-width: 1px; border-style: solid; border-color: rgb(204, 204, 204) rgb(0, 0, 0) rgb(0, 0, 0) rgb(204, 204, 204); border-image: initial; overflow: hidden; padding: 2px 3px; vertical-align: bottom; overflow-wrap: break-word; text-align: center;&quot; data-sheets-numberformat=&quot;{&amp;quot;1&amp;quot;:1}&quot; data-sheets-value=&quot;{&amp;quot;1&amp;quot;:2,&amp;quot;2&amp;quot;:&amp;quot;❌&amp;quot;}&quot;&gt;❌&lt;/td&gt;&lt;td style=&quot;border-width: 1px; border-style: solid; border-color: rgb(204, 204, 204) rgb(0, 0, 0) rgb(0, 0, 0) rgb(204, 204, 204); border-image: initial; overflow: hidden; padding: 2px 3px; vertical-align: bottom; overflow-wrap: break-word; text-align: center;&quot; data-sheets-numberformat=&quot;{&amp;quot;1&amp;quot;:1}&quot; data-sheets-value=&quot;{&amp;quot;1&amp;quot;:2,&amp;quot;2&amp;quot;:&amp;quot;❌&amp;quot;}&quot;&gt;❌&lt;/td&gt;&lt;td style=&quot;border-width: 1px; border-style: solid; border-color: rgb(204, 204, 204) rgb(0, 0, 0) rgb(0, 0, 0) rgb(204, 204, 204); border-image: initial; overflow: hidden; padding: 2px 3px; vertical-align: bottom; overflow-wrap: break-word; text-align: center;&quot; data-sheets-numberformat=&quot;{&amp;quot;1&amp;quot;:1}&quot; data-sheets-value=&quot;{&amp;quot;1&amp;quot;:2,&amp;quot;2&amp;quot;:&amp;quot;❌&amp;quot;}&quot;&gt;❌&lt;/td&gt;&lt;td style=&quot;border-width: 1px; border-style: solid; border-color: rgb(204, 204, 204) rgb(0, 0, 0) rgb(0, 0, 0) rgb(204, 204, 204); border-image: initial; overflow: hidden; padding: 2px 3px; vertical-align: bottom; overflow-wrap: break-word; text-align: center;&quot; data-sheets-numberformat=&quot;{&amp;quot;1&amp;quot;:1}&quot; data-sheets-value=&quot;{&amp;quot;1&amp;quot;:2,&amp;quot;2&amp;quot;:&amp;quot;❌&amp;quot;}&quot;&gt;❌&lt;/td&gt;&lt;td style=&quot;border-width: 1px; border-style: solid; border-color: rgb(204, 204, 204) rgb(0, 0, 0) rgb(0, 0, 0) rgb(204, 204, 204); border-image: initial; overflow: hidden; padding: 2px 3px; vertical-align: bottom; overflow-wrap: break-word; text-align: center;&quot; data-sheets-numberformat=&quot;{&amp;quot;1&amp;quot;:1}&quot; data-sheets-value=&quot;{&amp;quot;1&amp;quot;:2,&amp;quot;2&amp;quot;:&amp;quot;❌&amp;quot;}&quot;&gt;❌&lt;/td&gt;&lt;td style=&quot;border-width: 1px; border-style: solid; border-color: rgb(204, 204, 204) rgb(0, 0, 0) rgb(0, 0, 0) rgb(204, 204, 204); border-image: initial; overflow: hidden; padding: 2px 3px; vertical-align: bottom; overflow-wrap: break-word; text-align: center;&quot; data-sheets-numberformat=&quot;{&amp;quot;1&amp;quot;:1}&quot; data-sheets-value=&quot;{&amp;quot;1&amp;quot;:2,&amp;quot;2&amp;quot;:&amp;quot;❌&amp;quot;}&quot;&gt;❌&lt;/td&gt;&lt;td style=&quot;border-width: 1px; border-style: solid; border-color: rgb(204, 204, 204) rgb(0, 0, 0) rgb(0, 0, 0) rgb(204, 204, 204); border-image: initial; overflow: hidden; padding: 2px 3px; vertical-align: bottom; overflow-wrap: break-word; text-align: center;&quot; data-sheets-numberformat=&quot;{&amp;quot;1&amp;quot;:1}&quot; data-sheets-value=&quot;{&amp;quot;1&amp;quot;:2,&amp;quot;2&amp;quot;:&amp;quot;❌&amp;quot;}&quot;&gt;❌&lt;/td&gt;&lt;td style=&quot;border-width: 1px; border-style: solid; border-color: rgb(204, 204, 204) rgb(0, 0, 0) rgb(0, 0, 0) rgb(204, 204, 204); border-image: initial; overflow: hidden; padding: 2px 3px; vertical-align: bottom; overflow-wrap: break-word; text-align: center;&quot; data-sheets-numberformat=&quot;{&amp;quot;1&amp;quot;:1}&quot; data-sheets-value=&quot;{&amp;quot;1&amp;quot;:2,&amp;quot;2&amp;quot;:&amp;quot;✅&amp;quot;}&quot;&gt;✅&lt;/td&gt;&lt;/tr&gt;&lt;/tbody&gt;&lt;/table&gt;" style="text;whiteSpace=wrap;html=1;strokeColor=default;" parent="1" vertex="1">
          <mxGeometry x="40" y="80" width="760" height="280" as="geometry" />
        </mxCell>
        <mxCell id="z8Yz45ZgVJITj-M9Mtvw-1" value="Parameter Store&lt;br&gt;main&lt;br&gt;(Verisioned)" style="sketch=0;outlineConnect=0;fontColor=#232F3E;gradientColor=none;fillColor=#B0084D;strokeColor=none;dashed=0;verticalLabelPosition=bottom;verticalAlign=top;align=center;html=1;fontSize=12;fontStyle=0;pointerEvents=1;shape=mxgraph.aws4.parameter_store;" vertex="1" parent="1">
          <mxGeometry x="120" y="480" width="80" height="80" as="geometry" />
        </mxCell>
        <mxCell id="z8Yz45ZgVJITj-M9Mtvw-2" value="Parameter Store&lt;br&gt;sbx" style="sketch=0;outlineConnect=0;fontColor=#232F3E;gradientColor=none;fillColor=#B0084D;strokeColor=none;dashed=0;verticalLabelPosition=bottom;verticalAlign=top;align=center;html=1;fontSize=12;fontStyle=0;pointerEvents=1;shape=mxgraph.aws4.parameter_store;" vertex="1" parent="1">
          <mxGeometry x="120" y="680" width="80" height="80" as="geometry" />
        </mxCell>
        <mxCell id="23tIPcjk3rtgkuj47fgc-1" value="Parameter Store&lt;br&gt;tst" style="sketch=0;outlineConnect=0;fontColor=#232F3E;gradientColor=none;fillColor=#B0084D;strokeColor=none;dashed=0;verticalLabelPosition=bottom;verticalAlign=top;align=center;html=1;fontSize=12;fontStyle=0;pointerEvents=1;shape=mxgraph.aws4.parameter_store;" vertex="1" parent="1">
          <mxGeometry x="120" y="920" width="80" height="80" as="geometry" />
        </mxCell>
        <mxCell id="23tIPcjk3rtgkuj47fgc-2" value="Parameter Store&lt;br&gt;prd" style="sketch=0;outlineConnect=0;fontColor=#232F3E;gradientColor=none;fillColor=#B0084D;strokeColor=none;dashed=0;verticalLabelPosition=bottom;verticalAlign=top;align=center;html=1;fontSize=12;fontStyle=0;pointerEvents=1;shape=mxgraph.aws4.parameter_store;" vertex="1" parent="1">
          <mxGeometry x="120" y="1160" width="80" height="80" as="geometry" />
        </mxCell>
        <mxCell id="PtPq9IXzCBja6wXGPp5R-1" value="CloudFormation&lt;br&gt;Template" style="sketch=0;outlineConnect=0;fontColor=#232F3E;gradientColor=none;fillColor=#B0084D;strokeColor=none;dashed=0;verticalLabelPosition=bottom;verticalAlign=top;align=center;html=1;fontSize=12;fontStyle=0;pointerEvents=1;shape=mxgraph.aws4.template;" vertex="1" parent="1">
          <mxGeometry x="280" y="680" width="80" height="80" as="geometry" />
        </mxCell>
        <mxCell id="PtPq9IXzCBja6wXGPp5R-2" value="Lambda" style="sketch=0;outlineConnect=0;fontColor=#232F3E;gradientColor=none;fillColor=#D45B07;strokeColor=none;dashed=0;verticalLabelPosition=bottom;verticalAlign=top;align=center;html=1;fontSize=12;fontStyle=0;aspect=fixed;pointerEvents=1;shape=mxgraph.aws4.lambda_function;" vertex="1" parent="1">
          <mxGeometry x="600" y="680" width="80" height="80" as="geometry" />
        </mxCell>
        <mxCell id="PtPq9IXzCBja6wXGPp5R-5" value="Event Rule" style="sketch=0;outlineConnect=0;fontColor=#232F3E;gradientColor=none;fillColor=#B0084D;strokeColor=none;dashed=0;verticalLabelPosition=bottom;verticalAlign=top;align=center;html=1;fontSize=12;fontStyle=0;aspect=fixed;pointerEvents=1;shape=mxgraph.aws4.event_event_based;" vertex="1" parent="1">
          <mxGeometry x="440" y="680" width="78" height="78" as="geometry" />
        </mxCell>
        <mxCell id="jD32kpkFDY1tSJcAyQsd-2" value="CloudFormation&lt;br&gt;Template" style="sketch=0;outlineConnect=0;fontColor=#232F3E;gradientColor=none;fillColor=#B0084D;strokeColor=none;dashed=0;verticalLabelPosition=bottom;verticalAlign=top;align=center;html=1;fontSize=12;fontStyle=0;pointerEvents=1;shape=mxgraph.aws4.template;" vertex="1" parent="1">
          <mxGeometry x="279" y="920" width="80" height="80" as="geometry" />
        </mxCell>
        <mxCell id="jD32kpkFDY1tSJcAyQsd-3" value="Lambda" style="sketch=0;outlineConnect=0;fontColor=#232F3E;gradientColor=none;fillColor=#D45B07;strokeColor=none;dashed=0;verticalLabelPosition=bottom;verticalAlign=top;align=center;html=1;fontSize=12;fontStyle=0;aspect=fixed;pointerEvents=1;shape=mxgraph.aws4.lambda_function;" vertex="1" parent="1">
          <mxGeometry x="599" y="920" width="80" height="80" as="geometry" />
        </mxCell>
        <mxCell id="jD32kpkFDY1tSJcAyQsd-4" value="Event Rule" style="sketch=0;outlineConnect=0;fontColor=#232F3E;gradientColor=none;fillColor=#B0084D;strokeColor=none;dashed=0;verticalLabelPosition=bottom;verticalAlign=top;align=center;html=1;fontSize=12;fontStyle=0;aspect=fixed;pointerEvents=1;shape=mxgraph.aws4.event_event_based;" vertex="1" parent="1">
          <mxGeometry x="439" y="920" width="78" height="78" as="geometry" />
        </mxCell>
        <mxCell id="jD32kpkFDY1tSJcAyQsd-5" value="CloudFormation&lt;br&gt;Template" style="sketch=0;outlineConnect=0;fontColor=#232F3E;gradientColor=none;fillColor=#B0084D;strokeColor=none;dashed=0;verticalLabelPosition=bottom;verticalAlign=top;align=center;html=1;fontSize=12;fontStyle=0;pointerEvents=1;shape=mxgraph.aws4.template;" vertex="1" parent="1">
          <mxGeometry x="279" y="1160" width="80" height="80" as="geometry" />
        </mxCell>
        <mxCell id="jD32kpkFDY1tSJcAyQsd-6" value="Lambda" style="sketch=0;outlineConnect=0;fontColor=#232F3E;gradientColor=none;fillColor=#D45B07;strokeColor=none;dashed=0;verticalLabelPosition=bottom;verticalAlign=top;align=center;html=1;fontSize=12;fontStyle=0;aspect=fixed;pointerEvents=1;shape=mxgraph.aws4.lambda_function;" vertex="1" parent="1">
          <mxGeometry x="599" y="1160" width="80" height="80" as="geometry" />
        </mxCell>
        <mxCell id="jD32kpkFDY1tSJcAyQsd-7" value="Event Rule" style="sketch=0;outlineConnect=0;fontColor=#232F3E;gradientColor=none;fillColor=#B0084D;strokeColor=none;dashed=0;verticalLabelPosition=bottom;verticalAlign=top;align=center;html=1;fontSize=12;fontStyle=0;aspect=fixed;pointerEvents=1;shape=mxgraph.aws4.event_event_based;" vertex="1" parent="1">
          <mxGeometry x="439" y="1160" width="78" height="78" as="geometry" />
        </mxCell>
        <mxCell id="2Y9Hv56h2int0SjsxC3z-1" value="Lambda Layer&lt;br&gt;(Versioned)" style="sketch=0;outlineConnect=0;fontColor=#232F3E;gradientColor=none;fillColor=#B0084D;strokeColor=none;dashed=0;verticalLabelPosition=bottom;verticalAlign=top;align=center;html=1;fontSize=12;fontStyle=0;pointerEvents=1;shape=mxgraph.aws4.layers;" vertex="1" parent="1">
          <mxGeometry x="279" y="480" width="80" height="80" as="geometry" />
        </mxCell>
        <mxCell id="XFZpBKkkT1JXyepJ2Mxk-1" value="Deployment Package&#xa;(Versioned)" style="shape=image;verticalLabelPosition=bottom;labelBackgroundColor=default;verticalAlign=top;aspect=fixed;imageAspect=0;image=data:image/svg+xml,PHN2ZyB4bWxucz0iaHR0cDovL3d3dy53My5vcmcvMjAwMC9zdmciIGhlaWdodD0iNDhweCIgd2lkdGg9IjQ4cHgiIHZpZXdCb3g9IjAgMCA0OCA0OCI+PHBhdGggZD0iTTE3IDI0TDcgMTcuNDY3YzAgMCAxLTEuODY1IDEtMy43MzJTNyAxMCA3IDEwbDEwIDYuNTMzVjI0ek0xNyA0MEw3IDMyLjUzM2MwIDAgMS0uOTM0IDEtMi44UzcgMjYgNyAyNmwxMCA2LjUzM1Y0MHpNMTcgMzJMNyAyNC41MzNjMCAwIDEtLjkzNCAxLTIuOFM3IDE4IDcgMThsMTAgNi41MzNWMzJ6IiBmaWxsPSIjQ0ZEOERDIi8+PHBhdGggZD0iTTE3LjYyNCwzNGMtMC4yMTksMC0wLjQ0LTAuMDcxLTAuNjI0LTAuMjE5bC0xMC42MjUtOGMtMC40MzItMC4zNDYtMC41MDEtMC45NzUtMC4xNTYtMS40MDZjMC4zNDQtMC40MzEsMC45NzUtMC41MDEsMS40MDUtMC4xNTZsMTAuNjI1LDhjMC40MzIsMC4zNDYsMC41MDEsMC45NzUsMC4xNTYsMS40MDZDMTguMjA4LDMzLjg3MSwxNy45MTcsMzQsMTcuNjI0LDM0eiIgZmlsbD0iIzNGNTFCNSIvPjxwYXRoIGQ9Ik00MiwyNUgxNmMwLDAsMSwxLjc0MiwxLDQuMjQ2UzE2LDMzLDE2LDMzaDI2YzAsMCwxLTEsMS00UzQyLDI1LDQyLDI1eiIgZmlsbD0iIzNGNTFCNSIvPjxwYXRoIGQ9Ik0xNy42MjQsMjZjLTAuMjE5LDAtMC40NC0wLjA3MS0wLjYyNC0wLjIxOWwtMTAuNjI1LThjLTAuNDMyLTAuMzQ2LTAuNTAxLTAuOTc1LTAuMTU2LTEuNDA2YzAuMzQ0LTAuNDMxLDAuOTc1LTAuNTAyLDEuNDA1LTAuMTU2bDEwLjYyNSw4YzAuNDMyLDAuMzQ2LDAuNTAxLDAuOTc1LDAuMTU2LDEuNDA2QzE4LjIwOCwyNS44NzEsMTcuOTE3LDI2LDE3LjYyNCwyNnoiIGZpbGw9IiM5QzI3QjAiLz48cGF0aCBkPSJNNDIsMTdIMTZjMCwwLDEsMS43NDIsMSw0LjI0NlMxNiwyNSwxNiwyNWgyNmMwLDAsMS0xLDEtNFM0MiwxNyw0MiwxN3oiIGZpbGw9IiM5QzI3QjAiLz48cGF0aCBkPSJNMTguNjA5LDQxYzAtMC4yOTMtMC4xMTMtMC41ODQtMC4zNi0wLjc4MWwtMTAuNjI1LThjLTAuNDMtMC4zNDUtMS4wNjEtMC4yNzQtMS40MDUsMC4xNTZjLTAuMzQ1LDAuNDMyLTAuMjc1LDEuMDYxLDAuMTU2LDEuNDA2TDE1Ljk2Miw0MUgxOC42MDl6IiBmaWxsPSIjOEJDMzRBIi8+PHBhdGggZD0iTTQyLDMzSDE2YzAsMCwxLDEuNzQyLDEsNC4yNDZTMTYsNDEsMTYsNDFoMjZjMCwwLDEtMSwxLTRTNDIsMzMsNDIsMzN6IiBmaWxsPSIjOEJDMzRBIi8+PHBhdGggZD0iTTQyLDMzSDE2YzAsMCwwLjQ0MSwwLjc1NiwwLjczMywyaDI2LjAzNUM0Mi40NzMsMzMuNTU5LDQyLDMzLDQyLDMzeiIgZmlsbD0iIzY4OUYzOCIvPjxwYXRoIGQ9Ik00MiwyNUgxNmMwLDAsMC40NDEsMC43NTYsMC43MzMsMmgyNi4wMzVDNDIuNDczLDI1LjU1OSw0MiwyNSw0MiwyNXoiIGZpbGw9IiMzMDNGOUYiLz48cGF0aCBkPSJNMjEuMDM0IDMyYy4xMS0uNDUuMjk5LTEuMzc5LjI5OS0yLjVzLS4xODktMi4wNS0uMjk5LTIuNUgxOWMuMDAzLjAwOS4zMzMgMS4yNjcuMzMzIDIuNVMxOS4wMDIgMzEuOTkzIDE5IDMySDIxLjAzNHpNMjEuMDM0IDI0Yy4xMS0uNDUuMjk5LTEuMzc5LjI5OS0yLjVzLS4xODktMi4wNS0uMjk5LTIuNUgxOWMuMDAzLjAwOS4zMzMgMS4yNjcuMzMzIDIuNVMxOS4wMDIgMjMuOTkzIDE5IDI0SDIxLjAzNHpNMjEuMDM0IDQwYy4xMS0uNDUuMjk5LTEuMzc5LjI5OS0yLjVzLS4xODktMi4wNS0uMjk5LTIuNUgxOWMuMDAzLjAwOS4zMzMgMS4yNjcuMzMzIDIuNVMxOS4wMDIgMzkuOTkzIDE5IDQwSDIxLjAzNHoiIGZpbGw9IiNGREQ4MzUiLz48cGF0aCBkPSJNNDIuNzY4LDE5QzQyLjQ3MywxNy41NTksNDIsMTcsNDIsMTdMMzAuODQ0LDguNTkxQzMwLjg0NCw4LjU5MSwzMC4wNjMsOCwyOSw4QzI3Ljc3MSw4LDcsOCw3LDhsMC4wMTgsMC4wMThDNi43MDMsOC4wMTIsNi4zOSw4LjEzNyw2LjE5MSw4LjQxMmMtMC4zMjUsMC40NDYtMC4yMjYsMS4wNzIsMC4yMiwxLjM5Nmw5LjczNyw3LjQ3YzAuMTYxLDAuMzI1LDAuNDE4LDAuOTIsMC42MDcsMS43MjJINDIuNzY4eiIgZmlsbD0iIzdCMUZBMiIvPjxwYXRoIGQ9Ik0zMiwxNkwyMSw4aC01bDExLDhjMS43NSwxLjI1LDIsMS42MjUsMiwzczAsMTksMCwxOXMwLDMtMiwzYzEuMDU2LDAsMy42NzgsMCw1LDBjMiwwLDItMywyLTNzMC0xOCwwLTE5QzM0LDE3LDMyLjQzOCwxNi40MzgsMzIsMTZ6IiBmaWxsPSIjQUY3MDAwIi8+PGc+PHBhdGggZD0iTTM0LDI3djRoLTV2LTRIMzQgTTM0LjI1LDI2aC01LjVDMjguMzM2LDI2LDI4LDI2LjMzNiwyOCwyNi43NXY0LjVjMCwwLjQxNCwwLjMzNiwwLjc1LDAuNzUsMC43NWg1LjVjMC40MTQsMCwwLjc1LTAuMzM2LDAuNzUtMC43NXYtNC41QzM1LDI2LjMzNiwzNC42NjQsMjYsMzQuMjUsMjZMMzQuMjUsMjZ6IiBmaWxsPSIjRkZDMTA3Ii8+PC9nPjxwYXRoIGQ9Ik0zMS41IDI4LjVBMC41IDAuNSAwIDEgMCAzMS41IDI5LjVBMC41IDAuNSAwIDEgMCAzMS41IDI4LjVaIiBmaWxsPSIjNUIzQjA3Ii8+PHBhdGggZD0iTTMxLjUsMjljLTAuMjc2LDAtMC41LTAuMjI0LTAuNS0wLjV2LTNjMC0wLjI3NiwwLjIyNC0wLjUsMC41LTAuNXMwLjUsMC4yMjQsMC41LDAuNXYzQzMyLDI4Ljc3NiwzMS43NzYsMjksMzEuNSwyOXoiIGZpbGw9IiNGRkVCM0IiLz48L3N2Zz4=;" vertex="1" parent="1">
          <mxGeometry x="439" y="480" width="80" height="80" as="geometry" />
        </mxCell>
        <mxCell id="XFZpBKkkT1JXyepJ2Mxk-2" value="ECR&lt;br&gt;Container Image&lt;br&gt;(Versioned)" style="sketch=0;points=[[0,0,0],[0.25,0,0],[0.5,0,0],[0.75,0,0],[1,0,0],[0,1,0],[0.25,1,0],[0.5,1,0],[0.75,1,0],[1,1,0],[0,0.25,0],[0,0.5,0],[0,0.75,0],[1,0.25,0],[1,0.5,0],[1,0.75,0]];outlineConnect=0;fontColor=#232F3E;gradientColor=#F78E04;gradientDirection=north;fillColor=#D05C17;strokeColor=#ffffff;dashed=0;verticalLabelPosition=bottom;verticalAlign=top;align=center;html=1;fontSize=12;fontStyle=0;aspect=fixed;shape=mxgraph.aws4.resourceIcon;resIcon=mxgraph.aws4.ecr;" vertex="1" parent="1">
          <mxGeometry x="599" y="480" width="80" height="80" as="geometry" />
        </mxCell>
      </root>
    </mxGraphModel>
  </diagram>
</mxfile>
